<?xml version="1.0" encoding="UTF-8"?>
<!DOCTYPE svg PUBLIC "-//W3C//DTD SVG 1.1//EN" "http://www.w3.org/Graphics/SVG/1.1/DTD/svg11.dtd">
<svg version="1.1" xmlns="http://www.w3.org/2000/svg" xmlns:xlink="http://www.w3.org/1999/xlink" x="0" y="0" width="500" height="200" viewBox="0, 0, 500, 200">
  <g id="Background">
    <rect x="0" y="0" width="500" height="200" fill="#000000" fill-opacity="0"/>
  </g>
  <g id="Layer_1">
    <path d="M415.558,162.49 L461.055,37.491 L449.544,37.491 L404.054,162.49 z M270.232,162.49 L315.726,37.491 L304.215,37.491 L258.739,162.49 z M124.483,162.49 L169.977,37.491 L181.485,37.491 L135.987,162.49 z M65.655,91.417 L81.787,91.417 C87.848,91.417 91.076,91.029 94.452,87.497 C98.209,83.56 98.501,78.59 98.501,77.161 C98.501,71.266 95.108,66.07 90.056,64.232 C87.728,63.403 84.867,63.05 80.489,63.05 L65.655,63.05 z M65.944,136.791 L82.944,136.791 C94.677,136.791 101.68,130.543 101.68,120.076 C101.68,112.855 97.662,106.642 91.905,104.97 C89.343,104.219 87.216,104.085 82.507,104.085 L65.944,104.085 z M50.528,149.462 L50.528,50.519 L77.882,50.519 C92.603,50.519 97.711,51.468 103.902,55.352 C111.321,60.062 114.93,66.345 114.93,74.558 C114.93,85.201 108.958,92.771 98.113,95.872 L96.191,96.419 L98.135,96.895 C105.603,98.712 111.17,102.152 114.68,107.108 C117.488,111.077 118.973,116.114 118.973,121.667 C118.973,131.291 115.77,138.212 109.173,142.819 C102.777,147.286 93.393,149.462 80.489,149.462 z M377.846,149.462 L377.846,103.213 L341.249,103.213 L341.249,149.462 L325.837,149.462 L325.837,50.519 L341.249,50.519 L341.249,90.693 L377.846,90.693 L377.846,50.519 L393.548,50.519 L393.548,149.462 z M215.033,151.194 C203.734,151.194 192.354,148.132 182.927,142.562 L188.815,130.786 C198.746,136.48 206.542,138.812 215.612,138.812 C228.248,138.812 235.794,132.67 235.794,122.387 C235.794,114.717 231.085,109.969 220.526,106.995 L209.834,103.958 C200.383,101.259 194.326,97.52 190.766,92.182 C188.007,88.115 186.663,83.437 186.663,77.877 C186.663,69.4 189.867,62.129 195.931,56.855 C201.998,51.578 210.356,48.787 220.096,48.787 C231.483,48.787 242.444,52.029 251.02,57.931 L244.056,68.783 C234.803,63.339 228.425,61.307 220.674,61.307 C215.718,61.307 211.502,62.63 208.482,65.131 C205.427,67.668 203.812,71.22 203.812,75.418 C203.812,81.899 207.392,85.247 217.489,88.21 L229.339,91.685 C236.8,93.844 242.673,97.216 246.797,101.7 C251.26,106.554 253.521,112.587 253.521,119.642 C253.521,128.059 250.06,135.827 243.781,141.525 C236.8,147.85 226.858,151.194 215.033,151.194" fill="#FFFFFF"/>
  </g>
</svg>
