<?xml version="1.0" encoding="UTF-8"?>
<svg xmlns="http://www.w3.org/2000/svg" xmlns:xlink="http://www.w3.org/1999/xlink" version="1.2" >
<font id="Bosch Sans Bold Italic">
<font-face  font-family="Bosch Sans" units-per-em="2048" ascent="1638" descent="-555" font-style="italic" font-weight="700" font-stretch="normal" slope="-11" cap-height="1464" x-height="1071" underline-position="-310" underline-thickness="244" />
<missing-glyph  horiz-adv-x="616" d="M62 0 L62 1464 L554 1464 L554 0 L62 0 Z M492 62 L492 1402 L124 1402 L124 62 L492 62 Z " />
<glyph glyph-name="space" unicode="&#x20;" horiz-adv-x="616" d="" />
<glyph glyph-name="exclam" unicode="&#x21;" horiz-adv-x="758" d="M314 489 L353 1038 L437 1464 L777 1464 L689 1017 L509 489 L314 489 Z M372 354 Q443 354 492.5 305.5 Q542 257 542 186 Q542 101 482 41.5 Q422 -18 335 -18 Q263 -18 215 29.5 Q167 77 167 149 Q167 233 227 293.5 Q287 354 372 354 Z " />
<glyph glyph-name="quotedbl" unicode="&#x22;" horiz-adv-x="1012" d="M230 893 L304 1464 L627 1464 L482 893 L230 893 Z M668 893 L740 1464 L1059 1464 L916 893 L668 893 Z " />
<glyph glyph-name="numbersign" unicode="&#x23;" horiz-adv-x="1147" d="M201 961 L242 1186 L433 1186 L501 1464 L689 1464 L619 1186 L812 1186 L881 1464 L1068 1464 L998 1186 L1178 1186 L1133 961 L943 961 L892 752 L1074 752 L1029 527 L836 527 L769 246 L582 246 L650 527 L457 527 L390 246 L204 246 L271 527 L95 527 L136 752 L326 752 L378 961 L201 961 Z M564 961 L513 752 L705 752 L757 961 L564 961 Z " />
<glyph glyph-name="dollar" unicode="&#x24;" horiz-adv-x="1233" d="M389 -276 L440 -10 Q246 26 136 127 Q40 214 -4 357 L291 461 Q334 281 488 236 L563 619 Q379 689 297 763 Q186 865 186 1036 Q186 1244 332 1364 Q478 1484 729 1483 L766 1665 L909 1665 L870 1466 Q1146 1408 1235 1165 L961 1057 Q911 1185 823 1223 L754 868 Q941 801 1021 731 Q1143 626 1143 443 Q1143 181 929 58 Q793 -21 582 -22 L533 -276 L389 -276 Z M629 222 Q830 231 830 402 Q830 459 800.5 496 Q771 533 696 570 L629 222 Z M684 1243 Q487 1230 487 1080 Q487 1022 515.5 987 Q544 952 621 918 L684 1243 Z " />
<glyph glyph-name="percent" unicode="&#x25;" horiz-adv-x="2025" d="M611 1480 Q761 1480 856 1385 Q953 1287 953 1118 Q953 904 832.5 764 Q712 624 526 624 Q363 624 266 731 Q179 827 179 986 Q179 1184 294 1327 Q417 1480 611 1480 Z M592 1279 Q516 1279 472 1202 Q425 1119 425 991 Q425 827 542 827 Q618 827 662 908 Q711 995 711 1117 Q711 1279 592 1279 Z M1570 836 Q1720 836 1815 741 Q1912 643 1912 474 Q1912 260 1791.5 120 Q1671 -20 1485 -20 Q1321 -20 1226 87 Q1140 183 1140 342 Q1140 541 1255 684 Q1376 836 1570 836 Z M1551 635 Q1475 635 1431 558 Q1384 475 1384 346 Q1384 183 1501 183 Q1576 183 1621 263 Q1670 352 1670 473 Q1670 635 1551 635 Z M435 0 L1441 1464 L1662 1464 L656 0 L435 0 Z " />
<glyph glyph-name="ampersand" unicode="&#x26;" horiz-adv-x="1423" d="M906 74 Q740 -23 553 -23 Q282 -23 146 126 Q48 233 48 396 Q48 603 196 732 Q282 807 451 872 Q441 948 441 1004 Q441 1229 571 1360 Q691 1480 875 1480 Q1021 1480 1108 1403 Q1195 1326 1195 1197 Q1195 1051 1097 957 Q999 863 773 792 Q843 618 978 440 Q1054 567 1103 735 L1346 735 Q1260 464 1123 276 Q1183 231 1261 231 Q1278 231 1310 233 L1252 -6 Q1206 -12 1162 -12 Q1016 -12 906 74 Z M501 688 Q361 584 361 415 Q361 306 417.5 249 Q474 192 581 192 Q675 192 761 233 Q585 456 501 688 Z M726 950 Q833 987 882 1030 Q951 1090 951 1181 Q951 1281 866 1281 Q798 1281 757.5 1216.5 Q717 1152 717 1044 Q717 996 726 950 Z " />
<glyph glyph-name="quotesingle" unicode="&#x27;" horiz-adv-x="565" d="M230 893 L304 1464 L627 1464 L482 893 L230 893 Z " />
<glyph glyph-name="parenleft" unicode="&#x28;" horiz-adv-x="868" d="M363 -303 Q170 11 170 381 Q170 842 418 1237 Q529 1415 711 1589 L979 1589 Q787 1366 677 1151 Q477 760 477 336 Q477 -2 604 -303 L363 -303 Z " />
<glyph glyph-name="parenright" unicode="&#x29;" horiz-adv-x="868" d="M547 1589 Q740 1275 740 905 Q740 444 492 49 Q380 -129 199 -303 L-69 -303 Q123 -80 233 135 Q433 526 433 950 Q433 1288 306 1589 L547 1589 Z " />
<glyph glyph-name="asterisk" unicode="&#x2a;" horiz-adv-x="915" d="M400 788 L230 924 L458 1128 L220 1167 L331 1399 L527 1274 L531 1542 L771 1542 L681 1270 L910 1395 L957 1161 L697 1124 L845 913 L634 788 L560 1034 L400 788 Z " />
<glyph glyph-name="plus" unicode="&#x2b;" horiz-adv-x="1147" d="M118 571 L169 823 L495 823 L569 1204 L835 1204 L761 823 L1091 823 L1040 571 L712 571 L638 190 L372 190 L446 571 L118 571 Z " />
<glyph glyph-name="comma" unicode="&#x2c;" horiz-adv-x="616" d="M-38 -346 L-9 -199 Q161 -167 201 2 Q131 12 92 55.5 Q53 99 53 169 Q53 250 110 304 Q167 358 251 358 Q334 358 382 303.5 Q430 249 430 156 Q430 66 397 -25.5 Q364 -117 307 -184 Q242 -260 163 -297.5 Q84 -335 -38 -346 Z " />
<glyph glyph-name="hyphen" unicode="&#x2d;" horiz-adv-x="616" d="M67 527 L120 803 L596 803 L543 527 L67 527 Z " />
<glyph glyph-name="period" unicode="&#x2e;" horiz-adv-x="616" d="M256 358 Q330 358 379 309.5 Q428 261 428 188 Q428 101 368 41.5 Q308 -18 220 -18 Q146 -18 97.5 30 Q49 78 49 151 Q49 237 109.5 297.5 Q170 358 256 358 Z " />
<glyph glyph-name="slash" unicode="&#x2f;" horiz-adv-x="891" d="M-169 -303 L769 1589 L1060 1589 L120 -303 L-169 -303 Z " />
<glyph glyph-name="zero" unicode="0" horiz-adv-x="1233" d="M742 1487 Q948 1487 1077 1341 Q1219 1182 1219 896 Q1219 579 1080 314 Q994 150 864 63.5 Q734 -23 576 -23 Q347 -23 214 147 Q91 303 91 573 Q91 758 143 934.5 Q195 1111 287 1238 Q468 1487 742 1487 Z M726 1229 Q649 1229 583 1148 Q521 1072 477 918 Q423 731 423 536 Q423 235 592 235 Q666 235 729 314 Q789 389 834 546 Q888 734 888 926 Q888 1054 857 1126 Q813 1229 726 1229 Z " />
<glyph glyph-name="one" unicode="1" horiz-adv-x="1233" d="M86 0 L133 246 L446 246 L601 1046 Q468 993 264 991 L307 1214 Q479 1235 568 1285 Q627 1317 664.5 1361 Q702 1405 736 1481 L1003 1481 L764 246 L1038 246 L991 0 L86 0 Z " />
<glyph glyph-name="two" unicode="2" horiz-adv-x="1233" d="M2 0 L49 250 Q290 393 419.5 483 Q549 573 649 667 Q865 872 865 1071 Q865 1142 822.5 1185.5 Q780 1229 709 1229 Q629 1229 575.5 1176 Q522 1123 477 999 L203 1087 Q343 1487 737 1487 Q972 1487 1096 1357 Q1197 1251 1197 1083 Q1197 797 912 542 Q759 405 471 250 L1071 250 L1020 0 L2 0 Z " />
<glyph glyph-name="three" unicode="3" horiz-adv-x="1233" d="M922 743 Q1133 658 1133 424 Q1133 246 1014 127 Q864 -23 584 -23 Q309 -23 158 123 Q99 180 68 245.5 Q37 311 21 414 L318 461 Q346 223 572 223 Q689 223 750 290 Q803 349 803 448 Q803 539 748.5 588 Q694 637 594 637 L494 637 L541 864 L654 864 Q898 864 898 1068 Q898 1147 845.5 1195 Q793 1243 706 1243 Q614 1243 555.5 1194.5 Q497 1146 451 1032 L193 1116 Q336 1487 736 1487 Q949 1487 1080 1383 Q1213 1277 1213 1099 Q1213 836 922 743 Z " />
<glyph glyph-name="four" unicode="4" horiz-adv-x="1233" d="M618 0 L671 281 L-7 281 L46 558 L873 1481 L1200 1481 L1013 525 L1191 525 L1148 281 L966 281 L913 0 L618 0 Z M845 1139 L323 525 L726 525 L845 1139 Z " />
<glyph glyph-name="five" unicode="5" horiz-adv-x="1233" d="M484 860 Q598 972 775 972 Q934 972 1032 875 Q1140 767 1140 565 Q1140 295 979 132 Q826 -23 570 -23 Q328 -23 184 103 Q128 153 96.5 208.5 Q65 264 42 352 L349 415 Q368 343 400 305 Q458 233 568 233 Q707 233 772 348 Q818 429 818 537 Q818 734 647 734 Q522 734 433 616 L163 616 L392 1464 L1218 1464 L1168 1206 L579 1206 L484 860 Z " />
<glyph glyph-name="six" unicode="6" horiz-adv-x="1233" d="M431 774 Q561 952 771 952 Q943 952 1053 839 Q1165 725 1165 535 Q1165 293 1011 135 Q857 -23 609 -23 Q366 -23 233 119 Q93 269 93 554 Q93 805 186 1020 Q270 1216 416 1338 Q591 1484 829 1484 Q990 1484 1092.5 1415.5 Q1195 1347 1261 1196 L1005 1063 Q972 1155 927 1192.5 Q882 1230 803 1230 Q534 1230 431 774 Z M656 719 Q554 719 487 648 Q413 570 413 446 Q413 342 466 282.5 Q519 223 611 223 Q727 223 794 321 Q850 401 850 510 Q850 606 797.5 662.5 Q745 719 656 719 Z " />
<glyph glyph-name="seven" unicode="7" horiz-adv-x="1233" d="M216 0 Q379 733 935 1208 L247 1208 L296 1464 L1303 1464 L1260 1235 Q931 946 739 543 Q674 406 639 294.5 Q604 183 568 0 L216 0 Z " />
<glyph glyph-name="eight" unicode="8" horiz-adv-x="1233" d="M955 749 Q1162 640 1162 432 Q1162 189 946 63 Q798 -23 592 -23 Q334 -23 175 103 Q27 220 27 410 Q27 588 164 698 Q241 760 379 797 Q224 896 224 1064 Q224 1258 390 1378 Q535 1482 745 1482 Q961 1482 1098 1372 Q1229 1267 1229 1099 Q1229 849 955 749 Z M615 663 Q504 663 434.5 598 Q365 533 365 429 Q365 334 427 277.5 Q489 221 593 221 Q704 221 771 288 Q836 353 836 457 Q836 549 775 606 Q714 663 615 663 Z M735 1249 Q644 1249 586.5 1192.5 Q529 1136 529 1047 Q529 968 581 921 Q633 874 721 874 Q808 874 862 927.5 Q916 981 916 1068 Q916 1150 866.5 1199.5 Q817 1249 735 1249 Z " />
<glyph glyph-name="nine" unicode="9" horiz-adv-x="1233" d="M887 704 Q761 541 555 541 Q380 541 268 653 Q154 767 154 950 Q154 1181 306 1331 Q460 1484 708 1484 Q944 1484 1082 1339 Q1222 1190 1222 894 Q1222 623 1129 406 Q1010 129 776 29 Q654 -23 511 -23 Q341 -23 232 45.5 Q123 114 54 264 L312 397 Q337 324 372 288 Q429 229 527 229 Q700 229 799 417 Q853 520 887 704 Z M705 1236 Q586 1236 521 1147 Q469 1077 469 974 Q469 880 521.5 827 Q574 774 667 774 Q766 774 832 838 Q905 909 905 1022 Q905 1120 851 1178 Q797 1236 705 1236 Z " />
<glyph glyph-name="colon" unicode="&#x3a;" horiz-adv-x="616" d="M373 950 Q447 950 496.5 901 Q546 852 546 780 Q546 693 485 632 Q424 571 337 571 Q263 571 214 619.5 Q165 668 165 742 Q165 828 226 889 Q287 950 373 950 Z M257 358 Q331 358 380 310 Q429 262 429 188 Q429 101 369.5 41.5 Q310 -18 222 -18 Q148 -18 99 30 Q50 78 50 151 Q50 236 111 297 Q172 358 257 358 Z " />
<glyph glyph-name="semicolon" unicode="&#x3b;" horiz-adv-x="616" d="M-37 -346 L-6 -199 Q161 -167 204 2 Q133 12 93.5 55.5 Q54 99 54 168 Q54 249 111 303.5 Q168 358 253 358 Q335 358 384 303.5 Q433 249 433 156 Q433 66 399.5 -25.5 Q366 -117 309 -184 Q244 -261 164.5 -298 Q85 -335 -37 -346 Z M377 950 Q451 950 500.5 901 Q550 852 550 780 Q550 693 489 632 Q428 571 341 571 Q267 571 218 619.5 Q169 668 169 742 Q169 828 230 889 Q291 950 377 950 Z " />
<glyph glyph-name="less" unicode="&#x3c;" horiz-adv-x="1147" d="M874 131 L167 539 L218 791 L1080 1190 L1013 856 L503 655 L931 432 L874 131 Z " />
<glyph glyph-name="equal" unicode="&#x3d;" horiz-adv-x="1147" d="M116 328 L165 580 L999 580 L950 328 L116 328 Z M202 770 L251 1022 L1085 1022 L1034 770 L202 770 Z " />
<glyph glyph-name="greater" unicode="&#x3e;" horiz-adv-x="1147" d="M116 131 L179 463 L694 666 L263 887 L323 1190 L1027 782 L978 528 L116 131 Z " />
<glyph glyph-name="question" unicode="&#x3f;" horiz-adv-x="1133" d="M394 489 L411 571 Q435 695 491 763 Q547 831 688 908 Q843 994 843 1105 Q843 1166 803.5 1202.5 Q764 1239 698 1239 Q552 1239 470 1048 L218 1146 Q279 1289 369 1367 Q510 1487 728 1487 Q957 1487 1069 1364 Q1154 1272 1154 1129 Q1154 1000 1089 913.5 Q1024 827 859 737 Q763 684 725.5 642 Q688 600 679 532 L673 489 L394 489 Z M485 354 Q557 354 605.5 305.5 Q654 257 654 186 Q654 101 594 41.5 Q534 -18 448 -18 Q376 -18 327.5 30 Q279 78 279 149 Q279 234 339.5 294 Q400 354 485 354 Z " />
<glyph glyph-name="at" unicode="&#x40;" horiz-adv-x="1794" d="M1351 -168 Q1223 -254 1108.5 -288 Q994 -322 833 -322 Q503 -322 298 -120 Q79 97 79 452 Q79 713 202 927 Q320 1132 526 1252 Q736 1374 983 1374 Q1219 1374 1402 1268 Q1556 1179 1643 1029 Q1738 863 1738 642 Q1738 344 1583 189 Q1465 72 1297 72 Q1089 72 1048 252 Q930 61 749 61 Q616 61 539 156.5 Q462 252 462 416 Q462 648 584 802 Q706 956 886 956 Q1044 956 1097 825 L1119 940 L1369 940 L1263 423 Q1253 375 1253 341 Q1253 246 1340 246 Q1444 246 1506 356 Q1570 468 1570 648 Q1570 926 1399 1077 Q1239 1220 974 1220 Q675 1220 475 1022 Q257 806 257 453 Q257 142 441 -28 Q594 -169 855 -169 Q977 -169 1065 -142 Q1153 -115 1269 -43 L1351 -168 Z M917 751 Q825 751 772 658 Q720 565 720 431 Q720 274 834 274 Q931 274 987 374 Q1040 467 1040 591 Q1040 751 917 751 Z " />
<glyph glyph-name="A" unicode="A" horiz-adv-x="1422" d="M931 279 L378 279 L237 0 L-80 0 L711 1464 L1080 1464 L1293 0 L965 0 L931 279 Z M903 512 L825 1161 L496 512 L903 512 Z " />
<glyph glyph-name="B" unicode="B" horiz-adv-x="1384" d="M60 0 L345 1464 L851 1464 Q970 1464 1039.5 1451 Q1109 1438 1172 1403 Q1340 1312 1340 1107 Q1340 973 1275 888 Q1210 803 1064 747 Q1160 715 1211 661 Q1289 578 1289 438 Q1289 241 1158 125 Q1017 0 748 0 L60 0 Z M422 244 L730 244 Q861 244 926 312 Q980 369 980 462 Q980 548 930 594.5 Q880 641 787 641 L500 641 L422 244 Z M543 866 L795 866 Q1035 866 1035 1068 Q1035 1148 989 1184 Q943 1220 843 1220 L613 1220 L543 866 Z " />
<glyph glyph-name="C" unicode="C" horiz-adv-x="1423" d="M1334 383 Q1239 179 1098 84 Q942 -23 720 -23 Q435 -23 277 154 Q128 321 128 613 Q128 792 180 952.5 Q232 1113 328 1231 Q535 1487 877 1487 Q1100 1487 1240 1376 Q1380 1265 1422 1054 L1129 958 Q1111 1055 1081 1111 Q1015 1231 867 1231 Q674 1231 566 1037 Q460 847 460 596 Q460 237 741 237 Q960 237 1066 504 L1334 383 Z " />
<glyph glyph-name="D" unicode="D" horiz-adv-x="1487" d="M60 0 L345 1464 L855 1464 Q1058 1464 1194 1380 Q1434 1233 1434 865 Q1434 572 1310 353 Q1171 110 884 32 Q765 0 584 0 L60 0 Z M429 258 L605 258 Q751 258 835 296 Q978 360 1046 530 Q1104 675 1104 861 Q1104 1084 987 1161 Q919 1206 810 1206 L615 1206 L429 258 Z " />
<glyph glyph-name="E" unicode="E" horiz-adv-x="1253" d="M60 0 L345 1464 L1309 1464 L1262 1214 L611 1214 L543 864 L1031 864 L984 626 L496 626 L425 250 L1107 250 L1059 0 L60 0 Z " />
<glyph glyph-name="F" unicode="F" horiz-adv-x="1200" d="M60 0 L345 1464 L1293 1464 L1246 1214 L615 1214 L537 811 L1014 811 L967 567 L488 567 L379 0 L60 0 Z " />
<glyph glyph-name="G" unicode="G" horiz-adv-x="1554" d="M1121 226 Q1062 129 979 72 Q842 -23 666 -23 Q424 -23 280 141 Q130 311 130 609 Q130 894 258 1115 Q360 1293 527 1390 Q695 1487 906 1487 Q1188 1487 1339 1317 Q1381 1268 1405.5 1218 Q1430 1168 1457 1073 L1154 975 Q1132 1074 1100 1127 Q1034 1237 887 1237 Q676 1237 561 1031 Q460 850 460 604 Q460 223 751 223 Q896 223 991 312 Q1085 401 1107 543 L1111 570 L826 570 L871 797 L1465 797 L1312 0 L1142 0 L1121 226 Z " />
<glyph glyph-name="H" unicode="H" horiz-adv-x="1481" d="M60 0 L345 1464 L666 1464 L549 866 L1057 866 L1174 1464 L1496 1464 L1211 0 L889 0 L1010 606 L500 606 L382 0 L60 0 Z " />
<glyph glyph-name="I" unicode="I" horiz-adv-x="670" d="M71 0 L356 1464 L675 1464 L390 0 L71 0 Z " />
<glyph glyph-name="J" unicode="J" horiz-adv-x="1237" d="M1271 1464 L1070 432 Q1024 197 868 78 Q734 -23 528 -23 Q294 -23 176 106 Q81 210 81 378 Q81 452 93 504 L104 547 L411 547 L403 502 Q392 444 392 403 Q392 231 545 231 Q636 231 684.5 286 Q733 341 759 471 L953 1464 L1271 1464 Z " />
<glyph glyph-name="K" unicode="K" horiz-adv-x="1401" d="M60 0 L345 1464 L664 1464 L539 827 L1133 1464 L1492 1464 L881 835 L1244 0 L904 0 L635 606 L463 436 L379 0 L60 0 Z " />
<glyph glyph-name="L" unicode="L" horiz-adv-x="1186" d="M60 0 L345 1464 L664 1464 L429 256 L1045 256 L994 0 L60 0 Z " />
<glyph glyph-name="M" unicode="M" horiz-adv-x="1831" d="M60 0 L345 1464 L773 1464 L883 459 L1393 1464 L1840 1464 L1555 0 L1244 0 L1444 1048 L906 0 L670 0 L545 1048 L341 0 L60 0 Z " />
<glyph glyph-name="N" unicode="N" horiz-adv-x="1495" d="M60 0 L345 1464 L693 1464 L1025 459 L1221 1464 L1510 1464 L1225 0 L889 0 L549 1024 L349 0 L60 0 Z " />
<glyph glyph-name="O" unicode="O" horiz-adv-x="1554" d="M879 1487 Q1184 1487 1355 1291 Q1505 1120 1505 839 Q1505 566 1376 345 Q1274 168 1109 72 Q945 -23 736 -23 Q465 -23 299 144 Q127 317 127 622 Q127 833 203 1022 Q291 1238 477 1367 Q649 1487 879 1487 Z M882 1235 Q700 1235 587 1073 Q527 987 493 862 Q459 737 459 603 Q459 422 536.5 325.5 Q614 229 761 229 Q892 229 991 324 Q1081 411 1130 567 Q1173 704 1173 860 Q1173 1074 1073 1167 Q1000 1235 882 1235 Z " />
<glyph glyph-name="P" unicode="P" horiz-adv-x="1335" d="M60 0 L345 1464 L864 1464 Q1059 1464 1172 1394 Q1350 1284 1350 1041 Q1350 780 1160 645 Q1076 586 977 562 Q878 538 717 538 L484 538 L379 0 L60 0 Z M529 776 L769 776 Q913 776 982 853 Q1041 919 1041 1032 Q1041 1218 848 1218 L615 1218 L529 776 Z " />
<glyph glyph-name="Q" unicode="Q" horiz-adv-x="1554" d="M1003 23 Q877 -23 742 -23 Q464 -23 298 144 Q126 317 126 622 Q126 834 202 1022 Q289 1239 476 1368 Q648 1487 878 1487 Q1184 1487 1354 1291 Q1504 1119 1504 838 Q1504 634 1430.5 457 Q1357 280 1221 155 L1334 -4 L1121 -143 L1003 23 Z M857 230 L738 397 L947 541 L1063 378 Q1172 553 1172 855 Q1172 1032 1107 1126 Q1031 1235 880 1235 Q699 1235 586 1073 Q526 987 491.5 859.5 Q457 732 457 596 Q457 410 534 312.5 Q611 215 757 215 Q805 215 857 230 Z " />
<glyph glyph-name="R" unicode="R" horiz-adv-x="1415" d="M60 0 L345 1464 L866 1464 Q1096 1464 1205 1394 Q1367 1290 1367 1080 Q1367 915 1275 811 Q1229 760 1170 729.5 Q1111 699 1008 674 Q1103 641 1145 582 Q1172 544 1183 498 Q1194 452 1200 349 Q1218 58 1260 8 L1260 0 L943 0 Q901 92 891 361 Q886 473 838 520.5 Q790 568 681 568 L490 568 L379 0 L60 0 Z M535 801 L783 801 Q926 801 993 876 Q1049 938 1049 1043 Q1049 1216 842 1216 L615 1216 L535 801 Z " />
<glyph glyph-name="S" unicode="S" horiz-adv-x="1249" d="M970 1054 Q938 1131 901 1169 Q835 1237 708 1237 Q608 1237 554 1195 Q500 1153 500 1076 Q500 1007 549.5 968.5 Q599 930 762 872 Q949 807 1033 733 Q1156 627 1156 446 Q1156 241 1013 113 Q860 -23 583 -23 Q119 -23 1 360 L296 463 Q318 382 350 337 Q428 227 599 227 Q693 227 754 262 Q834 308 834 403 Q834 474 784.5 514.5 Q735 555 582 610 Q391 679 307 755 Q191 860 191 1036 Q191 1222 311 1342 Q456 1487 721 1487 Q1127 1487 1248 1163 L970 1054 Z " />
<glyph glyph-name="T" unicode="T" horiz-adv-x="1266" d="M371 0 L606 1214 L213 1214 L262 1464 L1365 1464 L1317 1214 L924 1214 L690 0 L371 0 Z " />
<glyph glyph-name="U" unicode="U" horiz-adv-x="1481" d="M1509 1464 L1332 548 Q1284 301 1188 176 Q1037 -23 699 -23 Q404 -23 264 132 Q155 252 155 453 Q155 532 173 627 L337 1464 L659 1464 L493 616 Q477 535 477 462 Q477 233 712 233 Q799 233 856.5 263.5 Q914 294 952 360 Q993 430 1018 558 L1193 1464 L1509 1464 Z " />
<glyph glyph-name="V" unicode="V" horiz-adv-x="1333" d="M390 0 L197 1464 L525 1464 L639 387 L1176 1464 L1497 1464 L727 0 L390 0 Z " />
<glyph glyph-name="W" unicode="W" horiz-adv-x="2025" d="M315 0 L233 1464 L557 1464 L591 430 L1058 1464 L1323 1464 L1398 420 L1841 1464 L2154 1464 L1509 0 L1181 0 L1107 997 L647 0 L315 0 Z " />
<glyph glyph-name="X" unicode="X" horiz-adv-x="1427" d="M-46 0 L568 770 L273 1464 L634 1464 L808 987 L1146 1464 L1500 1464 L945 745 L1267 0 L910 0 L710 536 L310 0 L-46 0 Z " />
<glyph glyph-name="Y" unicode="Y" horiz-adv-x="1325" d="M406 0 L525 612 L216 1464 L552 1464 L744 889 L1138 1464 L1469 1464 L841 596 L726 0 L406 0 Z " />
<glyph glyph-name="Z" unicode="Z" horiz-adv-x="1264" d="M7 0 L58 270 L906 1214 L275 1214 L324 1464 L1326 1464 L1275 1192 L437 256 L1103 256 L1051 0 L7 0 Z " />
<glyph glyph-name="bracketleft" unicode="&#x5b;" horiz-adv-x="868" d="M26 -303 L395 1589 L952 1589 L907 1353 L655 1353 L380 -67 L628 -67 L583 -303 L26 -303 Z " />
<glyph glyph-name="backslash" unicode="&#x5c;" horiz-adv-x="891" d="M478 -303 L247 1589 L505 1589 L736 -303 L478 -303 Z " />
<glyph glyph-name="bracketright" unicode="&#x5d;" horiz-adv-x="868" d="M884 1589 L515 -303 L-42 -303 L3 -67 L255 -67 L529 1353 L282 1353 L327 1589 L884 1589 Z " />
<glyph glyph-name="asciicircum" unicode="&#x5e;" horiz-adv-x="1071" d="M145 813 L585 1464 L804 1464 L997 813 L763 813 L643 1165 L393 813 L145 813 Z " />
<glyph glyph-name="underscore" unicode="&#x5f;" horiz-adv-x="901" d="M-229 -432 L-182 -188 L801 -188 L754 -432 L-229 -432 Z " />
<glyph glyph-name="grave" unicode="&#x60;" horiz-adv-x="1024" d="M607 1202 L426 1542 L758 1542 L816 1202 L607 1202 Z " />
<glyph glyph-name="a" unicode="a" horiz-adv-x="1111" d="M606 129 Q496 -23 324 -23 Q206 -23 125 41 Q24 122 24 267 Q24 555 398 618 Q514 637 694 643 L698 666 Q703 694 703 720 Q703 850 557 850 Q411 850 264 760 L157 969 Q250 1028 329 1055 Q454 1098 609 1098 Q1009 1098 1009 773 Q1009 716 993 634 L909 201 Q896 135 896 95 Q896 47 909 12 L909 0 L614 0 Q604 53 604 95 Q604 108 606 129 Z M659 465 Q531 460 465 443 Q331 411 331 296 Q331 194 442 194 Q517 194 571.5 241.5 Q626 289 640 367 L659 465 Z " />
<glyph glyph-name="b" unicode="b" horiz-adv-x="1253" d="M522 921 Q652 1098 847 1098 Q995 1098 1083 997 Q1183 883 1183 663 Q1183 416 1074 228 Q1004 107 900 42 Q796 -23 673 -23 Q454 -23 381 201 L341 0 L38 0 L337 1542 L640 1542 L522 921 Z M702 867 Q574 867 498 732 Q425 603 425 435 Q425 212 608 212 Q730 212 799 335 Q868 458 868 631 Q868 867 702 867 Z " />
<glyph glyph-name="c" unicode="c" horiz-adv-x="1102" d="M999 258 Q933 141 855 79 Q727 -23 540 -23 Q314 -23 187 118 Q77 240 77 449 Q77 597 125 726 Q173 855 261 943 Q416 1098 652 1098 Q812 1098 914 1024.5 Q1016 951 1072 794 L812 698 Q782 790 745 825 Q708 860 642 860 Q516 860 448 740 Q380 619 380 441 Q380 204 555 204 Q626 204 675.5 243 Q725 282 773 375 L999 258 Z " />
<glyph glyph-name="d" unicode="d" horiz-adv-x="1263" d="M747 168 Q676 67 600.5 22 Q525 -23 425 -23 Q274 -23 182 82 Q81 198 81 415 Q81 562 123 696 Q165 830 240 924 Q378 1098 585 1098 Q692 1098 769.5 1047 Q847 996 888 899 L1013 1542 L1316 1542 L1017 0 L714 0 L747 168 Z M662 869 Q536 869 467 746 Q398 623 398 450 Q398 213 569 213 Q692 213 766 347 Q839 479 839 648 Q839 869 662 869 Z " />
<glyph glyph-name="e" unicode="e" horiz-adv-x="1131" d="M990 176 Q897 72 789 24.5 Q681 -23 536 -23 Q306 -23 186 110 Q81 226 81 430 Q81 575 130 703 Q179 831 270 923 Q442 1098 696 1098 Q835 1098 931 1042 Q1078 958 1078 783 Q1078 528 721 460 Q603 437 382 432 L382 412 Q382 204 556 204 Q629 204 684.5 231.5 Q740 259 808 330 L990 176 Z M405 614 Q612 614 702.5 648.5 Q793 683 793 763 Q793 814 759.5 843.5 Q726 873 668 873 Q478 873 405 614 Z " />
<glyph glyph-name="f" unicode="f" horiz-adv-x="776" d="M117 840 L163 1071 L304 1071 L325 1177 Q349 1299 373 1355 Q397 1411 443 1460 Q548 1569 729 1569 Q869 1569 969 1495 L863 1284 Q809 1321 757 1321 Q659 1321 634 1200 L607 1071 L814 1071 L769 840 L562 840 L398 0 L97 0 L259 840 L117 840 Z " />
<glyph glyph-name="g" unicode="g" horiz-adv-x="1145" d="M372 420 Q326 381 326 337 Q326 266 423 266 L576 266 Q729 266 806 238 Q991 170 991 -19 Q991 -133 930 -220 Q869 -307 754 -354 Q622 -409 425 -409 Q231 -409 107 -356 Q-58 -286 -58 -146 Q-58 12 167 82 Q75 141 75 237 Q75 378 268 475 Q147 569 147 714 Q147 895 301 1006 Q427 1098 607 1098 Q762 1098 884 1022 L1197 1091 L1152 868 L1007 868 Q1027 814 1027 754 Q1027 607 928 509 Q806 387 580 387 Q465 387 372 420 Z M323 35 Q223 -12 223 -94 Q223 -210 439 -210 Q698 -210 698 -66 Q698 35 554 35 L323 35 Z M608 913 Q527 913 476.5 856.5 Q426 800 426 708 Q426 638 465 598.5 Q504 559 575 559 Q655 559 704 617 Q753 675 753 769 Q753 838 715 875.5 Q677 913 608 913 Z " />
<glyph glyph-name="h" unicode="h" horiz-adv-x="1208" d="M38 0 L337 1542 L640 1542 L518 905 Q647 1098 850 1098 Q977 1098 1047 1020.5 Q1117 943 1117 803 Q1117 743 1098 644 L976 0 L671 0 L792 631 Q804 693 804 723 Q804 848 686 848 Q600 848 541.5 785 Q483 722 460 604 L341 0 L38 0 Z " />
<glyph glyph-name="i" unicode="i" horiz-adv-x="600" d="M46 0 L255 1071 L558 1071 L349 0 L46 0 Z M481 1556 Q550 1556 593.5 1514 Q637 1472 637 1406 Q637 1328 582.5 1274.5 Q528 1221 449 1221 Q381 1221 337 1263.5 Q293 1306 293 1371 Q293 1448 347.5 1502 Q402 1556 481 1556 Z " />
<glyph glyph-name="j" unicode="j" horiz-adv-x="600" d="M563 1071 L339 -72 Q277 -391 -26 -391 Q-152 -391 -228 -336 L-142 -119 Q-99 -141 -62 -141 Q23 -141 44 -33 L259 1071 L563 1071 Z M486 1556 Q555 1556 598.5 1514 Q642 1472 642 1406 Q642 1328 587.5 1274.5 Q533 1221 454 1221 Q386 1221 342 1263.5 Q298 1306 298 1371 Q298 1448 353 1502 Q408 1556 486 1556 Z " />
<glyph glyph-name="k" unicode="k" horiz-adv-x="1165" d="M704 0 L530 430 L400 303 L341 0 L38 0 L337 1542 L640 1542 L470 664 L861 1071 L1197 1071 L761 641 L1023 0 L704 0 Z " />
<glyph glyph-name="l" unicode="l" horiz-adv-x="602" d="M45 0 L344 1542 L649 1542 L350 0 L45 0 Z " />
<glyph glyph-name="m" unicode="m" horiz-adv-x="1774" d="M520 911 Q650 1098 840 1098 Q1030 1098 1076 899 Q1226 1098 1426 1098 Q1550 1098 1619 1020 Q1687 943 1687 812 Q1687 758 1672 682 L1539 0 L1236 0 L1363 657 Q1372 704 1372 729 Q1372 848 1264 848 Q1108 848 1062 614 L941 0 L638 0 L765 657 Q774 704 774 729 Q774 848 666 848 Q591 848 537.5 786.5 Q484 725 462 614 L341 0 L38 0 L247 1071 L550 1071 L520 911 Z " />
<glyph glyph-name="n" unicode="n" horiz-adv-x="1208" d="M38 0 L247 1071 L550 1071 L518 905 Q574 988 633 1030 Q728 1098 852 1098 Q977 1098 1047 1019 Q1117 941 1117 805 Q1117 743 1105 680 L976 0 L671 0 L796 651 Q804 694 804 723 Q804 848 685 848 Q600 848 541.5 785 Q483 722 460 604 L341 0 L38 0 Z " />
<glyph glyph-name="o" unicode="o" horiz-adv-x="1196" d="M645 1098 Q863 1098 991 964 Q1119 829 1119 605 Q1119 464 1070.5 339 Q1022 214 933 128 Q777 -23 546 -23 Q333 -23 205 111 Q77 246 77 477 Q77 613 126 738 Q175 863 262 949 Q412 1098 645 1098 Z M641 873 Q506 873 436 703 Q386 581 386 434 Q386 202 557 202 Q694 202 763 379 Q810 500 810 644 Q810 756 768 813 Q723 873 641 873 Z " />
<glyph glyph-name="p" unicode="p" horiz-adv-x="1251" d="M-34 -373 L247 1071 L550 1071 L522 921 Q651 1098 847 1098 Q995 1098 1083 997 Q1183 883 1183 663 Q1183 516 1141 382 Q1099 248 1022 152 Q882 -23 672 -23 Q454 -23 380 201 L269 -373 L-34 -373 Z M702 867 Q574 867 498 732 Q425 604 425 436 Q425 213 609 213 Q731 213 799 336 Q868 458 868 631 Q868 867 702 867 Z " />
<glyph glyph-name="q" unicode="q" horiz-adv-x="1255" d="M633 -373 L738 168 Q667 67 591.5 22 Q516 -23 417 -23 Q265 -23 173 82 Q72 198 72 415 Q72 562 114 696 Q156 830 231 924 Q369 1098 576 1098 Q683 1098 760.5 1047 Q838 996 879 899 L914 1071 L1217 1071 L936 -373 L633 -373 Z M653 869 Q527 869 458 746 Q389 623 389 450 Q389 213 560 213 Q683 213 757 347 Q830 479 830 648 Q830 869 653 869 Z " />
<glyph glyph-name="r" unicode="r" horiz-adv-x="889" d="M38 0 L247 1071 L550 1071 L509 864 Q575 985 645.5 1039.5 Q716 1094 806 1094 Q887 1094 947 1050 L847 774 Q786 813 721 813 Q616 813 545 741.5 Q474 670 448 539 L341 0 L38 0 Z " />
<glyph glyph-name="s" unicode="s" horiz-adv-x="1032" d="M820 754 Q767 814 696.5 847.5 Q626 881 554 881 Q433 881 433 790 Q433 746 463.5 723 Q494 700 601 662 Q747 609 821 544 Q910 464 910 334 Q910 167 791.5 72 Q673 -23 466 -23 Q147 -23 -14 172 L152 356 Q273 198 458 198 Q607 198 607 296 Q607 344 561 372 Q533 388 419 430 Q144 529 144 750 Q144 944 302 1036 Q409 1098 571 1098 Q705 1098 804.5 1058 Q904 1018 992 930 L820 754 Z " />
<glyph glyph-name="t" unicode="t" horiz-adv-x="819" d="M116 840 L161 1071 L302 1071 L345 1288 L669 1395 L605 1071 L821 1071 L775 840 L560 840 L470 363 Q464 332 464 309 Q464 229 538 229 Q581 229 640 258 L702 47 Q591 -23 436 -23 Q287 -23 212 60 Q151 127 151 242 Q151 286 159 328 L257 840 L116 840 Z " />
<glyph glyph-name="u" unicode="u" horiz-adv-x="1198" d="M682 156 Q613 60 535.5 16.5 Q458 -27 357 -27 Q233 -27 163 50.5 Q93 128 93 266 Q93 329 108 406 L238 1071 L542 1071 L417 438 Q404 373 404 337 Q404 215 520 215 Q691 215 740 461 L861 1071 L1164 1071 L955 0 L652 0 L682 156 Z " />
<glyph glyph-name="v" unicode="v" horiz-adv-x="1077" d="M269 0 L124 1071 L439 1071 L505 330 L855 1071 L1160 1071 L603 0 L269 0 Z " />
<glyph glyph-name="w" unicode="w" horiz-adv-x="1640" d="M243 0 L149 1071 L456 1071 L487 371 L792 1071 L1054 1071 L1095 371 L1398 1071 L1699 1071 L1183 0 L884 0 L835 668 L546 0 L243 0 Z " />
<glyph glyph-name="x" unicode="x" horiz-adv-x="1155" d="M-58 0 L401 563 L171 1071 L507 1071 L628 754 L862 1071 L1189 1071 L761 555 L1013 0 L677 0 L536 356 L268 0 L-58 0 Z " />
<glyph glyph-name="y" unicode="y" horiz-adv-x="1112" d="M1191 1071 L542 -107 Q459 -258 363 -323.5 Q267 -389 130 -389 Q-7 -389 -103 -318 L12 -109 Q64 -149 130 -149 Q185 -149 222.5 -119 Q260 -89 294 -17 L315 26 L128 1071 L444 1071 L540 393 L884 1071 L1191 1071 Z " />
<glyph glyph-name="z" unicode="z" horiz-adv-x="1004" d="M-28 0 L17 220 L615 833 L160 833 L208 1071 L1039 1071 L994 847 L398 240 L885 240 L838 0 L-28 0 Z " />
<glyph glyph-name="braceleft" unicode="&#x7b;" horiz-adv-x="868" d="M610 -305 Q470 -301 397 -276 Q184 -202 184 19 Q184 69 194 119 L241 352 Q247 382 247 411 Q247 470 205.5 496.5 Q164 523 69 526 L120 776 Q243 779 294 825 Q340 866 358 956 L411 1227 Q435 1346 482 1418 Q529 1490 611 1531 Q722 1587 978 1591 L935 1358 Q815 1348 769.5 1311.5 Q724 1275 704 1171 L651 903 Q627 786 569.5 726 Q512 666 397 639 Q480 612 517 565.5 Q554 519 554 441 Q554 406 544 354 L499 117 Q491 69 491 53 Q491 -10 527 -36.5 Q563 -63 657 -72 L610 -305 Z " />
<glyph glyph-name="bar" unicode="&#x7c;" horiz-adv-x="647" d="M240 -303 L240 1589 L478 1589 L478 -303 L240 -303 Z " />
<glyph glyph-name="braceright" unicode="&#x7d;" horiz-adv-x="868" d="M301 1591 Q441 1587 513 1562 Q726 1489 726 1268 Q726 1216 716 1167 L669 934 Q663 903 663 874 Q663 816 704.5 789.5 Q746 763 841 760 L790 510 Q667 507 616 461 Q570 420 552 330 L499 59 Q476 -60 428.5 -132 Q381 -204 299 -245 Q188 -301 -68 -305 L-25 -72 Q95 -62 140.5 -25.5 Q186 11 206 115 L260 383 Q283 500 340.5 560 Q398 620 513 647 Q431 674 393.5 721 Q356 768 356 845 Q356 879 366 932 L411 1169 L414 1190 Q419 1217 419 1234 Q419 1296 383 1323 Q347 1350 253 1358 L301 1591 Z " />
<glyph glyph-name="asciitilde" unicode="&#x7e;" horiz-adv-x="1147" d="M348 497 L135 511 Q172 669 227 753 Q317 888 454 888 Q535 888 647 816 Q720 769 756 769 Q797 769 821 796.5 Q845 824 862 892 L1073 876 Q983 501 755 501 Q673 501 563 573 Q491 620 454 620 Q413 620 390 593.5 Q367 567 348 497 Z " />
<glyph glyph-name="Adieresis" unicode="&#xc4;" horiz-adv-x="1422" d="M931 279 L378 279 L237 0 L-80 0 L711 1464 L1080 1464 L1293 0 L965 0 L931 279 Z M903 512 L825 1161 L496 512 L903 512 Z M705 1890 Q766 1890 806.5 1850.5 Q847 1811 847 1750 Q847 1679 796.5 1628 Q746 1577 675 1577 Q615 1577 574.5 1617.5 Q534 1658 534 1720 Q534 1789 585 1839.5 Q636 1890 705 1890 Z M1128 1890 Q1189 1890 1229 1850.5 Q1269 1811 1269 1750 Q1269 1679 1218.5 1628 Q1168 1577 1098 1577 Q1038 1577 999 1617 Q960 1657 960 1719 Q960 1789 1010 1839.5 Q1060 1890 1128 1890 Z " />
<glyph glyph-name="Aring" unicode="&#xc5;" horiz-adv-x="1422" d="M931 279 L378 279 L237 0 L-80 0 L711 1464 L1080 1464 L1293 0 L965 0 L931 279 Z M903 512 L825 1161 L496 512 L903 512 Z M942 2005 Q1034 2005 1092.5 1947.5 Q1151 1890 1151 1800 Q1151 1699 1080.5 1630 Q1010 1561 906 1561 Q814 1561 755 1618.5 Q696 1676 696 1766 Q696 1864 765 1933 Q836 2005 942 2005 Z M933 1888 Q892 1888 864.5 1854.5 Q837 1821 837 1770 Q837 1729 858 1704.5 Q879 1680 914 1680 Q956 1680 984 1713.5 Q1012 1747 1012 1797 Q1012 1838 990.5 1863 Q969 1888 933 1888 Z " />
<glyph glyph-name="Ccedilla" unicode="&#xc7;" horiz-adv-x="1423" d="M741 -23 L665 -109 Q690 -105 702 -105 Q764 -105 804.5 -148.5 Q845 -192 845 -260 Q845 -352 784 -405.5 Q723 -459 618 -459 Q465 -459 401 -344 L526 -285 Q556 -336 614 -336 Q648 -336 669.5 -316.5 Q691 -297 691 -265 Q691 -237 674 -220 Q657 -203 629 -203 Q593 -203 564 -236 L487 -176 L617 -16 Q402 15 277 155 Q128 321 128 613 Q128 846 215 1044 Q294 1224 434 1337 Q619 1487 877 1487 Q1100 1487 1240 1376 Q1380 1265 1422 1054 L1129 958 Q1111 1056 1081 1111 Q1015 1231 867 1231 Q674 1231 566 1037 Q460 847 460 596 Q460 237 741 237 Q961 237 1066 504 L1334 383 Q1160 -13 741 -23 Z " />
<glyph glyph-name="Eacute" unicode="&#xc9;" horiz-adv-x="1253" d="M60 0 L345 1464 L1309 1464 L1262 1214 L611 1214 L543 864 L1031 864 L984 626 L496 626 L425 250 L1107 250 L1059 0 L60 0 Z M712 1579 L851 1935 L1206 1935 L931 1579 L712 1579 Z " />
<glyph glyph-name="Ntilde" unicode="&#xd1;" horiz-adv-x="1495" d="M60 0 L345 1464 L693 1464 L1025 459 L1221 1464 L1510 1464 L1225 0 L889 0 L549 1024 L349 0 L60 0 Z M1360 1872 Q1299 1581 1105 1581 Q1037 1581 949 1636 Q897 1669 869 1669 Q817 1669 791 1585 L623 1597 Q688 1888 873 1888 Q938 1888 1024 1835 Q1080 1800 1109 1800 Q1157 1800 1184 1884 L1360 1872 Z " />
<glyph glyph-name="Odieresis" unicode="&#xd6;" horiz-adv-x="1554" d="M879 1487 Q1184 1487 1355 1291 Q1505 1120 1505 839 Q1505 566 1376 345 Q1274 168 1109 72 Q945 -23 736 -23 Q465 -23 299 144 Q127 317 127 622 Q127 833 203 1022 Q291 1238 477 1367 Q649 1487 879 1487 Z M882 1235 Q700 1235 587 1073 Q527 987 493 862 Q459 737 459 603 Q459 422 536.5 325.5 Q614 229 761 229 Q892 229 991 324 Q1081 411 1130 567 Q1173 704 1173 860 Q1173 1074 1073 1167 Q1000 1235 882 1235 Z M759 1890 Q820 1890 860.5 1850.5 Q901 1811 901 1750 Q901 1679 850.5 1628 Q800 1577 729 1577 Q668 1577 628 1617.5 Q588 1658 588 1720 Q588 1789 639 1839.5 Q690 1890 759 1890 Z M1183 1890 Q1243 1890 1283 1850 Q1323 1810 1323 1750 Q1323 1679 1272.5 1628 Q1222 1577 1152 1577 Q1092 1577 1053 1617 Q1014 1657 1014 1719 Q1014 1789 1064 1839.5 Q1114 1890 1183 1890 Z " />
<glyph glyph-name="Udieresis" unicode="&#xdc;" horiz-adv-x="1481" d="M1509 1464 L1332 548 Q1284 301 1188 176 Q1037 -23 699 -23 Q404 -23 264 132 Q155 252 155 453 Q155 532 173 627 L337 1464 L659 1464 L493 616 Q477 535 477 462 Q477 233 712 233 Q799 233 856.5 263.5 Q914 294 952 360 Q993 430 1018 558 L1193 1464 L1509 1464 Z M771 1890 Q832 1890 872.5 1850.5 Q913 1811 913 1750 Q913 1679 862.5 1628 Q812 1577 741 1577 Q681 1577 640.5 1617.5 Q600 1658 600 1720 Q600 1789 651 1839.5 Q702 1890 771 1890 Z M1194 1890 Q1255 1890 1295 1850 Q1335 1810 1335 1750 Q1335 1679 1284.5 1628 Q1234 1577 1164 1577 Q1104 1577 1065 1617 Q1026 1657 1026 1719 Q1026 1789 1076 1839.5 Q1126 1890 1194 1890 Z " />
<glyph glyph-name="aacute" unicode="&#xe1;" horiz-adv-x="1111" d="M606 129 Q496 -23 324 -23 Q206 -23 125 41 Q24 122 24 267 Q24 555 398 618 Q514 637 694 643 L698 666 Q703 694 703 720 Q703 850 557 850 Q411 850 264 760 L157 969 Q250 1028 329 1055 Q454 1098 609 1098 Q1009 1098 1009 773 Q1009 716 993 634 L909 201 Q896 135 896 95 Q896 47 909 12 L909 0 L614 0 Q604 53 604 95 Q604 108 606 129 Z M659 465 Q531 460 465 443 Q331 411 331 296 Q331 194 442 194 Q517 194 571.5 241.5 Q626 289 640 367 L659 465 Z M538 1202 L674 1542 L1028 1542 L757 1202 L538 1202 Z " />
<glyph glyph-name="agrave" unicode="&#xe0;" horiz-adv-x="1111" d="M606 129 Q496 -23 324 -23 Q206 -23 125 41 Q24 122 24 267 Q24 555 398 618 Q514 637 694 643 L698 666 Q703 694 703 720 Q703 850 557 850 Q411 850 264 760 L157 969 Q250 1028 329 1055 Q454 1098 609 1098 Q1009 1098 1009 773 Q1009 716 993 634 L909 201 Q896 135 896 95 Q896 47 909 12 L909 0 L614 0 Q604 53 604 95 Q604 108 606 129 Z M659 465 Q531 460 465 443 Q331 411 331 296 Q331 194 442 194 Q517 194 571.5 241.5 Q626 289 640 367 L659 465 Z M608 1202 L427 1542 L759 1542 L817 1202 L608 1202 Z " />
<glyph glyph-name="acircumflex" unicode="&#xe2;" horiz-adv-x="1111" d="M606 129 Q496 -23 324 -23 Q206 -23 125 41 Q24 122 24 267 Q24 555 398 618 Q514 637 694 643 L698 666 Q703 694 703 720 Q703 850 557 850 Q411 850 264 760 L157 969 Q250 1028 329 1055 Q454 1098 609 1098 Q1009 1098 1009 773 Q1009 716 993 634 L909 201 Q896 135 896 95 Q896 47 909 12 L909 0 L614 0 Q604 53 604 95 Q604 108 606 129 Z M659 465 Q531 460 465 443 Q331 411 331 296 Q331 194 442 194 Q517 194 571.5 241.5 Q626 289 640 367 L659 465 Z M311 1202 L592 1542 L819 1542 L973 1202 L768 1202 L673 1347 L522 1202 L311 1202 Z " />
<glyph glyph-name="adieresis" unicode="&#xe4;" horiz-adv-x="1111" d="M606 129 Q496 -23 324 -23 Q206 -23 125 41 Q24 122 24 267 Q24 555 398 618 Q514 637 694 643 L698 666 Q703 694 703 720 Q703 850 557 850 Q411 850 264 760 L157 969 Q250 1028 329 1055 Q454 1098 609 1098 Q1009 1098 1009 773 Q1009 716 993 634 L909 201 Q896 135 896 95 Q896 47 909 12 L909 0 L614 0 Q604 53 604 95 Q604 108 606 129 Z M659 465 Q531 460 465 443 Q331 411 331 296 Q331 194 442 194 Q517 194 571.5 241.5 Q626 289 640 367 L659 465 Z M488 1546 Q549 1546 589.5 1506.5 Q630 1467 630 1406 Q630 1335 579.5 1284 Q529 1233 458 1233 Q397 1233 357 1273.5 Q317 1314 317 1376 Q317 1445 368 1495.5 Q419 1546 488 1546 Z M911 1546 Q972 1546 1012 1506.5 Q1052 1467 1052 1406 Q1052 1335 1001.5 1284 Q951 1233 881 1233 Q821 1233 782 1273 Q743 1313 743 1375 Q743 1445 793 1495.5 Q843 1546 911 1546 Z " />
<glyph glyph-name="atilde" unicode="&#xe3;" horiz-adv-x="1111" d="M606 129 Q496 -23 324 -23 Q206 -23 125 41 Q24 122 24 267 Q24 555 398 618 Q514 637 694 643 L698 666 Q703 694 703 720 Q703 850 557 850 Q411 850 264 760 L157 969 Q250 1028 329 1055 Q454 1098 609 1098 Q1009 1098 1009 773 Q1009 716 993 634 L909 201 Q896 135 896 95 Q896 47 909 12 L909 0 L614 0 Q604 53 604 95 Q604 108 606 129 Z M659 465 Q531 460 465 443 Q331 411 331 296 Q331 194 442 194 Q517 194 571.5 241.5 Q626 289 640 367 L659 465 Z M1022 1524 Q961 1233 767 1233 Q698 1233 610 1288 Q559 1321 531 1321 Q479 1321 453 1237 L285 1249 Q312 1371 354 1434 Q423 1540 535 1540 Q600 1540 686 1487 Q743 1452 772 1452 Q818 1452 846 1536 L1022 1524 Z " />
<glyph glyph-name="aring" unicode="&#xe5;" horiz-adv-x="1111" d="M606 129 Q496 -23 324 -23 Q206 -23 125 41 Q24 122 24 267 Q24 555 398 618 Q514 637 694 643 L698 666 Q703 694 703 720 Q703 850 557 850 Q411 850 264 760 L157 969 Q250 1028 329 1055 Q454 1098 609 1098 Q1009 1098 1009 773 Q1009 716 993 634 L909 201 Q896 135 896 95 Q896 47 909 12 L909 0 L614 0 Q604 53 604 95 Q604 108 606 129 Z M659 465 Q531 460 465 443 Q331 411 331 296 Q331 194 442 194 Q517 194 571.5 241.5 Q626 289 640 367 L659 465 Z M703 1611 Q795 1611 853.5 1553.5 Q912 1496 912 1406 Q912 1305 841.5 1236 Q771 1167 667 1167 Q575 1167 516 1224.5 Q457 1282 457 1371 Q457 1470 526 1539 Q597 1611 703 1611 Z M694 1494 Q653 1494 625.5 1460.5 Q598 1427 598 1376 Q598 1335 619 1310.5 Q640 1286 675 1286 Q717 1286 745 1319.5 Q773 1353 773 1403 Q773 1444 751.5 1469 Q730 1494 694 1494 Z " />
<glyph glyph-name="ccedilla" unicode="&#xe7;" horiz-adv-x="1102" d="M566 -22 L489 -109 Q514 -105 526 -105 Q588 -105 628.5 -148.5 Q669 -192 669 -260 Q669 -352 608 -405.5 Q547 -459 442 -459 Q289 -459 225 -344 L350 -285 Q380 -336 438 -336 Q472 -336 493.5 -316.5 Q515 -297 515 -265 Q515 -237 498 -220 Q481 -203 453 -203 Q417 -203 389 -236 L311 -176 L442 -15 Q279 16 187 118 Q77 240 77 449 Q77 597 125 726 Q173 855 261 943 Q416 1098 652 1098 Q812 1098 914 1024.5 Q1016 951 1072 794 L812 698 Q782 790 745 825 Q708 860 642 860 Q517 860 448 740 Q380 619 380 442 Q380 205 555 205 Q626 205 675.5 243.5 Q725 282 773 375 L999 258 Q855 -10 566 -22 Z " />
<glyph glyph-name="eacute" unicode="&#xe9;" horiz-adv-x="1131" d="M990 176 Q897 72 789 24.5 Q681 -23 536 -23 Q306 -23 186 110 Q81 226 81 430 Q81 575 130 703 Q179 831 270 923 Q442 1098 696 1098 Q835 1098 931 1042 Q1078 958 1078 783 Q1078 528 721 460 Q603 437 382 432 L382 412 Q382 204 556 204 Q629 204 684.5 231.5 Q740 259 808 330 L990 176 Z M405 614 Q612 614 702.5 648.5 Q793 683 793 763 Q793 814 759.5 843.5 Q726 873 668 873 Q478 873 405 614 Z M572 1202 L708 1542 L1062 1542 L791 1202 L572 1202 Z " />
<glyph glyph-name="egrave" unicode="&#xe8;" horiz-adv-x="1131" d="M990 176 Q897 72 789 24.5 Q681 -23 536 -23 Q306 -23 186 110 Q81 226 81 430 Q81 575 130 703 Q179 831 270 923 Q442 1098 696 1098 Q835 1098 931 1042 Q1078 958 1078 783 Q1078 528 721 460 Q603 437 382 432 L382 412 Q382 204 556 204 Q629 204 684.5 231.5 Q740 259 808 330 L990 176 Z M405 614 Q612 614 702.5 648.5 Q793 683 793 763 Q793 814 759.5 843.5 Q726 873 668 873 Q478 873 405 614 Z M636 1202 L455 1542 L787 1542 L845 1202 L636 1202 Z " />
<glyph glyph-name="ecircumflex" unicode="&#xea;" horiz-adv-x="1131" d="M990 176 Q897 72 789 24.5 Q681 -23 536 -23 Q306 -23 186 110 Q81 226 81 430 Q81 575 130 703 Q179 831 270 923 Q442 1098 696 1098 Q835 1098 931 1042 Q1078 958 1078 783 Q1078 528 721 460 Q603 437 382 432 L382 412 Q382 204 556 204 Q629 204 684.5 231.5 Q740 259 808 330 L990 176 Z M405 614 Q612 614 702.5 648.5 Q793 683 793 763 Q793 814 759.5 843.5 Q726 873 668 873 Q478 873 405 614 Z M382 1202 L663 1542 L890 1542 L1044 1202 L839 1202 L744 1347 L593 1202 L382 1202 Z " />
<glyph glyph-name="edieresis" unicode="&#xeb;" horiz-adv-x="1131" d="M990 176 Q897 72 789 24.5 Q681 -23 536 -23 Q306 -23 186 110 Q81 226 81 430 Q81 575 130 703 Q179 831 270 923 Q442 1098 696 1098 Q835 1098 931 1042 Q1078 958 1078 783 Q1078 528 721 460 Q603 437 382 432 L382 412 Q382 204 556 204 Q629 204 684.5 231.5 Q740 259 808 330 L990 176 Z M405 614 Q612 614 702.5 648.5 Q793 683 793 763 Q793 814 759.5 843.5 Q726 873 668 873 Q478 873 405 614 Z M535 1546 Q596 1546 636.5 1506.5 Q677 1467 677 1406 Q677 1335 626.5 1284 Q576 1233 505 1233 Q444 1233 404 1273.5 Q364 1314 364 1376 Q364 1445 415 1495.5 Q466 1546 535 1546 Z M958 1546 Q1019 1546 1059 1506.5 Q1099 1467 1099 1406 Q1099 1335 1048.5 1284 Q998 1233 928 1233 Q868 1233 829 1273 Q790 1313 790 1375 Q790 1445 840 1495.5 Q890 1546 958 1546 Z " />
<glyph glyph-name="iacute" unicode="&#xed;" horiz-adv-x="600" d="M46 0 L255 1071 L558 1071 L349 0 L46 0 Z M313 1202 L449 1542 L803 1542 L532 1202 L313 1202 Z " />
<glyph glyph-name="igrave" unicode="&#xec;" horiz-adv-x="600" d="M46 0 L255 1071 L558 1071 L349 0 L46 0 Z M328 1202 L147 1542 L479 1542 L537 1202 L328 1202 Z " />
<glyph glyph-name="icircumflex" unicode="&#xee;" horiz-adv-x="600" d="M46 0 L255 1071 L558 1071 L349 0 L46 0 Z M99 1202 L380 1542 L607 1542 L761 1202 L556 1202 L461 1347 L310 1202 L99 1202 Z " />
<glyph glyph-name="idieresis" unicode="&#xef;" horiz-adv-x="600" d="M46 0 L255 1071 L558 1071 L349 0 L46 0 Z M251 1546 Q312 1546 352.5 1506.5 Q393 1467 393 1406 Q393 1335 342.5 1284 Q292 1233 221 1233 Q160 1233 120 1273.5 Q80 1314 80 1376 Q80 1445 131 1495.5 Q182 1546 251 1546 Z M674 1546 Q735 1546 775 1506.5 Q815 1467 815 1406 Q815 1335 764.5 1284 Q714 1233 644 1233 Q584 1233 545 1273 Q506 1313 506 1375 Q506 1445 556 1495.5 Q606 1546 674 1546 Z " />
<glyph glyph-name="ntilde" unicode="&#xf1;" horiz-adv-x="1208" d="M38 0 L247 1071 L550 1071 L518 905 Q574 988 633 1030 Q728 1098 852 1098 Q977 1098 1047 1019 Q1117 941 1117 805 Q1117 743 1105 680 L976 0 L671 0 L796 651 Q804 694 804 723 Q804 848 685 848 Q600 848 541.5 785 Q483 722 460 604 L341 0 L38 0 Z M1114 1524 Q1053 1233 859 1233 Q790 1233 702 1288 Q651 1321 623 1321 Q571 1321 545 1237 L377 1249 Q404 1371 446 1434 Q515 1540 627 1540 Q692 1540 778 1487 Q835 1452 864 1452 Q910 1452 938 1536 L1114 1524 Z " />
<glyph glyph-name="oacute" unicode="&#xf3;" horiz-adv-x="1196" d="M645 1098 Q863 1098 991 964 Q1119 829 1119 605 Q1119 464 1070.5 339 Q1022 214 933 128 Q777 -23 546 -23 Q333 -23 205 111 Q77 246 77 477 Q77 613 126 738 Q175 863 262 949 Q412 1098 645 1098 Z M641 873 Q506 873 436 703 Q386 581 386 434 Q386 202 557 202 Q694 202 763 379 Q810 500 810 644 Q810 756 768 813 Q723 873 641 873 Z M581 1202 L717 1542 L1071 1542 L800 1202 L581 1202 Z " />
<glyph glyph-name="ograve" unicode="&#xf2;" horiz-adv-x="1196" d="M645 1098 Q863 1098 991 964 Q1119 829 1119 605 Q1119 464 1070.5 339 Q1022 214 933 128 Q777 -23 546 -23 Q333 -23 205 111 Q77 246 77 477 Q77 613 126 738 Q175 863 262 949 Q412 1098 645 1098 Z M641 873 Q506 873 436 703 Q386 581 386 434 Q386 202 557 202 Q694 202 763 379 Q810 500 810 644 Q810 756 768 813 Q723 873 641 873 Z M645 1202 L464 1542 L796 1542 L854 1202 L645 1202 Z " />
<glyph glyph-name="ocircumflex" unicode="&#xf4;" horiz-adv-x="1196" d="M645 1098 Q863 1098 991 964 Q1119 829 1119 605 Q1119 464 1070.5 339 Q1022 214 933 128 Q777 -23 546 -23 Q333 -23 205 111 Q77 246 77 477 Q77 613 126 738 Q175 863 262 949 Q412 1098 645 1098 Z M641 873 Q506 873 436 703 Q386 581 386 434 Q386 202 557 202 Q694 202 763 379 Q810 500 810 644 Q810 756 768 813 Q723 873 641 873 Z M361 1202 L642 1542 L869 1542 L1023 1202 L818 1202 L723 1347 L572 1202 L361 1202 Z " />
<glyph glyph-name="odieresis" unicode="&#xf6;" horiz-adv-x="1196" d="M645 1098 Q863 1098 991 964 Q1119 829 1119 605 Q1119 464 1070.5 339 Q1022 214 933 128 Q777 -23 546 -23 Q333 -23 205 111 Q77 246 77 477 Q77 613 126 738 Q175 863 262 949 Q412 1098 645 1098 Z M641 873 Q506 873 436 703 Q386 581 386 434 Q386 202 557 202 Q694 202 763 379 Q810 500 810 644 Q810 756 768 813 Q723 873 641 873 Z M513 1546 Q574 1546 614.5 1506.5 Q655 1467 655 1406 Q655 1335 604.5 1284 Q554 1233 483 1233 Q422 1233 382 1273.5 Q342 1314 342 1376 Q342 1445 393 1495.5 Q444 1546 513 1546 Z M936 1546 Q997 1546 1037 1506.5 Q1077 1467 1077 1406 Q1077 1335 1026.5 1284 Q976 1233 906 1233 Q846 1233 807 1273 Q768 1313 768 1375 Q768 1445 818 1495.5 Q868 1546 936 1546 Z " />
<glyph glyph-name="otilde" unicode="&#xf5;" horiz-adv-x="1196" d="M645 1098 Q863 1098 991 964 Q1119 829 1119 605 Q1119 464 1070.5 339 Q1022 214 933 128 Q777 -23 546 -23 Q333 -23 205 111 Q77 246 77 477 Q77 613 126 738 Q175 863 262 949 Q412 1098 645 1098 Z M641 873 Q506 873 436 703 Q386 581 386 434 Q386 202 557 202 Q694 202 763 379 Q810 500 810 644 Q810 756 768 813 Q723 873 641 873 Z M1102 1524 Q1041 1233 847 1233 Q778 1233 690 1288 Q639 1321 611 1321 Q559 1321 533 1237 L365 1249 Q392 1371 434 1434 Q503 1540 615 1540 Q680 1540 766 1487 Q823 1452 852 1452 Q898 1452 926 1536 L1102 1524 Z " />
<glyph glyph-name="uacute" unicode="&#xfa;" horiz-adv-x="1198" d="M682 156 Q613 60 535.5 16.5 Q458 -27 357 -27 Q233 -27 163 50.5 Q93 128 93 266 Q93 329 108 406 L238 1071 L542 1071 L417 438 Q404 373 404 337 Q404 215 520 215 Q691 215 740 461 L861 1071 L1164 1071 L955 0 L652 0 L682 156 Z M618 1202 L754 1542 L1108 1542 L837 1202 L618 1202 Z " />
<glyph glyph-name="ugrave" unicode="&#xf9;" horiz-adv-x="1198" d="M682 156 Q613 60 535.5 16.5 Q458 -27 357 -27 Q233 -27 163 50.5 Q93 128 93 266 Q93 329 108 406 L238 1071 L542 1071 L417 438 Q404 373 404 337 Q404 215 520 215 Q691 215 740 461 L861 1071 L1164 1071 L955 0 L652 0 L682 156 Z M639 1202 L458 1542 L790 1542 L848 1202 L639 1202 Z " />
<glyph glyph-name="ucircumflex" unicode="&#xfb;" horiz-adv-x="1198" d="M682 156 Q613 60 535.5 16.5 Q458 -27 357 -27 Q233 -27 163 50.5 Q93 128 93 266 Q93 329 108 406 L238 1071 L542 1071 L417 438 Q404 373 404 337 Q404 215 520 215 Q691 215 740 461 L861 1071 L1164 1071 L955 0 L652 0 L682 156 Z M391 1202 L672 1542 L899 1542 L1053 1202 L848 1202 L753 1347 L602 1202 L391 1202 Z " />
<glyph glyph-name="udieresis" unicode="&#xfc;" horiz-adv-x="1198" d="M682 156 Q613 60 535.5 16.5 Q458 -27 357 -27 Q233 -27 163 50.5 Q93 128 93 266 Q93 329 108 406 L238 1071 L542 1071 L417 438 Q404 373 404 337 Q404 215 520 215 Q691 215 740 461 L861 1071 L1164 1071 L955 0 L652 0 L682 156 Z M556 1546 Q617 1546 657.5 1506.5 Q698 1467 698 1406 Q698 1335 647.5 1284 Q597 1233 526 1233 Q465 1233 425 1273.5 Q385 1314 385 1376 Q385 1445 436 1495.5 Q487 1546 556 1546 Z M979 1546 Q1040 1546 1080 1506.5 Q1120 1467 1120 1406 Q1120 1335 1069.5 1284 Q1019 1233 949 1233 Q889 1233 850 1273 Q811 1313 811 1375 Q811 1445 861 1495.5 Q911 1546 979 1546 Z " />
<glyph glyph-name="dagger" unicode="&#x2020;" horiz-adv-x="700" d="M173 1058 L210 1255 L384 1255 L425 1464 L636 1464 L595 1255 L771 1255 L730 1058 L558 1058 L476 629 L265 629 L347 1058 L173 1058 Z " />
<glyph glyph-name="degree" unicode="&#xb0;" horiz-adv-x="920" d="M612 1484 Q761 1484 854 1391 Q943 1302 943 1160 Q943 980 826 863 Q713 751 542 751 Q392 751 298 845 Q210 934 210 1074 Q210 1249 329 1369 Q443 1484 612 1484 Z M599 1312 Q521 1312 472 1250 Q423 1188 423 1089 Q423 1011 459 967 Q495 923 559 923 Q634 923 681 986.5 Q728 1050 728 1151 Q728 1227 694 1269.5 Q660 1312 599 1312 Z " />
<glyph glyph-name="cent" unicode="&#xa2;" horiz-adv-x="1233" d="M429 -276 L480 -10 Q366 18 297 71 Q128 201 128 452 Q128 590 174.5 713 Q221 836 306 924 Q384 1004 471.5 1042 Q559 1080 693 1093 L732 1288 L876 1288 L835 1081 Q1070 1033 1152 795 L898 698 Q865 814 790 850 L665 197 Q779 225 849 377 L1070 258 Q928 -7 622 -20 L572 -276 L429 -276 Z M648 860 Q590 842 553 812 Q516 782 485 729 Q417 611 417 439 Q417 269 523 211 L648 860 Z " />
<glyph glyph-name="sterling" unicode="&#xa3;" horiz-adv-x="1233" d="M120 621 L153 803 L296 803 Q273 905 273 996 Q273 1229 422 1361 Q563 1487 800 1487 Q1016 1487 1142 1371 Q1195 1322 1224.5 1267 Q1254 1212 1277 1118 L988 1020 Q972 1110 944 1153 Q894 1229 794 1229 Q698 1229 646 1166 Q592 1103 592 991 Q592 909 613 803 L968 803 L935 621 L642 621 Q650 526 650 486 Q650 385 617 287 Q696 244 764 244 Q829 244 865.5 278.5 Q902 313 927 398 L1191 355 Q1138 185 1069 103 Q965 -20 790 -20 Q639 -20 499 94 Q378 -20 220 -20 Q118 -20 49 27 Q-42 89 -42 208 Q-42 343 68 406 Q141 447 238 447 Q307 447 376 420 Q370 493 341 621 L120 621 Z M347 230 Q285 277 233 277 Q194 277 171 259 Q148 241 148 211 Q148 146 225 146 Q302 146 347 230 Z " />
<glyph glyph-name="section" unicode="&#xa7;" horiz-adv-x="1174" d="M837 323 Q929 223 929 96 Q929 -59 825 -162 Q702 -285 479 -285 Q151 -285 -3 -23 L212 114 Q311 -54 484 -54 Q632 -54 632 61 Q632 111 589 147 Q546 183 423 237 Q279 300 202 367 Q91 465 91 598 Q91 814 368 884 Q284 981 284 1107 Q284 1294 431 1400 Q552 1487 730 1487 Q884 1487 990.5 1426.5 Q1097 1366 1171 1237 L958 1102 Q878 1258 719 1258 Q652 1258 613.5 1226.5 Q575 1195 575 1141 Q575 1090 613 1054 Q651 1018 749 977 Q913 908 992 844 Q1113 746 1113 609 Q1113 399 837 323 Z M675 436 Q814 456 814 560 Q814 607 777.5 642.5 Q741 678 659 712 L519 770 Q384 752 384 647 Q384 557 539 492 L675 436 Z " />
<glyph glyph-name="bullet" unicode="&#x2022;" horiz-adv-x="819" d="M440 981 Q567 981 653 895 Q739 807 739 678 Q739 549 653.5 463 Q568 377 438 377 Q307 377 220 464 Q135 551 135 677 Q135 807 222 894 Q309 981 440 981 Z " />
<glyph glyph-name="paragraph" unicode="&#xb6;" horiz-adv-x="1249" d="M414 0 L546 674 L539 674 Q367 674 269 776 Q181 868 181 1016 Q181 1218 312 1342 Q441 1464 660 1464 L1275 1464 L990 0 L781 0 L1031 1280 L871 1280 L621 0 L414 0 Z " />
<glyph glyph-name="germandbls" unicode="&#xdf;" horiz-adv-x="1221" d="M884 891 Q953 870 993 843 Q1033 816 1066 769 Q1132 675 1132 519 Q1132 250 983 102 Q862 -18 677 -18 Q550 -18 460 33 L505 252 L511 252 Q552 221 620 221 Q726 221 780 315 Q829 401 829 540 Q829 664 782.5 718.5 Q736 773 620 786 L661 995 Q724 996 760 1008.5 Q796 1021 825 1052 Q875 1106 875 1202 Q875 1358 743 1358 Q668 1358 627 1305.5 Q586 1253 561 1125 L345 0 L38 0 L251 1093 Q284 1262 323 1335 Q450 1569 759 1569 Q961 1569 1069 1460 Q1160 1368 1160 1223 Q1160 1096 1091 1010 Q1054 964 1007.5 937.5 Q961 911 884 891 Z " />
<glyph glyph-name="registered" unicode="&#xae;" horiz-adv-x="1157" d="M427 746 L519 1225 L742 1225 Q821 1225 863.5 1190.5 Q906 1156 906 1093 Q906 984 783 957 Q822 947 833.5 923.5 Q845 900 850 822 Q855 763 863 750 L863 746 L730 746 Q717 778 716 846 Q715 912 660 912 L603 912 L570 746 L427 746 Z M621 1010 L691 1010 Q767 1010 767 1073 Q767 1123 712 1123 L642 1123 L621 1010 Z M714 1480 Q909 1480 1038 1350 Q1166 1221 1166 1027 Q1166 794 1002 630 Q845 473 622 473 Q432 473 304 600 Q175 729 175 927 Q175 1154 339 1320 Q414 1396 512 1438 Q610 1480 714 1480 Z M707 1386 Q529 1386 409 1266 Q281 1137 281 937 Q281 769 379 668 Q477 567 639 567 Q806 567 923 684 Q1057 816 1057 1025 Q1057 1204 948 1302 Q855 1386 707 1386 Z " />
<glyph glyph-name="copyright" unicode="&#xa9;" horiz-adv-x="1624" d="M1215 532 Q1152 417 1074 363 Q975 293 836 293 Q662 293 557 407 Q456 516 456 686 Q456 891 578 1030 Q706 1176 909 1176 Q1164 1176 1248 942 L1047 844 Q1026 908 992.5 935.5 Q959 963 903 963 Q805 963 753 880 Q705 804 705 699 Q705 508 857 508 Q915 508 953 537.5 Q991 567 1023 637 L1215 532 Z M923 1480 Q1209 1480 1397 1291 Q1588 1100 1588 806 Q1588 583 1477 388 Q1367 195 1180 86 Q1000 -18 791 -18 Q658 -18 537 31 Q416 80 325 170 Q132 363 132 658 Q132 883 245 1077 Q358 1273 543 1377 Q724 1480 923 1480 Z M918 1374 Q651 1374 461 1183 Q358 1079 304 938 Q255 808 255 666 Q255 408 415 246 Q568 91 809 91 Q933 91 1050.5 141 Q1168 191 1258 282 Q1361 386 1415 528 Q1465 659 1465 802 Q1465 1059 1305 1221 Q1154 1374 918 1374 Z " />
<glyph glyph-name="trademark" unicode="&#x2122;" horiz-adv-x="1573" d="M763 807 L892 1464 L1113 1464 L1167 1012 L1386 1464 L1625 1464 L1498 807 L1333 807 L1414 1233 L1197 807 L1054 807 L1003 1233 L921 807 L763 807 Z M296 807 L397 1310 L200 1310 L229 1464 L792 1464 L763 1310 L579 1310 L479 807 L296 807 Z " />
<glyph glyph-name="acute" unicode="&#xb4;" horiz-adv-x="1024" d="M495 1202 L631 1542 L985 1542 L714 1202 L495 1202 Z " />
<glyph glyph-name="dieresis" unicode="&#xa8;" horiz-adv-x="1024" d="M481 1546 Q542 1546 582.5 1506.5 Q623 1467 623 1406 Q623 1335 572.5 1284 Q522 1233 451 1233 Q390 1233 350 1273.5 Q310 1314 310 1376 Q310 1445 361 1495.5 Q412 1546 481 1546 Z M904 1546 Q965 1546 1005 1506.5 Q1045 1467 1045 1406 Q1045 1335 994.5 1284 Q944 1233 874 1233 Q814 1233 775 1273 Q736 1313 736 1375 Q736 1445 786 1495.5 Q836 1546 904 1546 Z " />
<glyph glyph-name="notequal" unicode="&#x2260;" horiz-adv-x="1147" d="M242 328 L116 328 L165 580 L411 580 L538 770 L202 770 L251 1022 L707 1022 L847 1231 L1037 1142 L957 1022 L1085 1022 L1034 770 L788 770 L661 580 L999 580 L950 328 L492 328 L354 121 L163 210 L242 328 Z " />
<glyph glyph-name="AE" unicode="&#xc6;" horiz-adv-x="2042" d="M-56 0 L986 1464 L2096 1464 L2049 1214 L1414 1214 L1347 864 L1818 864 L1771 626 L1300 626 L1228 250 L1894 250 L1847 0 L864 0 L921 299 L474 299 L270 0 L-56 0 Z M1095 1200 L636 535 L966 535 L1095 1200 Z " />
<glyph glyph-name="Oslash" unicode="&#xd8;" horiz-adv-x="1555" d="M1411 1215 Q1505 1058 1505 836 Q1505 566 1376 345 Q1273 168 1109 72 Q945 -23 743 -23 Q494 -23 328 118 L212 0 L-26 0 L218 248 Q127 405 127 623 Q127 797 178.5 955 Q230 1113 325 1228 Q538 1487 877 1487 Q1132 1487 1300 1346 L1416 1464 L1657 1464 L1411 1215 Z M1166 966 L535 328 Q616 229 756 229 Q959 229 1070 429 Q1173 613 1173 857 Q1173 910 1166 966 Z M466 499 L1097 1140 Q1016 1235 882 1235 Q700 1235 587 1073 Q528 989 493.5 863.5 Q459 738 459 609 Q459 556 466 499 Z " />
<glyph glyph-name="infinity" unicode="&#x221e;" horiz-adv-x="1697" d="M879 543 Q818 468 763 427 Q644 338 488 338 Q303 338 209 445 Q125 541 125 695 Q125 872 232 968 Q325 1052 489 1052 Q608 1052 699 1004 Q790 956 879 847 Q932 913 979 951 Q1104 1052 1269 1052 Q1455 1052 1549 945 Q1633 849 1633 695 Q1633 518 1526 422 Q1433 338 1269 338 Q1150 338 1059 386 Q968 434 879 543 Z M768 695 L749 715 Q677 788 618 822 Q559 856 501 856 Q422 856 379 807 Q340 764 340 696 Q340 617 389 573 Q432 535 500 535 Q562 535 613.5 564 Q665 593 746 673 L768 695 Z M990 695 L1012 673 Q1093 593 1144 564 Q1195 535 1257 535 Q1335 535 1379 584 Q1418 627 1418 696 Q1418 774 1369 818 Q1326 856 1256 856 Q1185 856 1114 806 Q1062 769 1009 715 L990 695 Z " />
<glyph glyph-name="plusminus" unicode="&#xb1;" horiz-adv-x="1147" d="M148 729 L197 981 L527 981 L595 1319 L859 1319 L793 981 L1121 981 L1070 729 L744 729 L677 385 L410 385 L478 729 L148 729 Z M9 0 L56 252 L978 252 L931 0 L9 0 Z " />
<glyph glyph-name="lessequal" unicode="&#x2264;" horiz-adv-x="1147" d="M913 342 L206 739 L249 964 L1112 1363 L1048 1037 L552 839 L969 626 L913 342 Z M62 0 L113 261 L898 261 L847 0 L62 0 Z " />
<glyph glyph-name="greaterequal" unicode="&#x2265;" horiz-adv-x="1147" d="M356 1363 L1063 965 L1020 741 L157 342 L221 667 L717 866 L301 1078 L356 1363 Z M876 0 L91 0 L142 261 L927 261 L876 0 Z " />
<glyph glyph-name="yen" unicode="&#xa5;" horiz-adv-x="1233" d="M142 651 L171 801 L421 801 L187 1464 L538 1464 L695 897 L1078 1464 L1406 1464 L923 801 L1175 801 L1146 651 L814 651 L802 635 L773 497 L1117 497 L1089 350 L745 350 L677 0 L355 0 L423 350 L81 350 L112 497 L452 497 L480 635 L474 651 L142 651 Z " />
<glyph glyph-name="mu" unicode="&#xb5;" horiz-adv-x="1233" d="M707 180 Q637 71 572.5 24 Q508 -23 428 -23 Q389 -23 351 -2 L279 -373 L-24 -373 L257 1071 L560 1071 L435 416 Q427 375 427 337 Q427 215 542 215 Q634 215 691 290 Q743 358 762 461 L879 1071 L1184 1071 L975 0 L670 0 L707 180 Z " />
<glyph glyph-name="partialdiff" unicode="&#x2202;" horiz-adv-x="1233" d="M834 956 Q789 1085 712.5 1181 Q636 1277 457 1427 L602 1608 Q781 1502 897 1382 Q1153 1118 1153 737 Q1153 446 1037 244 Q885 -23 564 -23 Q330 -23 200 121 Q86 246 86 453 Q86 698 225 871 Q279 937 345 981 Q462 1057 598 1057 Q742 1057 834 956 Z M655 842 Q530 842 459 717 Q393 599 393 437 Q393 208 575 208 Q696 208 762 328 Q829 449 829 615 Q829 842 655 842 Z " />
<glyph glyph-name="summation" unicode="&#x2211;" horiz-adv-x="1233" d="M1489 1470 L1437 1206 L1296 1206 L993 -357 L665 -357 L969 1206 L524 1206 L221 -357 L-107 -357 L197 1206 L56 1206 L107 1470 L1489 1470 Z " />
<glyph glyph-name="product" unicode="&#x220f;" horiz-adv-x="1233" d="M-95 -373 L-40 -92 L470 584 L239 1185 L293 1464 L1293 1464 L1242 1198 L591 1198 L818 575 L309 -107 L1057 -107 L1006 -373 L-95 -373 Z " />
<glyph glyph-name="pi" unicode="&#x3c0;" horiz-adv-x="1242" d="M79 0 L242 846 L128 846 L174 1071 L1277 1071 L1231 846 L1119 846 L956 0 L653 0 L816 846 L537 846 L374 0 L79 0 Z " />
<glyph glyph-name="integral" unicode="&#x222b;" horiz-adv-x="1038" d="M128 -310 L179 -95 Q234 -121 278 -121 Q335 -121 360 -77 Q380 -42 380 90 L380 1223 Q380 1379 388.5 1442 Q397 1505 425 1555 Q505 1697 725 1697 Q839 1697 948 1662 L904 1442 Q843 1466 802 1466 Q751 1466 727 1423 Q708 1388 708 1283 L708 106 Q708 -121 677 -191 Q605 -352 364 -352 Q244 -352 128 -310 Z " />
<glyph glyph-name="ordfeminine" unicode="&#xaa;" horiz-adv-x="969" d="M628 664 Q540 533 389 533 Q275 533 205.5 600 Q136 667 136 777 Q136 938 268 1017 Q337 1058 419.5 1073.5 Q502 1089 701 1098 Q710 1130 710 1155 Q710 1268 589 1268 Q458 1268 335 1192 L242 1376 Q420 1487 636 1487 Q832 1487 919 1393 Q982 1325 982 1217 Q982 1177 972 1122 L896 725 Q886 673 886 636 Q886 598 898 561 L898 551 L640 551 Q627 589 628 664 Z M675 948 Q527 947 462.5 914 Q398 881 398 807 Q398 723 491 723 Q554 723 600 761.5 Q646 800 658 864 L675 948 Z " />
<glyph glyph-name="ordmasculine" unicode="&#xba;" horiz-adv-x="1036" d="M659 1487 Q840 1487 952 1375 Q1064 1262 1064 1075 Q1064 957 1022.5 850.5 Q981 744 907 669 Q770 532 565 532 Q387 532 274 645 Q161 759 161 946 Q161 1189 320 1349 Q457 1487 659 1487 Z M646 1280 Q546 1280 491 1183 Q433 1079 433 925 Q433 731 579 731 Q676 731 729 828 Q788 934 788 1087 Q788 1280 646 1280 Z " />
<glyph glyph-name="Omega" unicode="&#x2126;" horiz-adv-x="1710" d="M-32 0 L12 227 L284 227 Q206 304 172 393 Q138 482 138 605 Q138 825 239 1022 Q359 1255 560 1371 Q756 1485 1007 1485 Q1235 1485 1393 1390 Q1651 1235 1651 881 Q1651 681 1567 511.5 Q1483 342 1326 227 L1578 227 L1533 0 L880 0 L925 230 Q1093 282 1186 433 Q1240 522 1273 645.5 Q1306 769 1306 884 Q1306 1034 1240 1118 Q1159 1219 988 1219 Q713 1219 573 961 Q530 881 501.5 762 Q473 643 473 544 Q473 298 666 230 L621 0 L-32 0 Z " />
<glyph glyph-name="ae" unicode="&#xe6;" horiz-adv-x="1726" d="M726 193 Q649 79 559 29 Q465 -23 346 -23 Q209 -23 125.5 55.5 Q42 134 42 263 Q42 499 274 577 Q432 631 654 631 L706 631 L714 672 Q720 703 720 733 Q720 848 574 848 Q422 848 275 760 L169 969 Q276 1037 383.5 1067.5 Q491 1098 629 1098 Q751 1098 825.5 1064.5 Q900 1031 949 954 Q1100 1098 1299 1098 Q1433 1098 1531 1042 Q1674 960 1674 784 Q1674 595 1496 515 Q1349 448 982 440 L982 412 Q982 303 1023.5 253.5 Q1065 204 1155 204 Q1229 204 1283.5 231 Q1338 258 1408 330 L1588 176 Q1515 95 1440 52 Q1310 -23 1135 -23 Q984 -23 885 29 Q786 81 726 193 Z M1007 623 Q1222 623 1307.5 654 Q1393 685 1393 765 Q1393 815 1359 844 Q1325 873 1265 873 Q1077 873 1007 623 Z M673 453 L630 453 Q486 453 416.5 414.5 Q347 376 347 297 Q347 195 457 195 Q533 195 587.5 242 Q642 289 656 367 L673 453 Z " />
<glyph glyph-name="oslash" unicode="&#xf8;" horiz-adv-x="1196" d="M243 81 L161 0 L-48 0 L150 194 Q83 308 83 472 Q83 612 131.5 737.5 Q180 863 268 949 Q420 1098 651 1098 Q839 1098 966 993 L1046 1071 L1255 1071 L1059 880 Q1125 757 1125 606 Q1125 464 1076.5 339 Q1028 214 939 128 Q783 -23 552 -23 Q364 -23 243 81 Z M429 262 Q473 202 563 202 Q706 202 777 379 Q824 497 824 632 Q824 636 824 649 L429 262 Z M780 811 Q730 873 647 873 Q506 873 434 703 Q384 584 384 441 Q384 435 384 423 L780 811 Z " />
<glyph glyph-name="questiondown" unicode="&#xbf;" horiz-adv-x="1133" d="M971 -59 Q933 -150 891 -205.5 Q849 -261 787 -304 Q655 -395 463 -395 Q233 -395 119 -272 Q35 -181 35 -38 Q35 89 99.5 173.5 Q164 258 330 350 Q428 404 461.5 442.5 Q495 481 510 557 L518 598 L795 598 L780 518 Q759 398 703.5 331 Q648 264 501 181 Q417 133 381.5 88.5 Q346 44 346 -15 Q346 -78 386 -114.5 Q426 -151 495 -151 Q639 -151 719 39 L971 -59 Z M740 1110 Q814 1110 862.5 1062 Q911 1014 911 940 Q911 854 851 793.5 Q791 733 705 733 Q634 733 585.5 782.5 Q537 832 537 904 Q537 990 596 1050 Q655 1110 740 1110 Z " />
<glyph glyph-name="exclamdown" unicode="&#xa1;" horiz-adv-x="758" d="M74 -373 L160 74 L340 602 L537 602 L496 53 L412 -373 L74 -373 Z M513 1110 Q587 1110 635.5 1062.5 Q684 1015 684 942 Q684 856 624 796.5 Q564 737 478 737 Q407 737 358.5 785.5 Q310 834 310 905 Q310 991 369 1050.5 Q428 1110 513 1110 Z " />
<glyph glyph-name="logicalnot" unicode="&#xac;" horiz-adv-x="1147" d="M616 319 L671 598 L202 598 L253 860 L976 860 L872 319 L616 319 Z " />
<glyph glyph-name="radical" unicode="&#x221a;" horiz-adv-x="1233" d="M309 0 L202 617 L23 617 L62 815 L475 815 L551 300 L1321 1887 L1958 1887 L1911 1648 L1516 1648 L703 0 L309 0 Z " />
<glyph glyph-name="florin" unicode="&#x192;" horiz-adv-x="893" d="M108 621 L149 844 L314 844 L378 1141 Q419 1331 529 1414 Q621 1484 768 1484 Q901 1484 1007 1431 L927 1223 Q874 1253 820 1253 Q763 1253 731.5 1222.5 Q700 1192 685 1122 L626 844 L859 844 L814 621 L581 621 L441 -43 Q403 -227 303 -303 Q221 -366 80 -366 Q-42 -366 -132 -319 L-62 -112 Q-19 -135 21 -135 Q113 -135 138 -12 L269 621 L108 621 Z " />
<glyph glyph-name="approxequal" unicode="&#x2248;" horiz-adv-x="1147" d="M1142 1086 Q1107 983 1076.5 926.5 Q1046 870 996 817 Q903 717 778 717 Q694 717 590 790 Q522 838 483 838 Q443 838 416.5 810 Q390 782 367 713 L149 728 Q183 831 213 887 Q243 943 293 997 Q387 1098 512 1098 Q597 1098 701 1025 Q768 977 807 977 Q847 977 872.5 1004.5 Q898 1032 924 1103 L1142 1086 Z M312 284 L99 298 Q136 456 191 540 Q281 675 418 675 Q500 675 611 603 Q684 556 720 556 Q761 556 785 583.5 Q809 611 826 679 L1037 663 Q947 288 719 288 Q637 288 527 360 Q455 407 418 407 Q377 407 354 380.5 Q331 354 312 284 Z " />
<glyph glyph-name="increment" unicode="&#x2206;" horiz-adv-x="1233" d="M1226 0 L-202 0 L605 1464 L997 1464 L1226 0 Z M241 245 L859 245 L733 1176 L241 245 Z " />
<glyph glyph-name="guillemotleft" unicode="&#xab;" horiz-adv-x="1073" d="M232 76 L89 508 L386 909 L644 909 L337 487 L474 76 L232 76 Z M642 76 L497 496 L806 909 L1064 909 L742 477 L884 76 L642 76 Z " />
<glyph glyph-name="guillemotright" unicode="&#xbb;" horiz-adv-x="1073" d="M-1 76 L321 508 L181 909 L423 909 L568 487 L257 76 L-1 76 Z M419 76 L728 496 L591 909 L828 909 L974 477 L679 76 L419 76 Z " />
<glyph glyph-name="ellipsis" unicode="&#x2026;" horiz-adv-x="1849" d="M256 358 Q330 358 379 309.5 Q428 261 428 188 Q428 101 368 41.5 Q308 -18 220 -18 Q146 -18 97.5 30 Q49 78 49 151 Q49 237 109.5 297.5 Q170 358 256 358 Z M872 358 Q946 358 995 309.5 Q1044 261 1044 188 Q1044 102 984 42 Q924 -18 836 -18 Q762 -18 713.5 30 Q665 78 665 151 Q665 237 725.5 297.5 Q786 358 872 358 Z M1489 358 Q1563 358 1612 309.5 Q1661 261 1661 188 Q1661 101 1601 41.5 Q1541 -18 1453 -18 Q1379 -18 1330.5 30 Q1282 78 1282 151 Q1282 237 1342.5 297.5 Q1403 358 1489 358 Z " />
<glyph glyph-name="Agrave" unicode="&#xc0;" horiz-adv-x="1422" d="M931 279 L378 279 L237 0 L-80 0 L711 1464 L1080 1464 L1293 0 L965 0 L931 279 Z M903 512 L825 1161 L496 512 L903 512 Z M803 1579 L625 1935 L957 1935 L1012 1579 L803 1579 Z " />
<glyph glyph-name="Atilde" unicode="&#xc3;" horiz-adv-x="1422" d="M931 279 L378 279 L237 0 L-80 0 L711 1464 L1080 1464 L1293 0 L965 0 L931 279 Z M903 512 L825 1161 L496 512 L903 512 Z M1264 1872 Q1203 1581 1009 1581 Q941 1581 853 1636 Q801 1669 773 1669 Q721 1669 695 1585 L527 1597 Q592 1888 777 1888 Q842 1888 928 1835 Q984 1800 1013 1800 Q1061 1800 1088 1884 L1264 1872 Z " />
<glyph glyph-name="Otilde" unicode="&#xd5;" horiz-adv-x="1554" d="M879 1487 Q1184 1487 1355 1291 Q1505 1120 1505 839 Q1505 566 1376 345 Q1274 168 1109 72 Q945 -23 736 -23 Q465 -23 299 144 Q127 317 127 622 Q127 833 203 1022 Q291 1238 477 1367 Q649 1487 879 1487 Z M882 1235 Q700 1235 587 1073 Q527 987 493 862 Q459 737 459 603 Q459 422 536.5 325.5 Q614 229 761 229 Q892 229 991 324 Q1081 411 1130 567 Q1173 704 1173 860 Q1173 1074 1073 1167 Q1000 1235 882 1235 Z M1324 1872 Q1263 1581 1069 1581 Q1001 1581 913 1636 Q861 1669 833 1669 Q781 1669 755 1585 L587 1597 Q652 1888 837 1888 Q902 1888 988 1835 Q1044 1800 1073 1800 Q1121 1800 1148 1884 L1324 1872 Z " />
<glyph glyph-name="OE" unicode="&#x152;" horiz-adv-x="2179" d="M1033 86 Q888 -23 710 -23 Q465 -23 309 133 Q132 309 132 618 Q132 834 215 1024 Q297 1211 445 1331 Q637 1487 900 1487 Q1034 1487 1122.5 1446 Q1211 1405 1273 1314 L1301 1464 L2246 1464 L2198 1214 L1547 1214 L1480 864 L1967 864 L1920 626 L1432 626 L1361 250 L2043 250 L1996 0 L1017 0 L1033 86 Z M1129 632 L1158 782 Q1172 855 1172 911 Q1172 1080 1078 1165 Q1002 1233 886 1233 Q677 1233 564 1032 Q462 849 462 603 Q462 391 563 297 Q636 229 753 229 Q918 229 1017 361 Q1098 468 1129 632 Z " />
<glyph glyph-name="oe" unicode="&#x153;" horiz-adv-x="1849" d="M917 133 Q769 -23 550 -23 Q336 -23 206 108 Q77 238 77 455 Q77 594 126 720.5 Q175 847 264 936 Q425 1098 657 1098 Q887 1098 1009 911 Q1178 1098 1422 1098 Q1590 1098 1693 1015 Q1799 931 1799 783 Q1799 522 1425 455 Q1315 436 1105 430 L1105 412 Q1105 304 1147 254 Q1189 204 1278 204 Q1353 204 1407 231 Q1461 258 1531 330 L1713 176 Q1640 95 1564 52 Q1433 -23 1259 -23 Q1136 -23 1054.5 14 Q973 51 917 133 Z M645 865 Q521 865 452 742 Q380 612 380 432 Q380 202 561 202 Q676 202 741 320 Q816 456 816 643 Q816 865 645 865 Z M1128 612 Q1332 612 1424 647.5 Q1516 683 1516 761 Q1516 814 1482.5 843.5 Q1449 873 1389 873 Q1198 873 1128 612 Z " />
<glyph glyph-name="endash" unicode="&#x2013;" horiz-adv-x="1233" d="M150 540 L197 786 L1156 786 L1106 540 L150 540 Z " />
<glyph glyph-name="emdash" unicode="&#x2014;" horiz-adv-x="1233" d="M-119 538 L-72 784 L1425 784 L1376 538 L-119 538 Z " />
<glyph glyph-name="quotedblleft" unicode="&#x201c;" horiz-adv-x="1008" d="M880 1288 Q942 1279 976.5 1240 Q1011 1201 1011 1142 Q1011 1071 960.5 1023 Q910 975 835 975 Q760 975 716.5 1024 Q673 1073 673 1158 Q673 1318 779 1426 Q835 1484 904 1511.5 Q973 1539 1081 1546 L1056 1419 Q911 1394 880 1288 Z M434 1288 Q496 1279 530.5 1240 Q565 1201 565 1142 Q565 1071 514 1023 Q463 975 388 975 Q313 975 270 1024 Q227 1073 227 1158 Q227 1318 333 1426 Q389 1484 458 1511.5 Q527 1539 634 1546 L610 1419 Q465 1394 434 1288 Z " />
<glyph glyph-name="quotedblright" unicode="&#x201d;" horiz-adv-x="1008" d="M203 975 L228 1102 Q372 1127 404 1233 Q343 1242 308 1281 Q273 1320 273 1379 Q273 1450 323.5 1498 Q374 1546 449 1546 Q523 1546 567 1497 Q611 1448 611 1365 Q611 1208 510 1102 Q453 1042 383 1013 Q313 984 203 975 Z M652 975 L676 1102 Q820 1127 852 1233 Q790 1242 754.5 1281 Q719 1320 719 1379 Q719 1450 770 1498 Q821 1546 897 1546 Q970 1546 1013.5 1496.5 Q1057 1447 1057 1364 Q1057 1208 955 1101 Q899 1042 829.5 1013 Q760 984 652 975 Z " />
<glyph glyph-name="quoteleft" unicode="&#x2018;" horiz-adv-x="553" d="M434 1288 Q496 1279 530.5 1240 Q565 1201 565 1142 Q565 1071 514 1023 Q463 975 388 975 Q313 975 270 1024 Q227 1073 227 1158 Q227 1318 333 1426 Q389 1484 458 1511.5 Q527 1539 634 1546 L610 1419 Q465 1394 434 1288 Z " />
<glyph glyph-name="quoteright" unicode="&#x2019;" horiz-adv-x="553" d="M203 975 L228 1102 Q372 1127 404 1233 Q343 1242 308 1281 Q273 1320 273 1379 Q273 1450 323.5 1498 Q374 1546 449 1546 Q523 1546 567 1497 Q611 1448 611 1365 Q611 1208 510 1102 Q453 1042 383 1013 Q313 984 203 975 Z " />
<glyph glyph-name="divide" unicode="&#xf7;" horiz-adv-x="1147" d="M118 571 L169 823 L1091 823 L1040 571 L118 571 Z M705 1300 Q772 1300 816.5 1255 Q861 1210 861 1143 Q861 1062 805.5 1006 Q750 950 671 950 Q603 950 557 996 Q511 1042 511 1109 Q511 1187 568 1243.5 Q625 1300 705 1300 Z M539 446 Q607 446 652.5 401 Q698 356 698 289 Q698 209 641 152.5 Q584 96 505 96 Q437 96 392 141 Q347 186 347 253 Q347 332 403.5 389 Q460 446 539 446 Z " />
<glyph glyph-name="lozenge" unicode="&#x25ca;" horiz-adv-x="1233" d="M654 -63 L1 732 L654 1527 L1307 732 L654 -63 Z M654 349 L962 732 L654 1115 L346 732 L654 349 Z " />
<glyph glyph-name="ydieresis" unicode="&#xff;" horiz-adv-x="1112" d="M1191 1071 L542 -107 Q459 -258 363 -323.5 Q267 -389 130 -389 Q-7 -389 -103 -318 L12 -109 Q64 -149 130 -149 Q185 -149 222.5 -119 Q260 -89 294 -17 L315 26 L128 1071 L444 1071 L540 393 L884 1071 L1191 1071 Z M483 1546 Q545 1546 585.5 1506.5 Q626 1467 626 1406 Q626 1335 575.5 1284 Q525 1233 454 1233 Q393 1233 352.5 1273.5 Q312 1314 312 1376 Q312 1445 363 1495.5 Q414 1546 483 1546 Z M907 1546 Q968 1546 1008 1506 Q1048 1466 1048 1406 Q1048 1335 997.5 1284 Q947 1233 876 1233 Q816 1233 777 1273 Q738 1313 738 1375 Q738 1445 788 1495.5 Q838 1546 907 1546 Z " />
<glyph glyph-name="Ydieresis" unicode="&#x178;" horiz-adv-x="1325" d="M406 0 L525 612 L216 1464 L552 1464 L744 889 L1138 1464 L1469 1464 L841 596 L726 0 L406 0 Z M675 1890 Q736 1890 776.5 1850.5 Q817 1811 817 1750 Q817 1679 766.5 1628 Q716 1577 645 1577 Q585 1577 544.5 1617.5 Q504 1658 504 1720 Q504 1789 555 1839.5 Q606 1890 675 1890 Z M1098 1890 Q1159 1890 1199 1850.5 Q1239 1811 1239 1750 Q1239 1679 1188.5 1628 Q1138 1577 1068 1577 Q1008 1577 969 1617 Q930 1657 930 1719 Q930 1789 980 1839.5 Q1030 1890 1098 1890 Z " />
<glyph glyph-name="fraction" unicode="&#x2044;" horiz-adv-x="205" d="M-473 0 L533 1464 L754 1464 L-252 0 L-473 0 Z " />
<glyph glyph-name="Euro" unicode="&#x20ac;" horiz-adv-x="1233" d="M231 948 Q280 1112 364 1228 Q551 1487 860 1487 Q1066 1487 1179 1373 Q1232 1319 1260.5 1250.5 Q1289 1182 1308 1061 L1013 993 Q999 1106 975 1153 Q935 1233 837 1233 Q657 1233 560 948 L867 948 L839 798 L523 798 Q511 721 507 651 L810 651 L781 501 L508 501 Q529 239 714 239 Q796 239 850 294.5 Q904 350 954 487 L1228 399 Q1187 290 1148.5 227.5 Q1110 165 1052 111 Q909 -23 697 -23 Q472 -23 338 115.5 Q204 254 188 501 L36 501 L65 651 L187 651 Q192 742 200 798 L73 798 L102 948 L231 948 Z " />
<glyph glyph-name="guilsinglleft" unicode="&#x2039;" horiz-adv-x="659" d="M232 76 L87 496 L398 909 L654 909 L333 477 L474 76 L232 76 Z " />
<glyph glyph-name="guilsinglright" unicode="&#x203a;" horiz-adv-x="657" d="M-1 76 L321 508 L181 909 L423 909 L568 487 L257 76 L-1 76 Z " />
<glyph glyph-name="fi" unicode="&#xfb01;" horiz-adv-x="1352" d="M791 0 L1000 1071 L1301 1071 L1092 0 L791 0 Z M1226 1561 Q1294 1561 1337.5 1518.5 Q1381 1476 1381 1410 Q1381 1332 1326.5 1278.5 Q1272 1225 1193 1225 Q1127 1225 1084 1267.5 Q1041 1310 1041 1375 Q1041 1453 1094.5 1507 Q1148 1561 1226 1561 Z M117 840 L163 1071 L304 1071 L325 1177 Q349 1299 373 1355 Q397 1411 443 1460 Q548 1569 729 1569 Q869 1569 969 1495 L863 1284 Q809 1321 757 1321 Q659 1321 634 1200 L607 1071 L814 1071 L769 840 L562 840 L398 0 L97 0 L259 840 L117 840 Z " />
<glyph glyph-name="fl" unicode="&#xfb02;" horiz-adv-x="1354" d="M791 0 L1090 1542 L1393 1542 L1094 0 L791 0 Z M117 840 L163 1071 L304 1071 L325 1177 Q349 1299 373 1355 Q397 1411 443 1460 Q548 1569 729 1569 Q869 1569 969 1495 L863 1284 Q809 1321 757 1321 Q659 1321 634 1200 L607 1071 L814 1071 L769 840 L562 840 L398 0 L97 0 L259 840 L117 840 Z " />
<glyph glyph-name="daggerdbl" unicode="&#x2021;" horiz-adv-x="700" d="M185 1108 L220 1280 L392 1280 L429 1464 L640 1464 L603 1280 L779 1280 L746 1108 L570 1108 L548 983 L722 983 L689 811 L515 811 L480 629 L269 629 L304 811 L128 811 L163 983 L337 983 L359 1108 L185 1108 Z " />
<glyph glyph-name="periodcentered" unicode="&#xb7;" horiz-adv-x="616" d="M351 858 Q424 858 474 808.5 Q524 759 524 686 Q524 599 462.5 539 Q401 479 313 479 Q240 479 191.5 527.5 Q143 576 143 648 Q143 735 204 796.5 Q265 858 351 858 Z " />
<glyph glyph-name="quotesinglbase" unicode="&#x201a;" horiz-adv-x="553" d="M-32 -260 L-5 -133 Q135 -108 171 -2 Q110 7 75 46 Q40 85 40 145 Q40 216 90 263.5 Q140 311 214 311 Q289 311 333.5 261.5 Q378 212 378 129 Q378 -28 275 -135 Q218 -194 147.5 -223 Q77 -252 -32 -260 Z " />
<glyph glyph-name="quotedblbase" unicode="&#x201e;" horiz-adv-x="1008" d="M-32 -260 L-5 -133 Q135 -108 171 -2 Q110 7 75 46 Q40 85 40 145 Q40 216 90 263.5 Q140 311 214 311 Q289 311 333.5 261.5 Q378 212 378 129 Q378 -28 275 -135 Q218 -194 147.5 -223 Q77 -252 -32 -260 Z M414 -260 L441 -133 Q582 -108 617 -2 Q556 7 521 46 Q486 85 486 144 Q486 215 536.5 263 Q587 311 661 311 Q735 311 779.5 261.5 Q824 212 824 129 Q824 -28 721 -135 Q664 -194 593.5 -223 Q523 -252 414 -260 Z " />
<glyph glyph-name="perthousand" unicode="&#x2030;" horiz-adv-x="2873" d="M611 1480 Q761 1480 856 1385 Q953 1287 953 1118 Q953 904 832.5 764 Q712 624 526 624 Q363 624 266 731 Q179 827 179 986 Q179 1184 294 1327 Q417 1480 611 1480 Z M592 1279 Q516 1279 472 1202 Q425 1119 425 991 Q425 827 542 827 Q618 827 662 908 Q711 995 711 1117 Q711 1279 592 1279 Z M1553 836 Q1703 836 1797 741 Q1895 643 1895 474 Q1895 260 1774.5 120 Q1654 -20 1468 -20 Q1304 -20 1209 87 Q1123 183 1123 342 Q1123 541 1238 684 Q1360 836 1553 836 Z M1534 635 Q1458 635 1414 558 Q1367 475 1367 346 Q1367 183 1484 183 Q1559 183 1604 263 Q1653 352 1653 473 Q1653 635 1534 635 Z M2400 836 Q2552 836 2647 741 Q2743 643 2743 475 Q2743 261 2622 120.5 Q2501 -20 2316 -20 Q2152 -20 2057 87 Q1971 183 1971 342 Q1971 541 2086 684 Q2207 836 2400 836 Z M2383 635 Q2306 635 2262 556 Q2215 472 2215 346 Q2215 183 2330 183 Q2406 183 2450 262 Q2499 351 2499 473 Q2499 635 2383 635 Z M427 0 L1432 1464 L1654 1464 L648 0 L427 0 Z " />
<glyph glyph-name="Acircumflex" unicode="&#xc2;" horiz-adv-x="1422" d="M931 279 L378 279 L237 0 L-80 0 L711 1464 L1080 1464 L1293 0 L965 0 L931 279 Z M903 512 L825 1161 L496 512 L903 512 Z M560 1587 L843 1935 L1070 1935 L1222 1587 L1017 1587 L922 1732 L771 1587 L560 1587 Z " />
<glyph glyph-name="Ecircumflex" unicode="&#xca;" horiz-adv-x="1253" d="M60 0 L345 1464 L1309 1464 L1262 1214 L611 1214 L543 864 L1031 864 L984 626 L496 626 L425 250 L1107 250 L1059 0 L60 0 Z M500 1587 L783 1935 L1010 1935 L1162 1587 L957 1587 L862 1732 L711 1587 L500 1587 Z " />
<glyph glyph-name="Aacute" unicode="&#xc1;" horiz-adv-x="1422" d="M931 279 L378 279 L237 0 L-80 0 L711 1464 L1080 1464 L1293 0 L965 0 L931 279 Z M903 512 L825 1161 L496 512 L903 512 Z M803 1579 L942 1935 L1297 1935 L1022 1579 L803 1579 Z " />
<glyph glyph-name="Edieresis" unicode="&#xcb;" horiz-adv-x="1253" d="M60 0 L345 1464 L1309 1464 L1262 1214 L611 1214 L543 864 L1031 864 L984 626 L496 626 L425 250 L1107 250 L1059 0 L60 0 Z M644 1890 Q706 1890 746.5 1850.5 Q787 1811 787 1750 Q787 1679 736.5 1628 Q686 1577 615 1577 Q554 1577 513.5 1617.5 Q473 1658 473 1720 Q473 1789 524 1839.5 Q575 1890 644 1890 Z M1068 1890 Q1129 1890 1169 1850 Q1209 1810 1209 1750 Q1209 1679 1158.5 1628 Q1108 1577 1037 1577 Q977 1577 938 1617 Q899 1657 899 1719 Q899 1789 949 1839.5 Q999 1890 1068 1890 Z " />
<glyph glyph-name="Egrave" unicode="&#xc8;" horiz-adv-x="1253" d="M60 0 L345 1464 L1309 1464 L1262 1214 L611 1214 L543 864 L1031 864 L984 626 L496 626 L425 250 L1107 250 L1059 0 L60 0 Z M790 1579 L612 1935 L944 1935 L999 1579 L790 1579 Z " />
<glyph glyph-name="Iacute" unicode="&#xcd;" horiz-adv-x="670" d="M71 0 L356 1464 L675 1464 L390 0 L71 0 Z M421 1579 L560 1935 L915 1935 L640 1579 L421 1579 Z " />
<glyph glyph-name="Icircumflex" unicode="&#xce;" horiz-adv-x="670" d="M71 0 L356 1464 L675 1464 L390 0 L71 0 Z M197 1587 L480 1935 L707 1935 L859 1587 L654 1587 L559 1732 L408 1587 L197 1587 Z " />
<glyph glyph-name="Idieresis" unicode="&#xcf;" horiz-adv-x="670" d="M71 0 L356 1464 L675 1464 L390 0 L71 0 Z M347 1890 Q408 1890 448.5 1850.5 Q489 1811 489 1750 Q489 1679 438.5 1628 Q388 1577 317 1577 Q257 1577 216.5 1617.5 Q176 1658 176 1720 Q176 1789 227 1839.5 Q278 1890 347 1890 Z M770 1890 Q831 1890 871 1850.5 Q911 1811 911 1750 Q911 1679 860.5 1628 Q810 1577 740 1577 Q680 1577 641 1617 Q602 1657 602 1719 Q602 1789 652 1839.5 Q702 1890 770 1890 Z " />
<glyph glyph-name="Igrave" unicode="&#xcc;" horiz-adv-x="670" d="M71 0 L356 1464 L675 1464 L390 0 L71 0 Z M451 1579 L273 1935 L605 1935 L660 1579 L451 1579 Z " />
<glyph glyph-name="Oacute" unicode="&#xd3;" horiz-adv-x="1554" d="M879 1487 Q1184 1487 1355 1291 Q1505 1120 1505 839 Q1505 566 1376 345 Q1274 168 1109 72 Q945 -23 736 -23 Q465 -23 299 144 Q127 317 127 622 Q127 833 203 1022 Q291 1238 477 1367 Q649 1487 879 1487 Z M882 1235 Q700 1235 587 1073 Q527 987 493 862 Q459 737 459 603 Q459 422 536.5 325.5 Q614 229 761 229 Q892 229 991 324 Q1081 411 1130 567 Q1173 704 1173 860 Q1173 1074 1073 1167 Q1000 1235 882 1235 Z M791 1579 L930 1935 L1285 1935 L1010 1579 L791 1579 Z " />
<glyph glyph-name="Ocircumflex" unicode="&#xd4;" horiz-adv-x="1554" d="M879 1487 Q1184 1487 1355 1291 Q1505 1120 1505 839 Q1505 566 1376 345 Q1274 168 1109 72 Q945 -23 736 -23 Q465 -23 299 144 Q127 317 127 622 Q127 833 203 1022 Q291 1238 477 1367 Q649 1487 879 1487 Z M882 1235 Q700 1235 587 1073 Q527 987 493 862 Q459 737 459 603 Q459 422 536.5 325.5 Q614 229 761 229 Q892 229 991 324 Q1081 411 1130 567 Q1173 704 1173 860 Q1173 1074 1073 1167 Q1000 1235 882 1235 Z M608 1587 L891 1935 L1118 1935 L1270 1587 L1065 1587 L970 1732 L819 1587 L608 1587 Z " />
<glyph glyph-name="Ograve" unicode="&#xd2;" horiz-adv-x="1554" d="M879 1487 Q1184 1487 1355 1291 Q1505 1120 1505 839 Q1505 566 1376 345 Q1274 168 1109 72 Q945 -23 736 -23 Q465 -23 299 144 Q127 317 127 622 Q127 833 203 1022 Q291 1238 477 1367 Q649 1487 879 1487 Z M882 1235 Q700 1235 587 1073 Q527 987 493 862 Q459 737 459 603 Q459 422 536.5 325.5 Q614 229 761 229 Q892 229 991 324 Q1081 411 1130 567 Q1173 704 1173 860 Q1173 1074 1073 1167 Q1000 1235 882 1235 Z M875 1579 L697 1935 L1029 1935 L1084 1579 L875 1579 Z " />
<glyph glyph-name="Uacute" unicode="&#xda;" horiz-adv-x="1481" d="M1509 1464 L1332 548 Q1284 301 1188 176 Q1037 -23 699 -23 Q404 -23 264 132 Q155 252 155 453 Q155 532 173 627 L337 1464 L659 1464 L493 616 Q477 535 477 462 Q477 233 712 233 Q799 233 856.5 263.5 Q914 294 952 360 Q993 430 1018 558 L1193 1464 L1509 1464 Z M821 1579 L960 1935 L1315 1935 L1040 1579 L821 1579 Z " />
<glyph glyph-name="Ucircumflex" unicode="&#xdb;" horiz-adv-x="1481" d="M1509 1464 L1332 548 Q1284 301 1188 176 Q1037 -23 699 -23 Q404 -23 264 132 Q155 252 155 453 Q155 532 173 627 L337 1464 L659 1464 L493 616 Q477 535 477 462 Q477 233 712 233 Q799 233 856.5 263.5 Q914 294 952 360 Q993 430 1018 558 L1193 1464 L1509 1464 Z M614 1587 L897 1935 L1124 1935 L1276 1587 L1071 1587 L976 1732 L825 1587 L614 1587 Z " />
<glyph glyph-name="Ugrave" unicode="&#xd9;" horiz-adv-x="1481" d="M1509 1464 L1332 548 Q1284 301 1188 176 Q1037 -23 699 -23 Q404 -23 264 132 Q155 252 155 453 Q155 532 173 627 L337 1464 L659 1464 L493 616 Q477 535 477 462 Q477 233 712 233 Q799 233 856.5 263.5 Q914 294 952 360 Q993 430 1018 558 L1193 1464 L1509 1464 Z M875 1579 L697 1935 L1029 1935 L1084 1579 L875 1579 Z " />
<glyph glyph-name="dotlessi" unicode="&#x131;" horiz-adv-x="600" d="M46 0 L255 1071 L558 1071 L349 0 L46 0 Z " />
<glyph glyph-name="circumflex" unicode="&#x2c6;" horiz-adv-x="1024" d="M311 1202 L592 1542 L819 1542 L973 1202 L768 1202 L673 1347 L522 1202 L311 1202 Z " />
<glyph glyph-name="tilde" unicode="&#x2dc;" horiz-adv-x="1024" d="M1046 1524 Q985 1233 791 1233 Q722 1233 634 1288 Q583 1321 555 1321 Q503 1321 477 1237 L309 1249 Q336 1371 378 1434 Q447 1540 559 1540 Q624 1540 710 1487 Q767 1452 796 1452 Q842 1452 870 1536 L1046 1524 Z " />
<glyph glyph-name="overscore" unicode="&#xaf;" horiz-adv-x="1024" d="M399 1290 L440 1497 L956 1497 L917 1290 L399 1290 Z " />
<glyph glyph-name="breve" unicode="&#x2d8;" horiz-adv-x="1024" d="M387 1530 L588 1530 Q587 1458 611.5 1427.5 Q636 1397 694 1397 Q803 1397 818 1530 L1018 1530 Q1004 1404 961 1333 Q880 1201 694 1201 Q506 1201 430 1323 Q388 1392 387 1530 Z " />
<glyph glyph-name="dotaccent" unicode="&#x2d9;" horiz-adv-x="1024" d="M691 1546 Q752 1546 792.5 1506.5 Q833 1467 833 1406 Q833 1335 782.5 1284 Q732 1233 662 1233 Q601 1233 561.5 1273.5 Q522 1314 522 1376 Q522 1445 572 1495.5 Q622 1546 691 1546 Z " />
<glyph glyph-name="ring" unicode="&#x2da;" horiz-adv-x="1024" d="M696 1611 Q788 1611 846.5 1553.5 Q905 1496 905 1406 Q905 1305 834.5 1236 Q764 1167 660 1167 Q568 1167 509 1224.5 Q450 1282 450 1371 Q450 1470 519 1539 Q590 1611 696 1611 Z M687 1494 Q646 1494 618.5 1460.5 Q591 1427 591 1376 Q591 1335 612 1310.5 Q633 1286 668 1286 Q710 1286 738 1319.5 Q766 1353 766 1403 Q766 1444 744.5 1469 Q723 1494 687 1494 Z " />
<glyph glyph-name="cedilla" unicode="&#xb8;" horiz-adv-x="1024" d="M414 -109 Q439 -105 451 -105 Q513 -105 553.5 -148.5 Q594 -192 594 -260 Q594 -351 533 -405 Q472 -459 367 -459 Q215 -459 150 -344 L275 -285 Q305 -336 363 -336 Q397 -336 418.5 -316.5 Q440 -297 440 -265 Q440 -237 423 -220 Q406 -203 378 -203 Q342 -203 314 -236 L236 -176 L379 0 L510 0 L414 -109 Z " />
<glyph glyph-name="hungarumlaut" unicode="&#x2dd;" horiz-adv-x="1024" d="M714 1186 L835 1542 L1130 1542 L921 1186 L714 1186 Z M331 1186 L454 1542 L749 1542 L538 1186 L331 1186 Z " />
<glyph glyph-name="ogonek" unicode="&#x2db;" horiz-adv-x="1024" d="M583 -352 Q504 -422 396 -422 Q301 -422 247.5 -378.5 Q194 -335 194 -258 Q194 -182 245 -115 Q296 -48 391 0 L546 0 Q370 -118 370 -227 Q370 -285 435 -285 Q477 -285 520 -248 L583 -352 Z " />
<glyph glyph-name="caron" unicode="&#x2c7;" horiz-adv-x="1024" d="M530 1202 L377 1542 L582 1542 L676 1397 L828 1542 L1039 1542 L758 1202 L530 1202 Z " />
<glyph glyph-name="nbspace" unicode="&#xa0;" horiz-adv-x="616" d="" />
<glyph glyph-name="currency" unicode="&#xa4;" horiz-adv-x="1233" d="M231 948 Q280 1112 364 1228 Q551 1487 860 1487 Q1066 1487 1179 1373 Q1232 1319 1260.5 1250.5 Q1289 1182 1308 1061 L1013 993 Q999 1106 975 1153 Q935 1233 837 1233 Q657 1233 560 948 L867 948 L839 798 L523 798 Q511 721 507 651 L810 651 L781 501 L508 501 Q529 239 714 239 Q796 239 850 294.5 Q904 350 954 487 L1228 399 Q1187 290 1148.5 227.5 Q1110 165 1052 111 Q909 -23 697 -23 Q472 -23 338 115.5 Q204 254 188 501 L36 501 L65 651 L187 651 Q192 742 200 798 L73 798 L102 948 L231 948 Z " />
<glyph glyph-name="brokenbar" unicode="&#xa6;" horiz-adv-x="592" d="M70 0 L184 588 L428 588 L314 0 L70 0 Z M240 877 L355 1464 L598 1464 L484 877 L240 877 Z " />
<glyph glyph-name="uni00AD" unicode="&#xad;" horiz-adv-x="616" d="M67 527 L120 803 L596 803 L543 527 L67 527 Z " />
<glyph glyph-name="twosuperior" unicode="&#xb2;" horiz-adv-x="924" d="M120 883 L160 1088 Q430 1214 550 1314.5 Q670 1415 670 1514 Q670 1581 605 1581 Q528 1581 482 1471 L239 1531 Q344 1804 646 1804 Q797 1804 883 1738 Q976 1667 976 1541 Q976 1406 869.5 1293.5 Q763 1181 556 1099 L894 1099 L852 883 L120 883 Z " />
<glyph glyph-name="threesuperior" unicode="&#xb3;" horiz-adv-x="924" d="M800 1356 Q933 1308 933 1172 Q933 1097 887.5 1029 Q842 961 765 921 Q661 867 512 867 Q297 867 200 962 Q165 997 150.5 1034 Q136 1071 133 1133 L388 1191 Q396 1077 507 1077 Q564 1077 599.5 1107.5 Q635 1138 635 1187 Q635 1250 542 1250 L469 1250 L504 1428 L577 1428 Q636 1428 671 1456 Q706 1484 706 1531 Q706 1595 621 1595 Q520 1595 462 1491 L244 1552 Q281 1640 354 1704 Q467 1804 657 1804 Q823 1804 917 1730 Q992 1671 992 1571 Q992 1414 800 1356 Z " />
<glyph glyph-name="onesuperior" unicode="&#xb9;" horiz-adv-x="924" d="M198 883 L237 1081 L401 1081 L473 1450 Q413 1429 299 1425 L337 1619 Q515 1640 577 1788 L816 1788 L678 1081 L829 1081 L791 883 L198 883 Z " />
<glyph glyph-name="onequarter" unicode="&#xbc;" horiz-adv-x="1884" d="M180 641 L215 821 L364 821 L430 1157 Q374 1138 272 1134 L306 1310 Q468 1329 524 1464 L741 1464 L616 821 L754 821 L719 641 L180 641 Z M367 0 L1372 1464 L1593 1464 L588 0 L367 0 Z M1330 0 L1357 139 L966 139 L1004 335 L1482 823 L1755 823 L1657 319 L1763 319 L1728 139 L1622 139 L1594 0 L1330 0 Z M1460 595 L1192 311 L1405 311 L1460 595 Z " />
<glyph glyph-name="onehalf" unicode="&#xbd;" horiz-adv-x="1884" d="M180 641 L215 821 L364 821 L430 1157 Q374 1138 272 1134 L306 1310 Q468 1329 524 1464 L741 1464 L616 821 L754 821 L719 641 L180 641 Z M367 0 L1372 1464 L1593 1464 L588 0 L367 0 Z M1029 0 L1065 187 Q1311 302 1420 393 Q1529 484 1529 574 Q1529 635 1470 635 Q1401 635 1358 535 L1138 590 Q1230 838 1507 838 Q1644 838 1723 778 Q1807 714 1807 599 Q1807 476 1710 374 Q1613 272 1426 197 L1733 197 L1695 0 L1029 0 Z " />
<glyph glyph-name="threequarters" unicode="&#xbe;" horiz-adv-x="1884" d="M728 1071 Q849 1028 849 904 Q849 781 741.5 703.5 Q634 626 466 626 Q270 626 182 713 Q150 745 136.5 778.5 Q123 812 121 868 L353 921 Q361 816 462 816 Q514 816 546 844 Q578 872 578 917 Q578 975 493 975 L426 975 L458 1136 L524 1136 Q578 1136 610 1161.5 Q642 1187 642 1230 Q642 1288 565 1288 Q472 1288 420 1194 L222 1249 Q318 1478 598 1478 Q748 1478 834 1411 Q902 1357 902 1266 Q902 1124 728 1071 Z M376 0 L1381 1464 L1603 1464 L597 0 L376 0 Z M1303 0 L1330 139 L939 139 L977 335 L1455 823 L1728 823 L1630 319 L1736 319 L1701 139 L1595 139 L1568 0 L1303 0 Z M1433 595 L1165 311 L1378 311 L1433 595 Z " />
<glyph glyph-name="Eth" unicode="&#xd0;" horiz-adv-x="1495" d="M54 608 L101 848 L232 848 L353 1464 L863 1464 Q1152 1464 1305 1295 Q1443 1143 1443 863 Q1443 627 1359 433 Q1248 178 1002 70 Q841 0 632 0 L68 0 L185 608 L54 608 Z M437 258 L652 258 Q906 258 1022 460 Q1113 620 1113 862 Q1113 1058 1023 1140 Q950 1206 818 1206 L623 1206 L552 848 L799 848 L752 608 L505 608 L437 258 Z " />
<glyph glyph-name="multiply" unicode="&#xd7;" horiz-adv-x="1147" d="M284 212 L112 381 L431 710 L112 1039 L283 1209 L601 881 L916 1209 L1090 1039 L771 710 L1090 381 L916 212 L601 537 L284 212 Z " />
<glyph glyph-name="Yacute" unicode="&#xdd;" horiz-adv-x="1325" d="M406 0 L525 612 L216 1464 L552 1464 L744 889 L1138 1464 L1469 1464 L841 596 L726 0 L406 0 Z M754 1579 L893 1935 L1248 1935 L973 1579 L754 1579 Z " />
<glyph glyph-name="Thorn" unicode="&#xde;" horiz-adv-x="1335" d="M60 0 L345 1464 L664 1464 L617 1221 L842 1221 Q1085 1221 1209 1086 Q1303 984 1303 814 Q1303 574 1146 434 Q989 295 717 295 L435 295 L379 0 L60 0 Z M482 533 L719 533 Q866 533 936 610 Q994 674 994 787 Q994 878 944.5 926.5 Q895 975 801 975 L568 975 L482 533 Z " />
<glyph glyph-name="eth" unicode="&#xf0;" horiz-adv-x="1192" d="M479 1110 L401 1233 L546 1335 Q480 1391 438 1427 L583 1608 Q667 1558 759 1489 L921 1603 L997 1481 L870 1390 Q985 1268 1044 1148 Q1134 967 1134 737 Q1134 447 1018 244 Q866 -23 545 -23 Q311 -23 181 121 Q67 246 67 453 Q67 698 206 871 Q260 937 326 981 Q443 1057 579 1057 Q723 1057 815 956 Q766 1098 651 1233 L479 1110 Z M636 842 Q511 842 440 717 Q374 599 374 437 Q374 208 556 208 Q677 208 743 328 Q810 449 810 615 Q810 842 636 842 Z " />
<glyph glyph-name="yacute" unicode="&#xfd;" horiz-adv-x="1112" d="M1191 1071 L542 -107 Q459 -258 363 -323.5 Q267 -389 130 -389 Q-7 -389 -103 -318 L12 -109 Q64 -149 130 -149 Q185 -149 222.5 -119 Q260 -89 294 -17 L315 26 L128 1071 L444 1071 L540 393 L884 1071 L1191 1071 Z M557 1202 L693 1542 L1047 1542 L776 1202 L557 1202 Z " />
<glyph glyph-name="thorn" unicode="&#xfe;" horiz-adv-x="1253" d="M-32 -373 L339 1542 L642 1542 L519 897 Q653 1098 851 1098 Q997 1098 1085 997 Q1185 883 1185 663 Q1185 516 1143 382 Q1101 248 1024 152 Q884 -23 671 -23 Q456 -23 378 176 L271 -373 L-32 -373 Z M704 867 Q576 867 500 732 Q427 602 427 433 Q427 213 610 213 Q732 213 800 334 Q870 460 870 636 Q870 867 704 867 Z " />
<glyph glyph-name="Amacron" unicode="&#x100;" horiz-adv-x="1422" d="M931 279 L378 279 L237 0 L-80 0 L711 1464 L1080 1464 L1293 0 L965 0 L931 279 Z M903 512 L825 1161 L496 512 L903 512 Z M645 1626 L686 1833 L1202 1833 L1163 1626 L645 1626 Z " />
<glyph glyph-name="amacron" unicode="&#x101;" horiz-adv-x="1111" d="M606 129 Q496 -23 324 -23 Q206 -23 125 41 Q24 122 24 267 Q24 555 398 618 Q514 637 694 643 L698 666 Q703 694 703 720 Q703 850 557 850 Q411 850 264 760 L157 969 Q250 1028 329 1055 Q454 1098 609 1098 Q1009 1098 1009 773 Q1009 716 993 634 L909 201 Q896 135 896 95 Q896 47 909 12 L909 0 L614 0 Q604 53 604 95 Q604 108 606 129 Z M659 465 Q531 460 465 443 Q331 411 331 296 Q331 194 442 194 Q517 194 571.5 241.5 Q626 289 640 367 L659 465 Z M394 1290 L435 1497 L951 1497 L912 1290 L394 1290 Z " />
<glyph glyph-name="Abreve" unicode="&#x102;" horiz-adv-x="1422" d="M931 279 L378 279 L237 0 L-80 0 L711 1464 L1080 1464 L1293 0 L965 0 L931 279 Z M903 512 L825 1161 L496 512 L903 512 Z M1230 1882 Q1208 1776 1163 1713 Q1066 1581 892 1581 Q751 1581 672 1671 Q635 1713 620.5 1759 Q606 1805 606 1882 L804 1882 Q807 1776 907 1776 Q1003 1776 1032 1882 L1230 1882 Z " />
<glyph glyph-name="abreve" unicode="&#x103;" horiz-adv-x="1111" d="M606 129 Q496 -23 324 -23 Q206 -23 125 41 Q24 122 24 267 Q24 555 398 618 Q514 637 694 643 L698 666 Q703 694 703 720 Q703 850 557 850 Q411 850 264 760 L157 969 Q250 1028 329 1055 Q454 1098 609 1098 Q1009 1098 1009 773 Q1009 716 993 634 L909 201 Q896 135 896 95 Q896 47 909 12 L909 0 L614 0 Q604 53 604 95 Q604 108 606 129 Z M659 465 Q531 460 465 443 Q331 411 331 296 Q331 194 442 194 Q517 194 571.5 241.5 Q626 289 640 367 L659 465 Z M1000 1530 Q978 1423 932 1360 Q836 1228 662 1228 Q520 1228 442 1318 Q405 1360 390.5 1406.5 Q376 1453 375 1530 L574 1530 Q578 1423 676 1423 Q774 1423 801 1530 L1000 1530 Z " />
<glyph glyph-name="Aogonek" unicode="&#x104;" horiz-adv-x="1422" d="M1293 0 Q1116 -118 1116 -227 Q1116 -285 1181 -285 Q1223 -285 1266 -248 L1329 -352 Q1250 -422 1142 -422 Q1047 -422 993.5 -378.5 Q940 -335 940 -258 Q940 -182 991 -115 Q1042 -48 1137 0 L965 0 L931 279 L378 279 L237 0 L-80 0 L711 1464 L1080 1464 L1293 0 Z M903 512 L825 1161 L496 512 L903 512 Z " />
<glyph glyph-name="aogonek" unicode="&#x105;" horiz-adv-x="1111" d="M909 0 Q732 -118 732 -227 Q732 -285 797 -285 Q840 -285 882 -248 L946 -352 Q867 -422 758 -422 Q663 -422 609.5 -378.5 Q556 -335 556 -258 Q556 -182 607.5 -115 Q659 -48 753 0 L614 0 Q604 53 604 95 Q604 108 606 129 Q496 -23 324 -23 Q206 -23 125 41 Q24 122 24 267 Q24 555 398 618 Q514 637 694 643 L698 666 Q703 694 703 720 Q703 850 557 850 Q411 850 264 760 L157 969 Q250 1028 329 1055 Q454 1098 609 1098 Q1009 1098 1009 773 Q1009 716 993 634 L909 201 Q896 135 896 95 Q896 47 909 12 L909 0 Z M659 465 Q531 460 465 443 Q331 411 331 296 Q331 194 442 194 Q517 194 571.5 241.5 Q626 289 640 367 L659 465 Z " />
<glyph glyph-name="Cacute" unicode="&#x106;" horiz-adv-x="1423" d="M1334 383 Q1239 179 1098 84 Q942 -23 720 -23 Q435 -23 277 154 Q128 321 128 613 Q128 792 180 952.5 Q232 1113 328 1231 Q535 1487 877 1487 Q1100 1487 1240 1376 Q1380 1265 1422 1054 L1129 958 Q1111 1055 1081 1111 Q1015 1231 867 1231 Q674 1231 566 1037 Q460 847 460 596 Q460 237 741 237 Q960 237 1066 504 L1334 383 Z M768 1579 L907 1935 L1262 1935 L987 1579 L768 1579 Z " />
<glyph glyph-name="cacute" unicode="&#x107;" horiz-adv-x="1102" d="M999 258 Q933 141 855 79 Q727 -23 540 -23 Q314 -23 187 118 Q77 240 77 449 Q77 597 125 726 Q173 855 261 943 Q416 1098 652 1098 Q812 1098 914 1024.5 Q1016 951 1072 794 L812 698 Q782 790 745 825 Q708 860 642 860 Q516 860 448 740 Q380 619 380 441 Q380 204 555 204 Q626 204 675.5 243 Q725 282 773 375 L999 258 Z M552 1202 L688 1542 L1042 1542 L771 1202 L552 1202 Z " />
<glyph glyph-name="Ccircumflex" unicode="&#x108;" horiz-adv-x="1423" d="M1334 383 Q1239 179 1098 84 Q942 -23 720 -23 Q435 -23 277 154 Q128 321 128 613 Q128 792 180 952.5 Q232 1113 328 1231 Q535 1487 877 1487 Q1100 1487 1240 1376 Q1380 1265 1422 1054 L1129 958 Q1111 1055 1081 1111 Q1015 1231 867 1231 Q674 1231 566 1037 Q460 847 460 596 Q460 237 741 237 Q960 237 1066 504 L1334 383 Z M573 1587 L856 1935 L1083 1935 L1235 1587 L1030 1587 L935 1732 L784 1587 L573 1587 Z " />
<glyph glyph-name="ccircumflex" unicode="&#x109;" horiz-adv-x="1102" d="M999 258 Q933 141 855 79 Q727 -23 540 -23 Q314 -23 187 118 Q77 240 77 449 Q77 597 125 726 Q173 855 261 943 Q416 1098 652 1098 Q812 1098 914 1024.5 Q1016 951 1072 794 L812 698 Q782 790 745 825 Q708 860 642 860 Q516 860 448 740 Q380 619 380 441 Q380 204 555 204 Q626 204 675.5 243 Q725 282 773 375 L999 258 Z M350 1202 L631 1542 L858 1542 L1012 1202 L807 1202 L712 1347 L561 1202 L350 1202 Z " />
<glyph glyph-name="Cdotaccent" unicode="&#x10a;" horiz-adv-x="1423" d="M1334 383 Q1239 179 1098 84 Q942 -23 720 -23 Q435 -23 277 154 Q128 321 128 613 Q128 792 180 952.5 Q232 1113 328 1231 Q535 1487 877 1487 Q1100 1487 1240 1376 Q1380 1265 1422 1054 L1129 958 Q1111 1055 1081 1111 Q1015 1231 867 1231 Q674 1231 566 1037 Q460 847 460 596 Q460 237 741 237 Q960 237 1066 504 L1334 383 Z M946 1890 Q1007 1890 1047.5 1850.5 Q1088 1811 1088 1750 Q1088 1679 1037.5 1628 Q987 1577 917 1577 Q856 1577 816.5 1617.5 Q777 1658 777 1720 Q777 1789 827 1839.5 Q877 1890 946 1890 Z " />
<glyph glyph-name="cdotaccent" unicode="&#x10b;" horiz-adv-x="1102" d="M999 258 Q933 141 855 79 Q727 -23 540 -23 Q314 -23 187 118 Q77 240 77 449 Q77 597 125 726 Q173 855 261 943 Q416 1098 652 1098 Q812 1098 914 1024.5 Q1016 951 1072 794 L812 698 Q782 790 745 825 Q708 860 642 860 Q516 860 448 740 Q380 619 380 441 Q380 204 555 204 Q626 204 675.5 243 Q725 282 773 375 L999 258 Z M718 1546 Q779 1546 819.5 1506.5 Q860 1467 860 1406 Q860 1335 809.5 1284 Q759 1233 689 1233 Q628 1233 588.5 1273.5 Q549 1314 549 1376 Q549 1445 599 1495.5 Q649 1546 718 1546 Z " />
<glyph glyph-name="Ccaron" unicode="&#x10c;" horiz-adv-x="1423" d="M1334 383 Q1239 179 1098 84 Q942 -23 720 -23 Q435 -23 277 154 Q128 321 128 613 Q128 792 180 952.5 Q232 1113 328 1231 Q535 1487 877 1487 Q1100 1487 1240 1376 Q1380 1265 1422 1054 L1129 958 Q1111 1055 1081 1111 Q1015 1231 867 1231 Q674 1231 566 1037 Q460 847 460 596 Q460 237 741 237 Q960 237 1066 504 L1334 383 Z M781 1587 L629 1935 L834 1935 L928 1790 L1080 1935 L1291 1935 L1008 1587 L781 1587 Z " />
<glyph glyph-name="ccaron" unicode="&#x10d;" horiz-adv-x="1102" d="M999 258 Q933 141 855 79 Q727 -23 540 -23 Q314 -23 187 118 Q77 240 77 449 Q77 597 125 726 Q173 855 261 943 Q416 1098 652 1098 Q812 1098 914 1024.5 Q1016 951 1072 794 L812 698 Q782 790 745 825 Q708 860 642 860 Q516 860 448 740 Q380 619 380 441 Q380 204 555 204 Q626 204 675.5 243 Q725 282 773 375 L999 258 Z M557 1202 L404 1542 L609 1542 L703 1397 L855 1542 L1066 1542 L785 1202 L557 1202 Z " />
<glyph glyph-name="Dcaron" unicode="&#x10e;" horiz-adv-x="1487" d="M60 0 L345 1464 L855 1464 Q1058 1464 1194 1380 Q1434 1233 1434 865 Q1434 572 1310 353 Q1171 110 884 32 Q765 0 584 0 L60 0 Z M429 258 L605 258 Q751 258 835 296 Q978 360 1046 530 Q1104 675 1104 861 Q1104 1084 987 1161 Q919 1206 810 1206 L615 1206 L429 258 Z M715 1587 L563 1935 L768 1935 L862 1790 L1014 1935 L1225 1935 L942 1587 L715 1587 Z " />
<glyph glyph-name="dcaron" unicode="&#x10f;" horiz-adv-x="1454" d="M747 168 Q676 67 600.5 22 Q525 -23 425 -23 Q274 -23 182 82 Q81 198 81 415 Q81 562 123 696 Q165 830 240 924 Q378 1098 585 1098 Q692 1098 769.5 1047 Q847 996 888 899 L1013 1542 L1316 1542 L1017 0 L714 0 L747 168 Z M662 869 Q536 869 467 746 Q398 623 398 450 Q398 213 569 213 Q692 213 766 347 Q839 479 839 648 Q839 869 662 869 Z M1325 1083 L1350 1191 Q1482 1214 1503 1296 Q1450 1302 1418 1336 Q1386 1370 1386 1422 Q1386 1480 1427.5 1519 Q1469 1558 1532 1558 Q1597 1558 1637 1513.5 Q1677 1469 1677 1396 Q1677 1258 1583 1172 Q1535 1128 1477.5 1108 Q1420 1088 1325 1083 Z " />
<glyph glyph-name="Dcroat" unicode="&#x110;" horiz-adv-x="1495" d="M54 608 L101 848 L232 848 L353 1464 L863 1464 Q1152 1464 1305 1295 Q1443 1143 1443 863 Q1443 627 1359 433 Q1248 178 1002 70 Q841 0 632 0 L68 0 L185 608 L54 608 Z M437 258 L652 258 Q906 258 1022 460 Q1113 620 1113 862 Q1113 1058 1023 1140 Q950 1206 818 1206 L623 1206 L552 848 L799 848 L752 608 L505 608 L437 258 Z " />
<glyph glyph-name="dcroat" unicode="&#x111;" horiz-adv-x="1263" d="M982 1382 L1013 1542 L1316 1542 L1285 1382 L1420 1382 L1384 1185 L1247 1185 L1017 0 L714 0 L747 168 Q676 67 600.5 22 Q525 -23 425 -23 Q275 -23 182 82 Q81 197 81 415 Q81 561 123 695 Q165 829 240 924 Q378 1097 585 1097 Q692 1097 769.5 1046.5 Q847 996 888 899 L944 1185 L722 1185 L759 1382 L982 1382 Z M662 868 Q536 868 467 745 Q398 622 398 449 Q398 213 569 213 Q692 213 766 347 Q839 479 839 647 Q839 868 662 868 Z " />
<glyph glyph-name="Emacron" unicode="&#x112;" horiz-adv-x="1253" d="M60 0 L345 1464 L1309 1464 L1262 1214 L611 1214 L543 864 L1031 864 L984 626 L496 626 L425 250 L1107 250 L1059 0 L60 0 Z M579 1626 L620 1833 L1136 1833 L1097 1626 L579 1626 Z " />
<glyph glyph-name="emacron" unicode="&#x113;" horiz-adv-x="1131" d="M990 176 Q897 72 789 24.5 Q681 -23 536 -23 Q306 -23 186 110 Q81 226 81 430 Q81 575 130 703 Q179 831 270 923 Q442 1098 696 1098 Q835 1098 931 1042 Q1078 958 1078 783 Q1078 528 721 460 Q603 437 382 432 L382 412 Q382 204 556 204 Q629 204 684.5 231.5 Q740 259 808 330 L990 176 Z M405 614 Q612 614 702.5 648.5 Q793 683 793 763 Q793 814 759.5 843.5 Q726 873 668 873 Q478 873 405 614 Z M453 1290 L494 1497 L1010 1497 L971 1290 L453 1290 Z " />
<glyph glyph-name="Ebreve" unicode="&#x114;" horiz-adv-x="1253" d="M60 0 L345 1464 L1309 1464 L1262 1214 L611 1214 L543 864 L1031 864 L984 626 L496 626 L425 250 L1107 250 L1059 0 L60 0 Z M1188 1882 Q1166 1776 1120 1713 Q1024 1581 850 1581 Q708 1581 630 1671 Q593 1713 578.5 1759 Q564 1805 563 1882 L762 1882 Q765 1776 864 1776 Q961 1776 989 1882 L1188 1882 Z " />
<glyph glyph-name="ebreve" unicode="&#x115;" horiz-adv-x="1131" d="M990 176 Q897 72 789 24.5 Q681 -23 536 -23 Q306 -23 186 110 Q81 226 81 430 Q81 575 130 703 Q179 831 270 923 Q442 1098 696 1098 Q835 1098 931 1042 Q1078 958 1078 783 Q1078 528 721 460 Q603 437 382 432 L382 412 Q382 204 556 204 Q629 204 684.5 231.5 Q740 259 808 330 L990 176 Z M405 614 Q612 614 702.5 648.5 Q793 683 793 763 Q793 814 759.5 843.5 Q726 873 668 873 Q478 873 405 614 Z M455 1530 L656 1530 Q655 1458 679.5 1427.5 Q704 1397 762 1397 Q871 1397 886 1530 L1086 1530 Q1072 1404 1029 1333 Q948 1201 762 1201 Q574 1201 498 1323 Q456 1392 455 1530 Z " />
<glyph glyph-name="Edotaccent" unicode="&#x116;" horiz-adv-x="1253" d="M60 0 L345 1464 L1309 1464 L1262 1214 L611 1214 L543 864 L1031 864 L984 626 L496 626 L425 250 L1107 250 L1059 0 L60 0 Z M891 1890 Q952 1890 992.5 1850.5 Q1033 1811 1033 1750 Q1033 1679 982.5 1628 Q932 1577 862 1577 Q801 1577 761.5 1617.5 Q722 1658 722 1720 Q722 1789 772 1839.5 Q822 1890 891 1890 Z " />
<glyph glyph-name="edotaccent" unicode="&#x117;" horiz-adv-x="1131" d="M990 176 Q897 72 789 24.5 Q681 -23 536 -23 Q306 -23 186 110 Q81 226 81 430 Q81 575 130 703 Q179 831 270 923 Q442 1098 696 1098 Q835 1098 931 1042 Q1078 958 1078 783 Q1078 528 721 460 Q603 437 382 432 L382 412 Q382 204 556 204 Q629 204 684.5 231.5 Q740 259 808 330 L990 176 Z M405 614 Q612 614 702.5 648.5 Q793 683 793 763 Q793 814 759.5 843.5 Q726 873 668 873 Q478 873 405 614 Z M733 1546 Q794 1546 834.5 1506.5 Q875 1467 875 1406 Q875 1335 824.5 1284 Q774 1233 704 1233 Q643 1233 603.5 1273.5 Q564 1314 564 1376 Q564 1445 614 1495.5 Q664 1546 733 1546 Z " />
<glyph glyph-name="Eogonek" unicode="&#x118;" horiz-adv-x="1253" d="M1059 0 Q883 -118 883 -227 Q883 -285 948 -285 Q990 -285 1033 -248 L1096 -352 Q1017 -422 909 -422 Q814 -422 760.5 -378.5 Q707 -335 707 -258 Q707 -182 758 -115 Q809 -48 904 0 L60 0 L345 1464 L1309 1464 L1262 1214 L611 1214 L543 864 L1031 864 L984 626 L496 626 L425 250 L1107 250 L1059 0 Z " />
<glyph glyph-name="eogonek" unicode="&#x119;" horiz-adv-x="1131" d="M622 -18 Q551 -67 511 -122.5 Q471 -178 471 -227 Q471 -285 536 -285 Q579 -285 621 -248 L685 -352 Q606 -422 497 -422 Q402 -422 348.5 -378.5 Q295 -335 295 -258 Q295 -126 458 -18 Q341 -1 273 39 Q81 152 81 430 Q81 575 130 703 Q179 831 270 923 Q442 1098 696 1098 Q835 1098 931 1042 Q1078 958 1078 783 Q1078 528 721 460 Q603 437 382 432 L382 412 Q382 205 556 205 Q630 205 684 231.5 Q738 258 808 330 L990 176 Q846 8 622 -18 Z M405 614 Q612 614 702.5 648.5 Q793 683 793 763 Q793 814 759.5 843.5 Q726 873 668 873 Q478 873 405 614 Z " />
<glyph glyph-name="Ecaron" unicode="&#x11a;" horiz-adv-x="1253" d="M60 0 L345 1464 L1309 1464 L1262 1214 L611 1214 L543 864 L1031 864 L984 626 L496 626 L425 250 L1107 250 L1059 0 L60 0 Z M737 1587 L585 1935 L790 1935 L884 1790 L1036 1935 L1247 1935 L964 1587 L737 1587 Z " />
<glyph glyph-name="ecaron" unicode="&#x11b;" horiz-adv-x="1131" d="M990 176 Q897 72 789 24.5 Q681 -23 536 -23 Q306 -23 186 110 Q81 226 81 430 Q81 575 130 703 Q179 831 270 923 Q442 1098 696 1098 Q835 1098 931 1042 Q1078 958 1078 783 Q1078 528 721 460 Q603 437 382 432 L382 412 Q382 204 556 204 Q629 204 684.5 231.5 Q740 259 808 330 L990 176 Z M405 614 Q612 614 702.5 648.5 Q793 683 793 763 Q793 814 759.5 843.5 Q726 873 668 873 Q478 873 405 614 Z M583 1202 L430 1542 L635 1542 L729 1397 L881 1542 L1092 1542 L811 1202 L583 1202 Z " />
<glyph glyph-name="Gcircumflex" unicode="&#x11c;" horiz-adv-x="1554" d="M1121 226 Q1062 129 979 72 Q842 -23 666 -23 Q424 -23 280 141 Q130 311 130 609 Q130 894 258 1115 Q360 1293 527 1390 Q695 1487 906 1487 Q1188 1487 1339 1317 Q1381 1268 1405.5 1218 Q1430 1168 1457 1073 L1154 975 Q1132 1074 1100 1127 Q1034 1237 887 1237 Q676 1237 561 1031 Q460 850 460 604 Q460 223 751 223 Q896 223 991 312 Q1085 401 1107 543 L1111 570 L826 570 L871 797 L1465 797 L1312 0 L1142 0 L1121 226 Z M608 1587 L891 1935 L1118 1935 L1270 1587 L1065 1587 L970 1732 L819 1587 L608 1587 Z " />
<glyph glyph-name="gcircumflex" unicode="&#x11d;" horiz-adv-x="1145" d="M372 420 Q326 381 326 337 Q326 266 423 266 L576 266 Q729 266 806 238 Q991 170 991 -19 Q991 -133 930 -220 Q869 -307 754 -354 Q622 -409 425 -409 Q231 -409 107 -356 Q-58 -286 -58 -146 Q-58 12 167 82 Q75 141 75 237 Q75 378 268 475 Q147 569 147 714 Q147 895 301 1006 Q427 1098 607 1098 Q762 1098 884 1022 L1197 1091 L1152 868 L1007 868 Q1027 814 1027 754 Q1027 607 928 509 Q806 387 580 387 Q465 387 372 420 Z M323 35 Q223 -12 223 -94 Q223 -210 439 -210 Q698 -210 698 -66 Q698 35 554 35 L323 35 Z M608 913 Q527 913 476.5 856.5 Q426 800 426 708 Q426 638 465 598.5 Q504 559 575 559 Q655 559 704 617 Q753 675 753 769 Q753 838 715 875.5 Q677 913 608 913 Z M347 1202 L628 1542 L855 1542 L1009 1202 L804 1202 L709 1347 L558 1202 L347 1202 Z " />
<glyph glyph-name="Gbreve" unicode="&#x11e;" horiz-adv-x="1554" d="M1121 226 Q1062 129 979 72 Q842 -23 666 -23 Q424 -23 280 141 Q130 311 130 609 Q130 894 258 1115 Q360 1293 527 1390 Q695 1487 906 1487 Q1188 1487 1339 1317 Q1381 1268 1405.5 1218 Q1430 1168 1457 1073 L1154 975 Q1132 1074 1100 1127 Q1034 1237 887 1237 Q676 1237 561 1031 Q460 850 460 604 Q460 223 751 223 Q896 223 991 312 Q1085 401 1107 543 L1111 570 L826 570 L871 797 L1465 797 L1312 0 L1142 0 L1121 226 Z M1285 1882 Q1263 1776 1217 1713 Q1120 1581 947 1581 Q805 1581 726 1671 Q690 1713 675.5 1759 Q661 1805 660 1882 L859 1882 Q862 1776 961 1776 Q1058 1776 1086 1882 L1285 1882 Z " />
<glyph glyph-name="gbreve" unicode="&#x11f;" horiz-adv-x="1145" d="M372 420 Q326 381 326 337 Q326 266 423 266 L576 266 Q729 266 806 238 Q991 170 991 -19 Q991 -133 930 -220 Q869 -307 754 -354 Q622 -409 425 -409 Q231 -409 107 -356 Q-58 -286 -58 -146 Q-58 12 167 82 Q75 141 75 237 Q75 378 268 475 Q147 569 147 714 Q147 895 301 1006 Q427 1098 607 1098 Q762 1098 884 1022 L1197 1091 L1152 868 L1007 868 Q1027 814 1027 754 Q1027 607 928 509 Q806 387 580 387 Q465 387 372 420 Z M323 35 Q223 -12 223 -94 Q223 -210 439 -210 Q698 -210 698 -66 Q698 35 554 35 L323 35 Z M608 913 Q527 913 476.5 856.5 Q426 800 426 708 Q426 638 465 598.5 Q504 559 575 559 Q655 559 704 617 Q753 675 753 769 Q753 838 715 875.5 Q677 913 608 913 Z M993 1530 Q972 1423 926 1360 Q829 1228 655 1228 Q514 1228 435 1318 Q399 1360 384 1406.5 Q369 1453 369 1530 L567 1530 Q571 1423 670 1423 Q767 1423 795 1530 L993 1530 Z " />
<glyph glyph-name="Gdotaccent" unicode="&#x120;" horiz-adv-x="1554" d="M1121 226 Q1062 129 979 72 Q842 -23 666 -23 Q424 -23 280 141 Q130 311 130 609 Q130 894 258 1115 Q360 1293 527 1390 Q695 1487 906 1487 Q1188 1487 1339 1317 Q1381 1268 1405.5 1218 Q1430 1168 1457 1073 L1154 975 Q1132 1074 1100 1127 Q1034 1237 887 1237 Q676 1237 561 1031 Q460 850 460 604 Q460 223 751 223 Q896 223 991 312 Q1085 401 1107 543 L1111 570 L826 570 L871 797 L1465 797 L1312 0 L1142 0 L1121 226 Z M987 1890 Q1048 1890 1088.5 1850.5 Q1129 1811 1129 1750 Q1129 1679 1078.5 1628 Q1028 1577 958 1577 Q897 1577 857.5 1617.5 Q818 1658 818 1720 Q818 1789 868 1839.5 Q918 1890 987 1890 Z " />
<glyph glyph-name="gdotaccent" unicode="&#x121;" horiz-adv-x="1145" d="M372 420 Q326 381 326 337 Q326 266 423 266 L576 266 Q729 266 806 238 Q991 170 991 -19 Q991 -133 930 -220 Q869 -307 754 -354 Q622 -409 425 -409 Q231 -409 107 -356 Q-58 -286 -58 -146 Q-58 12 167 82 Q75 141 75 237 Q75 378 268 475 Q147 569 147 714 Q147 895 301 1006 Q427 1098 607 1098 Q762 1098 884 1022 L1197 1091 L1152 868 L1007 868 Q1027 814 1027 754 Q1027 607 928 509 Q806 387 580 387 Q465 387 372 420 Z M323 35 Q223 -12 223 -94 Q223 -210 439 -210 Q698 -210 698 -66 Q698 35 554 35 L323 35 Z M608 913 Q527 913 476.5 856.5 Q426 800 426 708 Q426 638 465 598.5 Q504 559 575 559 Q655 559 704 617 Q753 675 753 769 Q753 838 715 875.5 Q677 913 608 913 Z M698 1546 Q759 1546 799.5 1506.5 Q840 1467 840 1406 Q840 1335 789.5 1284 Q739 1233 669 1233 Q608 1233 568.5 1273.5 Q529 1314 529 1376 Q529 1445 579 1495.5 Q629 1546 698 1546 Z " />
<glyph glyph-name="Gcommaaccent" unicode="&#x122;" horiz-adv-x="1554" d="M1121 226 Q1062 129 979 72 Q842 -23 666 -23 Q424 -23 280 141 Q130 311 130 609 Q130 894 258 1115 Q360 1293 527 1390 Q695 1487 906 1487 Q1188 1487 1339 1317 Q1381 1268 1405.5 1218 Q1430 1168 1457 1073 L1154 975 Q1132 1074 1100 1127 Q1034 1237 887 1237 Q676 1237 561 1031 Q460 850 460 604 Q460 223 751 223 Q896 223 991 312 Q1085 401 1107 543 L1111 570 L826 570 L871 797 L1465 797 L1312 0 L1142 0 L1121 226 Z M436 -557 L461 -449 Q593 -426 614 -344 Q561 -338 529 -304 Q497 -270 497 -218 Q497 -159 538.5 -120.5 Q580 -82 643 -82 Q708 -82 748 -126.5 Q788 -171 788 -244 Q788 -382 694 -468 Q646 -512 588.5 -531.5 Q531 -551 436 -557 Z " />
<glyph glyph-name="gcommaaccent" unicode="&#x123;" horiz-adv-x="1145" d="M372 420 Q326 381 326 337 Q326 266 423 266 L576 266 Q729 266 806 238 Q991 170 991 -19 Q991 -133 930 -220 Q869 -307 754 -354 Q622 -409 425 -409 Q231 -409 107 -356 Q-58 -286 -58 -146 Q-58 12 167 82 Q75 141 75 237 Q75 378 268 475 Q147 569 147 714 Q147 895 301 1006 Q427 1098 607 1098 Q762 1098 884 1022 L1197 1091 L1152 868 L1007 868 Q1027 814 1027 754 Q1027 607 928 509 Q806 387 580 387 Q465 387 372 420 Z M323 35 Q223 -12 223 -94 Q223 -210 439 -210 Q698 -210 698 -66 Q698 35 554 35 L323 35 Z M608 913 Q527 913 476.5 856.5 Q426 800 426 708 Q426 638 465 598.5 Q504 559 575 559 Q655 559 704 617 Q753 675 753 769 Q753 838 715 875.5 Q677 913 608 913 Z M730 1426 Q785 1419 817 1385.5 Q849 1352 849 1302 Q849 1243 807 1204.5 Q765 1166 701 1166 Q637 1166 596.5 1210.5 Q556 1255 556 1325 Q556 1463 650 1549 Q699 1594 756.5 1614 Q814 1634 908 1641 L884 1530 Q750 1510 730 1426 Z " />
<glyph glyph-name="Hcircumflex" unicode="&#x124;" horiz-adv-x="1481" d="M60 0 L345 1464 L666 1464 L549 866 L1057 866 L1174 1464 L1496 1464 L1211 0 L889 0 L1010 606 L500 606 L382 0 L60 0 Z M613 1587 L896 1935 L1123 1935 L1275 1587 L1070 1587 L975 1732 L824 1587 L613 1587 Z " />
<glyph glyph-name="hcircumflex" unicode="&#x125;" horiz-adv-x="1208" d="M38 0 L337 1542 L640 1542 L518 905 Q647 1098 850 1098 Q977 1098 1047 1020.5 Q1117 943 1117 803 Q1117 743 1098 644 L976 0 L671 0 L792 631 Q804 693 804 723 Q804 848 686 848 Q600 848 541.5 785 Q483 722 460 604 L341 0 L38 0 Z M200 1648 L483 1996 L710 1996 L862 1648 L657 1648 L562 1793 L411 1648 L200 1648 Z " />
<glyph glyph-name="Hbar" unicode="&#x126;" horiz-adv-x="1475" d="M103 1061 L140 1239 L300 1239 L345 1464 L666 1464 L621 1239 L1129 1239 L1174 1464 L1496 1464 L1451 1239 L1629 1239 L1592 1061 L1416 1061 L1211 0 L889 0 L1010 606 L500 606 L382 0 L60 0 L265 1061 L103 1061 Z M549 866 L1057 866 L1094 1061 L586 1061 L549 866 Z " />
<glyph glyph-name="hbar" unicode="&#x127;" horiz-adv-x="1206" d="M151 1187 L188 1382 L306 1382 L337 1542 L640 1542 L609 1382 L849 1382 L812 1187 L573 1187 L513 881 Q570 973 631 1021 Q727 1097 854 1097 Q977 1097 1047 1018 Q1117 941 1117 805 Q1117 743 1105 680 L976 0 L671 0 L796 651 Q804 693 804 725 Q804 848 685 848 Q599 848 541 785 Q483 722 460 604 L341 0 L38 0 L267 1187 L151 1187 Z " />
<glyph glyph-name="Itilde" unicode="&#x128;" horiz-adv-x="670" d="M71 0 L356 1464 L675 1464 L390 0 L71 0 Z M974 1872 Q913 1581 719 1581 Q651 1581 563 1636 Q511 1669 483 1669 Q431 1669 405 1585 L237 1597 Q302 1888 487 1888 Q552 1888 638 1835 Q694 1800 723 1800 Q771 1800 798 1884 L974 1872 Z " />
<glyph glyph-name="itilde" unicode="&#x129;" horiz-adv-x="600" d="M46 0 L255 1071 L558 1071 L349 0 L46 0 Z M836 1524 Q775 1233 581 1233 Q512 1233 424 1288 Q373 1321 345 1321 Q293 1321 267 1237 L99 1249 Q126 1371 168 1434 Q237 1540 349 1540 Q414 1540 500 1487 Q557 1452 586 1452 Q632 1452 660 1536 L836 1524 Z " />
<glyph glyph-name="Imacron" unicode="&#x12a;" horiz-adv-x="670" d="M71 0 L356 1464 L675 1464 L390 0 L71 0 Z M282 1626 L323 1833 L839 1833 L800 1626 L282 1626 Z " />
<glyph glyph-name="imacron" unicode="&#x12b;" horiz-adv-x="600" d="M46 0 L255 1071 L558 1071 L349 0 L46 0 Z M169 1290 L210 1497 L726 1497 L687 1290 L169 1290 Z " />
<glyph glyph-name="Ibreve" unicode="&#x12c;" horiz-adv-x="670" d="M71 0 L356 1464 L675 1464 L390 0 L71 0 Z M210 1909 L411 1909 Q413 1849 427 1824 Q455 1776 537 1776 Q604 1776 638 1807 Q672 1838 682 1909 L882 1909 Q866 1780 821 1712 Q735 1580 537 1580 Q331 1580 251 1710 Q211 1775 210 1909 Z " />
<glyph glyph-name="ibreve" unicode="&#x12d;" horiz-adv-x="600" d="M46 0 L255 1071 L558 1071 L349 0 L46 0 Z M805 1530 Q784 1423 738 1360 Q641 1228 467 1228 Q326 1228 247 1318 Q210 1360 195.5 1406.5 Q181 1453 181 1530 L379 1530 Q383 1423 482 1423 Q579 1423 607 1530 L805 1530 Z " />
<glyph glyph-name="Iogonek" unicode="&#x12e;" horiz-adv-x="670" d="M372 -12 Q214 -121 214 -227 Q214 -285 279 -285 Q321 -285 364 -248 L427 -352 Q348 -422 240 -422 Q145 -422 91.5 -378.5 Q38 -335 38 -257 Q38 -182 89.5 -114.5 Q141 -47 235 0 L71 0 L355 1464 L675 1464 L372 -12 Z " />
<glyph glyph-name="iogonek" unicode="&#x12f;" horiz-adv-x="600" d="M349 0 Q173 -118 173 -227 Q173 -285 238 -285 Q280 -285 323 -248 L386 -352 Q307 -422 199 -422 Q104 -422 50.5 -378.5 Q-3 -335 -3 -258 Q-3 -182 48 -115 Q99 -48 194 0 L46 0 L255 1071 L558 1071 L349 0 Z M481 1556 Q550 1556 593.5 1514 Q637 1472 637 1406 Q637 1328 582.5 1274.5 Q528 1221 449 1221 Q381 1221 337 1263.5 Q293 1306 293 1371 Q293 1448 347.5 1502 Q402 1556 481 1556 Z " />
<glyph glyph-name="Idot" unicode="&#x130;" horiz-adv-x="670" d="M71 0 L356 1464 L675 1464 L390 0 L71 0 Z M581 1890 Q642 1890 682.5 1850.5 Q723 1811 723 1750 Q723 1679 672.5 1628 Q622 1577 552 1577 Q491 1577 451.5 1617.5 Q412 1658 412 1720 Q412 1789 462 1839.5 Q512 1890 581 1890 Z " />
<glyph glyph-name="IJ" unicode="&#x132;" horiz-adv-x="1784" d="M85 0 L370 1464 L689 1464 L404 0 L85 0 Z M1818 1464 L1617 432 Q1571 197 1415 78 Q1281 -23 1075 -23 Q841 -23 723 106 Q628 210 628 378 Q628 452 640 504 L651 547 L958 547 L950 502 Q939 444 939 403 Q939 231 1092 231 Q1183 231 1231.5 286 Q1280 341 1306 471 L1500 1464 L1818 1464 Z " />
<glyph glyph-name="ij" unicode="&#x133;" horiz-adv-x="1162" d="M46 0 L255 1071 L558 1071 L349 0 L46 0 Z M481 1556 Q550 1556 593.5 1514 Q637 1472 637 1406 Q637 1328 582.5 1274.5 Q528 1221 449 1221 Q381 1221 337 1263.5 Q293 1306 293 1371 Q293 1448 347.5 1502 Q402 1556 481 1556 Z M1024 1071 L800 -72 Q738 -391 435 -391 Q309 -391 233 -336 L319 -119 Q362 -141 399 -141 Q484 -141 505 -33 L720 1071 L1024 1071 Z M947 1556 Q1016 1556 1059.5 1514 Q1103 1472 1103 1406 Q1103 1328 1048.5 1274.5 Q994 1221 915 1221 Q847 1221 803 1263.5 Q759 1306 759 1371 Q759 1448 814 1502 Q869 1556 947 1556 Z " />
<glyph glyph-name="Jcircumflex" unicode="&#x134;" horiz-adv-x="1237" d="M1271 1464 L1070 432 Q1024 197 868 78 Q734 -23 528 -23 Q294 -23 176 106 Q81 210 81 378 Q81 452 93 504 L104 547 L411 547 L403 502 Q392 444 392 403 Q392 231 545 231 Q636 231 684.5 286 Q733 341 759 471 L953 1464 L1271 1464 Z M758 1587 L1041 1935 L1268 1935 L1420 1587 L1215 1587 L1120 1732 L969 1587 L758 1587 Z " />
<glyph glyph-name="jcircumflex" unicode="&#x135;" horiz-adv-x="600" d="M563 1071 L339 -72 Q277 -391 -26 -391 Q-152 -391 -228 -336 L-142 -119 Q-99 -141 -62 -141 Q23 -141 44 -33 L259 1071 L563 1071 Z M93 1202 L374 1542 L601 1542 L755 1202 L550 1202 L455 1347 L304 1202 L93 1202 Z " />
<glyph glyph-name="Kcommaaccent" unicode="&#x136;" horiz-adv-x="1401" d="M60 0 L345 1464 L664 1464 L539 827 L1133 1464 L1492 1464 L881 835 L1244 0 L904 0 L635 606 L463 436 L379 0 L60 0 Z M413 -557 L438 -449 Q570 -426 591 -344 Q538 -338 506 -304 Q474 -270 474 -218 Q474 -159 515.5 -120.5 Q557 -82 620 -82 Q685 -82 725 -126.5 Q765 -171 765 -244 Q765 -382 671 -468 Q623 -512 565.5 -531.5 Q508 -551 413 -557 Z " />
<glyph glyph-name="kcommaaccent" unicode="&#x137;" horiz-adv-x="1165" d="M704 0 L530 430 L400 303 L341 0 L38 0 L337 1542 L640 1542 L470 664 L861 1071 L1197 1071 L761 641 L1023 0 L704 0 Z M266 -557 L291 -449 Q423 -426 444 -344 Q391 -338 359 -304 Q327 -270 327 -218 Q327 -159 368.5 -120.5 Q410 -82 473 -82 Q538 -82 578 -126.5 Q618 -171 618 -244 Q618 -382 524 -468 Q476 -512 418.5 -531.5 Q361 -551 266 -557 Z " />
<glyph glyph-name="kgreenlandic" unicode="&#x138;" horiz-adv-x="1373" d="M42 0 L291 1071 L592 1071 L491 644 L970 1071 L1318 1071 L777 607 L1092 0 L771 0 L546 420 L416 310 L343 0 L42 0 Z " />
<glyph glyph-name="Lacute" unicode="&#x139;" horiz-adv-x="1186" d="M60 0 L345 1464 L664 1464 L429 256 L1045 256 L994 0 L60 0 Z M425 1579 L564 1935 L919 1935 L644 1579 L425 1579 Z " />
<glyph glyph-name="lacute" unicode="&#x13a;" horiz-adv-x="602" d="M45 0 L344 1542 L649 1542 L350 0 L45 0 Z M400 1622 L539 1978 L893 1978 L619 1622 L400 1622 Z " />
<glyph glyph-name="Lcommaaccent" unicode="&#x13b;" horiz-adv-x="1186" d="M60 0 L345 1464 L664 1464 L429 256 L1045 256 L994 0 L60 0 Z M282 -557 L307 -449 Q439 -426 460 -344 Q407 -338 375 -304 Q343 -270 343 -218 Q343 -159 384.5 -120.5 Q426 -82 489 -82 Q554 -82 594 -126.5 Q634 -171 634 -244 Q634 -382 540 -468 Q492 -512 434.5 -531.5 Q377 -551 282 -557 Z " />
<glyph glyph-name="lcommaaccent" unicode="&#x13c;" horiz-adv-x="602" d="M44 0 L343 1542 L648 1542 L349 0 L44 0 Z M-46 -557 L-21 -449 Q111 -426 132 -344 Q79 -338 47 -304 Q15 -270 15 -218 Q15 -159 56.5 -120.5 Q98 -82 161 -82 Q226 -82 266 -126.5 Q306 -171 306 -244 Q306 -382 212 -468 Q164 -512 106.5 -531.5 Q49 -551 -46 -557 Z " />
<glyph glyph-name="Lcaron" unicode="&#x13d;" horiz-adv-x="1186" d="M60 0 L345 1464 L664 1464 L429 256 L1045 256 L994 0 L60 0 Z M730 1083 L755 1192 Q887 1215 908 1296 Q854 1303 822.5 1336.5 Q791 1370 791 1422 Q791 1481 832.5 1519.5 Q874 1558 937 1558 Q1002 1558 1042 1513.5 Q1082 1469 1082 1396 Q1082 1258 988 1172 Q940 1129 882.5 1109 Q825 1089 730 1083 Z " />
<glyph glyph-name="lcaron" unicode="&#x13e;" horiz-adv-x="773" d="M45 0 L344 1542 L649 1542 L350 0 L45 0 Z M645 1083 L670 1191 Q802 1214 823 1296 Q770 1302 738 1336 Q706 1370 706 1422 Q706 1480 747.5 1519 Q789 1558 852 1558 Q917 1558 957 1513.5 Q997 1469 997 1396 Q997 1258 903 1172 Q855 1128 797.5 1108 Q740 1088 645 1083 Z " />
<glyph glyph-name="Ldot" unicode="&#x13f;" horiz-adv-x="1186" d="M60 0 L345 1464 L664 1464 L429 256 L1045 256 L994 0 L60 0 Z M882 858 Q955 858 1005 808.5 Q1055 759 1055 686 Q1055 599 993.5 539 Q932 479 844 479 Q771 479 722.5 527.5 Q674 576 674 648 Q674 735 735 796.5 Q796 858 882 858 Z " />
<glyph glyph-name="ldot" unicode="&#x140;" horiz-adv-x="751" d="M45 0 L344 1542 L649 1542 L350 0 L45 0 Z M848 858 Q921 858 971 808.5 Q1021 759 1021 686 Q1021 599 959.5 539 Q898 479 810 479 Q737 479 688.5 527.5 Q640 576 640 648 Q640 735 701 796.5 Q762 858 848 858 Z " />
<glyph glyph-name="Lslash" unicode="&#x141;" horiz-adv-x="1210" d="M40 483 L87 721 L239 768 L374 1464 L695 1464 L581 878 L929 989 L884 749 L536 639 L462 256 L1076 256 L1027 0 L89 0 L192 530 L40 483 Z " />
<glyph glyph-name="lslash" unicode="&#x142;" horiz-adv-x="692" d="M50 502 L101 758 L253 823 L392 1542 L697 1542 L587 971 L761 1048 L712 790 L535 713 L398 0 L93 0 L204 567 L50 502 Z " />
<glyph glyph-name="Nacute" unicode="&#x143;" horiz-adv-x="1495" d="M60 0 L345 1464 L693 1464 L1025 459 L1221 1464 L1510 1464 L1225 0 L889 0 L549 1024 L349 0 L60 0 Z M839 1579 L978 1935 L1333 1935 L1058 1579 L839 1579 Z " />
<glyph glyph-name="nacute" unicode="&#x144;" horiz-adv-x="1208" d="M38 0 L247 1071 L550 1071 L518 905 Q574 988 633 1030 Q728 1098 852 1098 Q977 1098 1047 1019 Q1117 941 1117 805 Q1117 743 1105 680 L976 0 L671 0 L796 651 Q804 694 804 723 Q804 848 685 848 Q600 848 541.5 785 Q483 722 460 604 L341 0 L38 0 Z M617 1202 L753 1542 L1107 1542 L836 1202 L617 1202 Z " />
<glyph glyph-name="Ncommaaccent" unicode="&#x145;" horiz-adv-x="1495" d="M60 0 L345 1464 L693 1464 L1025 459 L1221 1464 L1510 1464 L1225 0 L889 0 L549 1024 L349 0 L60 0 Z M436 -557 L461 -449 Q593 -426 614 -344 Q561 -338 529 -304 Q497 -270 497 -218 Q497 -159 538.5 -120.5 Q580 -82 643 -82 Q708 -82 748 -126.5 Q788 -171 788 -244 Q788 -382 694 -468 Q646 -512 588.5 -531.5 Q531 -551 436 -557 Z " />
<glyph glyph-name="ncommaaccent" unicode="&#x146;" horiz-adv-x="1208" d="M38 0 L247 1071 L550 1071 L518 905 Q574 988 633 1030 Q728 1098 852 1098 Q977 1098 1047 1019 Q1117 941 1117 805 Q1117 743 1105 680 L976 0 L671 0 L796 651 Q804 694 804 723 Q804 848 685 848 Q600 848 541.5 785 Q483 722 460 604 L341 0 L38 0 Z M269 -557 L294 -449 Q426 -426 447 -344 Q394 -338 362 -304 Q330 -270 330 -218 Q330 -159 371.5 -120.5 Q413 -82 476 -82 Q541 -82 581 -126.5 Q621 -171 621 -244 Q621 -382 527 -468 Q479 -512 421.5 -531.5 Q364 -551 269 -557 Z " />
<glyph glyph-name="Ncaron" unicode="&#x147;" horiz-adv-x="1495" d="M60 0 L345 1464 L693 1464 L1025 459 L1221 1464 L1510 1464 L1225 0 L889 0 L549 1024 L349 0 L60 0 Z M852 1587 L700 1935 L905 1935 L999 1790 L1151 1935 L1362 1935 L1079 1587 L852 1587 Z " />
<glyph glyph-name="ncaron" unicode="&#x148;" horiz-adv-x="1208" d="M38 0 L247 1071 L550 1071 L518 905 Q574 988 633 1030 Q728 1098 852 1098 Q977 1098 1047 1019 Q1117 941 1117 805 Q1117 743 1105 680 L976 0 L671 0 L796 651 Q804 694 804 723 Q804 848 685 848 Q600 848 541.5 785 Q483 722 460 604 L341 0 L38 0 Z M622 1202 L469 1542 L674 1542 L768 1397 L920 1542 L1131 1542 L850 1202 L622 1202 Z " />
<glyph glyph-name="napostrophe" unicode="&#x149;" horiz-adv-x="1208" d="M38 0 L247 1071 L550 1071 L518 905 Q574 988 633 1030 Q728 1098 852 1098 Q977 1098 1047 1019 Q1117 941 1117 805 Q1117 743 1105 680 L976 0 L671 0 L796 651 Q804 694 804 723 Q804 848 685 848 Q600 848 541.5 785 Q483 722 460 604 L341 0 L38 0 Z M-149 1024 L-124 1132 Q8 1155 29 1237 Q-24 1243 -56 1277 Q-88 1311 -88 1363 Q-88 1421 -46.5 1460 Q-5 1499 58 1499 Q123 1499 163 1454.5 Q203 1410 203 1337 Q203 1199 109 1113 Q61 1069 3.5 1049 Q-54 1029 -149 1024 Z " />
<glyph glyph-name="Eng" unicode="&#x14a;" horiz-adv-x="1208" d="M545 -140 Q551 -141 560 -141 Q648 -141 668 -33 L796 651 Q804 695 804 723 Q804 848 685 848 Q600 848 541.5 785 Q483 722 460 604 L341 0 L38 0 L247 1071 L550 1071 L518 905 Q574 988 633 1030 Q728 1098 852 1098 Q977 1098 1047 1019 Q1117 941 1117 805 Q1117 743 1105 680 L961 -72 Q900 -391 598 -391 Q523 -391 476 -375 L545 -140 Z " />
<glyph glyph-name="eng" unicode="&#x14b;" horiz-adv-x="1208" d="M574 1300 Q644 1403 724.5 1448 Q805 1493 922 1493 Q1056 1493 1126 1414 Q1196 1336 1196 1200 Q1196 1137 1184 1075 L961 -72 Q899 -391 598 -391 Q522 -391 475 -375 L545 -140 Q550 -141 560 -141 Q644 -141 665 -33 L874 1044 Q874 1046 876 1053 Q882 1074 882 1116 Q882 1243 738 1243 Q655 1243 597 1179.5 Q539 1116 516 999 L318 0 L15 0 L303 1466 L606 1466 L574 1300 Z " />
<glyph glyph-name="Omacron" unicode="&#x14c;" horiz-adv-x="1554" d="M879 1487 Q1184 1487 1355 1291 Q1505 1120 1505 839 Q1505 566 1376 345 Q1274 168 1109 72 Q945 -23 736 -23 Q465 -23 299 144 Q127 317 127 622 Q127 833 203 1022 Q291 1238 477 1367 Q649 1487 879 1487 Z M882 1235 Q700 1235 587 1073 Q527 987 493 862 Q459 737 459 603 Q459 422 536.5 325.5 Q614 229 761 229 Q892 229 991 324 Q1081 411 1130 567 Q1173 704 1173 860 Q1173 1074 1073 1167 Q1000 1235 882 1235 Z M681 1626 L722 1833 L1238 1833 L1199 1626 L681 1626 Z " />
<glyph glyph-name="omacron" unicode="&#x14d;" horiz-adv-x="1196" d="M645 1098 Q863 1098 991 964 Q1119 829 1119 605 Q1119 464 1070.5 339 Q1022 214 933 128 Q777 -23 546 -23 Q333 -23 205 111 Q77 246 77 477 Q77 613 126 738 Q175 863 262 949 Q412 1098 645 1098 Z M641 873 Q506 873 436 703 Q386 581 386 434 Q386 202 557 202 Q694 202 763 379 Q810 500 810 644 Q810 756 768 813 Q723 873 641 873 Z M443 1290 L484 1497 L1000 1497 L961 1290 L443 1290 Z " />
<glyph glyph-name="Obreve" unicode="&#x14e;" horiz-adv-x="1554" d="M879 1487 Q1184 1487 1355 1291 Q1505 1120 1505 839 Q1505 566 1376 345 Q1274 168 1109 72 Q945 -23 736 -23 Q465 -23 299 144 Q127 317 127 622 Q127 833 203 1022 Q291 1238 477 1367 Q649 1487 879 1487 Z M882 1235 Q700 1235 587 1073 Q527 987 493 862 Q459 737 459 603 Q459 422 536.5 325.5 Q614 229 761 229 Q892 229 991 324 Q1081 411 1130 567 Q1173 704 1173 860 Q1173 1074 1073 1167 Q1000 1235 882 1235 Z M745 1909 L946 1909 Q948 1849 962 1824 Q990 1776 1072 1776 Q1139 1776 1173 1807 Q1207 1838 1217 1909 L1417 1909 Q1401 1780 1356 1712 Q1270 1580 1072 1580 Q866 1580 786 1710 Q746 1775 745 1909 Z " />
<glyph glyph-name="obreve" unicode="&#x14f;" horiz-adv-x="1196" d="M645 1098 Q863 1098 991 964 Q1119 829 1119 605 Q1119 464 1070.5 339 Q1022 214 933 128 Q777 -23 546 -23 Q333 -23 205 111 Q77 246 77 477 Q77 613 126 738 Q175 863 262 949 Q412 1098 645 1098 Z M641 873 Q506 873 436 703 Q386 581 386 434 Q386 202 557 202 Q694 202 763 379 Q810 500 810 644 Q810 756 768 813 Q723 873 641 873 Z M473 1530 L674 1530 Q673 1458 697.5 1427.5 Q722 1397 780 1397 Q889 1397 904 1530 L1104 1530 Q1090 1404 1047 1333 Q966 1201 780 1201 Q592 1201 516 1323 Q474 1392 473 1530 Z " />
<glyph glyph-name="Ohungarumlaut" unicode="&#x150;" horiz-adv-x="1554" d="M879 1487 Q1184 1487 1355 1291 Q1505 1120 1505 839 Q1505 566 1376 345 Q1274 168 1109 72 Q945 -23 736 -23 Q465 -23 299 144 Q127 317 127 622 Q127 833 203 1022 Q291 1238 477 1367 Q649 1487 879 1487 Z M882 1235 Q700 1235 587 1073 Q527 987 493 862 Q459 737 459 603 Q459 422 536.5 325.5 Q614 229 761 229 Q892 229 991 324 Q1081 411 1130 567 Q1173 704 1173 860 Q1173 1074 1073 1167 Q1000 1235 882 1235 Z M999 1579 L1120 1935 L1415 1935 L1206 1579 L999 1579 Z M616 1579 L739 1935 L1034 1935 L823 1579 L616 1579 Z " />
<glyph glyph-name="ohungarumlaut" unicode="&#x151;" horiz-adv-x="1196" d="M645 1098 Q863 1098 991 964 Q1119 829 1119 605 Q1119 464 1070.5 339 Q1022 214 933 128 Q777 -23 546 -23 Q333 -23 205 111 Q77 246 77 477 Q77 613 126 738 Q175 863 262 949 Q412 1098 645 1098 Z M641 873 Q506 873 436 703 Q386 581 386 434 Q386 202 557 202 Q694 202 763 379 Q810 500 810 644 Q810 756 768 813 Q723 873 641 873 Z M758 1186 L879 1542 L1174 1542 L965 1186 L758 1186 Z M375 1186 L498 1542 L793 1542 L582 1186 L375 1186 Z " />
<glyph glyph-name="Racute" unicode="&#x154;" horiz-adv-x="1415" d="M60 0 L345 1464 L866 1464 Q1096 1464 1205 1394 Q1367 1290 1367 1080 Q1367 915 1275 811 Q1229 760 1170 729.5 Q1111 699 1008 674 Q1103 641 1145 582 Q1172 544 1183 498 Q1194 452 1200 349 Q1218 58 1260 8 L1260 0 L943 0 Q901 92 891 361 Q886 473 838 520.5 Q790 568 681 568 L490 568 L379 0 L60 0 Z M535 801 L783 801 Q926 801 993 876 Q1049 938 1049 1043 Q1049 1216 842 1216 L615 1216 L535 801 Z M709 1579 L848 1935 L1203 1935 L928 1579 L709 1579 Z " />
<glyph glyph-name="racute" unicode="&#x155;" horiz-adv-x="889" d="M38 0 L247 1071 L550 1071 L509 864 Q575 985 645.5 1039.5 Q716 1094 806 1094 Q887 1094 947 1050 L847 774 Q786 813 721 813 Q616 813 545 741.5 Q474 670 448 539 L341 0 L38 0 Z M457 1202 L593 1542 L947 1542 L676 1202 L457 1202 Z " />
<glyph glyph-name="Rcommaaccent" unicode="&#x156;" horiz-adv-x="1415" d="M60 0 L345 1464 L866 1464 Q1096 1464 1205 1394 Q1367 1290 1367 1080 Q1367 915 1275 811 Q1229 760 1170 729.5 Q1111 699 1008 674 Q1103 641 1145 582 Q1172 544 1183 498 Q1194 452 1200 349 Q1218 58 1260 8 L1260 0 L943 0 Q901 92 891 361 Q886 473 838 520.5 Q790 568 681 568 L490 568 L379 0 L60 0 Z M535 801 L783 801 Q926 801 993 876 Q1049 938 1049 1043 Q1049 1216 842 1216 L615 1216 L535 801 Z M433 -557 L458 -449 Q590 -426 611 -344 Q558 -338 526 -304 Q494 -270 494 -218 Q494 -159 535.5 -120.5 Q577 -82 640 -82 Q705 -82 745 -126.5 Q785 -171 785 -244 Q785 -382 691 -468 Q643 -512 585.5 -531.5 Q528 -551 433 -557 Z " />
<glyph glyph-name="rcommaaccent" unicode="&#x157;" horiz-adv-x="889" d="M38 0 L247 1071 L550 1071 L509 864 Q575 985 645.5 1039.5 Q716 1094 806 1094 Q887 1094 947 1050 L847 774 Q786 813 721 813 Q616 813 545 741.5 Q474 670 448 539 L341 0 L38 0 Z M-47 -557 L-22 -449 Q110 -426 131 -344 Q78 -338 46 -304 Q14 -270 14 -218 Q14 -159 55.5 -120.5 Q97 -82 160 -82 Q225 -82 265 -126.5 Q305 -171 305 -244 Q305 -382 211 -468 Q163 -512 105.5 -531.5 Q48 -551 -47 -557 Z " />
<glyph glyph-name="Rcaron" unicode="&#x158;" horiz-adv-x="1415" d="M60 0 L345 1464 L866 1464 Q1096 1464 1205 1394 Q1367 1290 1367 1080 Q1367 915 1275 811 Q1229 760 1170 729.5 Q1111 699 1008 674 Q1103 641 1145 582 Q1172 544 1183 498 Q1194 452 1200 349 Q1218 58 1260 8 L1260 0 L943 0 Q901 92 891 361 Q886 473 838 520.5 Q790 568 681 568 L490 568 L379 0 L60 0 Z M535 801 L783 801 Q926 801 993 876 Q1049 938 1049 1043 Q1049 1216 842 1216 L615 1216 L535 801 Z M722 1587 L570 1935 L775 1935 L869 1790 L1021 1935 L1232 1935 L949 1587 L722 1587 Z " />
<glyph glyph-name="rcaron" unicode="&#x159;" horiz-adv-x="889" d="M38 0 L247 1071 L550 1071 L509 864 Q575 985 645.5 1039.5 Q716 1094 806 1094 Q887 1094 947 1050 L847 774 Q786 813 721 813 Q616 813 545 741.5 Q474 670 448 539 L341 0 L38 0 Z M492 1202 L339 1542 L544 1542 L638 1397 L790 1542 L1001 1542 L720 1202 L492 1202 Z " />
<glyph glyph-name="Sacute" unicode="&#x15a;" horiz-adv-x="1249" d="M970 1054 Q938 1131 901 1169 Q835 1237 708 1237 Q608 1237 554 1195 Q500 1153 500 1076 Q500 1007 549.5 968.5 Q599 930 762 872 Q949 807 1033 733 Q1156 627 1156 446 Q1156 241 1013 113 Q860 -23 583 -23 Q119 -23 1 360 L296 463 Q318 382 350 337 Q428 227 599 227 Q693 227 754 262 Q834 308 834 403 Q834 474 784.5 514.5 Q735 555 582 610 Q391 679 307 755 Q191 860 191 1036 Q191 1222 311 1342 Q456 1487 721 1487 Q1127 1487 1248 1163 L970 1054 Z M656 1579 L795 1935 L1150 1935 L875 1579 L656 1579 Z " />
<glyph glyph-name="sacute" unicode="&#x15b;" horiz-adv-x="1032" d="M820 754 Q767 814 696.5 847.5 Q626 881 554 881 Q433 881 433 790 Q433 746 463.5 723 Q494 700 601 662 Q747 609 821 544 Q910 464 910 334 Q910 167 791.5 72 Q673 -23 466 -23 Q147 -23 -14 172 L152 356 Q273 198 458 198 Q607 198 607 296 Q607 344 561 372 Q533 388 419 430 Q144 529 144 750 Q144 944 302 1036 Q409 1098 571 1098 Q705 1098 804.5 1058 Q904 1018 992 930 L820 754 Z M498 1202 L634 1542 L988 1542 L717 1202 L498 1202 Z " />
<glyph glyph-name="Scircumflex" unicode="&#x15c;" horiz-adv-x="1249" d="M970 1054 Q938 1131 901 1169 Q835 1237 708 1237 Q608 1237 554 1195 Q500 1153 500 1076 Q500 1007 549.5 968.5 Q599 930 762 872 Q949 807 1033 733 Q1156 627 1156 446 Q1156 241 1013 113 Q860 -23 583 -23 Q119 -23 1 360 L296 463 Q318 382 350 337 Q428 227 599 227 Q693 227 754 262 Q834 308 834 403 Q834 474 784.5 514.5 Q735 555 582 610 Q391 679 307 755 Q191 860 191 1036 Q191 1222 311 1342 Q456 1487 721 1487 Q1127 1487 1248 1163 L970 1054 Z M456 1587 L739 1935 L966 1935 L1118 1587 L913 1587 L818 1732 L667 1587 L456 1587 Z " />
<glyph glyph-name="scircumflex" unicode="&#x15d;" horiz-adv-x="1032" d="M820 754 Q767 814 696.5 847.5 Q626 881 554 881 Q433 881 433 790 Q433 746 463.5 723 Q494 700 601 662 Q747 609 821 544 Q910 464 910 334 Q910 167 791.5 72 Q673 -23 466 -23 Q147 -23 -14 172 L152 356 Q273 198 458 198 Q607 198 607 296 Q607 344 561 372 Q533 388 419 430 Q144 529 144 750 Q144 944 302 1036 Q409 1098 571 1098 Q705 1098 804.5 1058 Q904 1018 992 930 L820 754 Z M302 1202 L583 1542 L810 1542 L964 1202 L759 1202 L664 1347 L513 1202 L302 1202 Z " />
<glyph glyph-name="Scedilla" unicode="&#x15e;" horiz-adv-x="1249" d="M622 -22 L545 -109 Q569 -105 581 -105 Q644 -105 684.5 -148.5 Q725 -192 725 -260 Q725 -352 664 -405.5 Q603 -459 498 -459 Q345 -459 280 -344 L405 -285 Q435 -336 493 -336 Q528 -336 549.5 -316.5 Q571 -297 571 -265 Q571 -237 554 -220 Q537 -203 508 -203 Q473 -203 444 -236 L366 -176 L495 -18 Q106 19 1 360 L296 463 Q318 382 350 337 Q428 227 599 227 Q693 227 754 262 Q834 308 834 403 Q834 474 784.5 514.5 Q735 555 582 610 Q391 679 307 755 Q191 860 191 1036 Q191 1222 311 1342 Q456 1487 721 1487 Q1127 1487 1248 1163 L970 1054 Q938 1132 901 1169 Q834 1237 708 1237 Q608 1237 554 1195 Q500 1153 500 1076 Q500 1007 550 968.5 Q600 930 762 872 Q949 807 1033 733 Q1156 627 1156 446 Q1156 317 1099 218 Q1035 108 912.5 46.5 Q790 -15 622 -22 Z " />
<glyph glyph-name="scedilla" unicode="&#x15f;" horiz-adv-x="1032" d="M507 -22 L429 -109 Q454 -105 466 -105 Q529 -105 569.5 -148.5 Q610 -192 610 -260 Q610 -352 548.5 -405.5 Q487 -459 383 -459 Q230 -459 165 -344 L290 -285 Q320 -336 378 -336 Q413 -336 434.5 -316 Q456 -296 456 -264 Q456 -236 439 -219 Q422 -202 393 -202 Q358 -202 329 -236 L251 -176 L380 -19 Q123 6 -14 172 L152 356 Q273 199 458 199 Q607 199 607 297 Q607 345 561 372 Q533 389 419 430 Q144 529 144 750 Q144 944 302 1036 Q409 1098 571 1098 Q705 1098 803.5 1058.5 Q902 1019 992 930 L820 754 Q767 814 696.5 847.5 Q626 881 554 881 Q433 881 433 790 Q433 746 463 723 Q493 700 601 662 Q748 609 821 544 Q910 464 910 334 Q910 176 803.5 82 Q697 -12 507 -22 Z " />
<glyph glyph-name="Scaron" unicode="&#x160;" horiz-adv-x="1249" d="M970 1054 Q938 1131 901 1169 Q835 1237 708 1237 Q608 1237 554 1195 Q500 1153 500 1076 Q500 1007 549.5 968.5 Q599 930 762 872 Q949 807 1033 733 Q1156 627 1156 446 Q1156 241 1013 113 Q860 -23 583 -23 Q119 -23 1 360 L296 463 Q318 382 350 337 Q428 227 599 227 Q693 227 754 262 Q834 308 834 403 Q834 474 784.5 514.5 Q735 555 582 610 Q391 679 307 755 Q191 860 191 1036 Q191 1222 311 1342 Q456 1487 721 1487 Q1127 1487 1248 1163 L970 1054 Z M675 1587 L523 1935 L728 1935 L822 1790 L974 1935 L1185 1935 L902 1587 L675 1587 Z " />
<glyph glyph-name="scaron" unicode="&#x161;" horiz-adv-x="1032" d="M820 754 Q767 814 696.5 847.5 Q626 881 554 881 Q433 881 433 790 Q433 746 463.5 723 Q494 700 601 662 Q747 609 821 544 Q910 464 910 334 Q910 167 791.5 72 Q673 -23 466 -23 Q147 -23 -14 172 L152 356 Q273 198 458 198 Q607 198 607 296 Q607 344 561 372 Q533 388 419 430 Q144 529 144 750 Q144 944 302 1036 Q409 1098 571 1098 Q705 1098 804.5 1058 Q904 1018 992 930 L820 754 Z M515 1202 L362 1542 L567 1542 L661 1397 L813 1542 L1024 1542 L743 1202 L515 1202 Z " />
<glyph glyph-name="Tcommaaccent" unicode="&#x162;" horiz-adv-x="1266" d="M371 0 L606 1214 L213 1214 L262 1464 L1365 1464 L1317 1214 L924 1214 L690 0 L371 0 Z M292 -557 L317 -449 Q449 -426 470 -344 Q417 -338 385 -304 Q353 -270 353 -218 Q353 -159 394.5 -120.5 Q436 -82 499 -82 Q564 -82 604 -126.5 Q644 -171 644 -244 Q644 -382 550 -468 Q502 -512 444.5 -531.5 Q387 -551 292 -557 Z " />
<glyph glyph-name="tcommaaccent" unicode="&#x163;" horiz-adv-x="819" d="M116 840 L161 1071 L302 1071 L345 1288 L669 1395 L605 1071 L821 1071 L775 840 L560 840 L470 363 Q464 332 464 309 Q464 229 538 229 Q581 229 640 258 L702 47 Q591 -23 436 -23 Q287 -23 212 60 Q151 127 151 242 Q151 286 159 328 L257 840 L116 840 Z M123 -557 L148 -449 Q280 -426 301 -344 Q248 -338 216 -304 Q184 -270 184 -218 Q184 -159 225.5 -120.5 Q267 -82 330 -82 Q395 -82 435 -126.5 Q475 -171 475 -244 Q475 -382 381 -468 Q333 -512 275.5 -531.5 Q218 -551 123 -557 Z " />
<glyph glyph-name="Tcaron" unicode="&#x164;" horiz-adv-x="1266" d="M371 0 L606 1214 L213 1214 L262 1464 L1365 1464 L1317 1214 L924 1214 L690 0 L371 0 Z M714 1587 L562 1935 L767 1935 L861 1790 L1013 1935 L1224 1935 L941 1587 L714 1587 Z " />
<glyph glyph-name="tcaron" unicode="&#x165;" horiz-adv-x="912" d="M116 840 L161 1071 L302 1071 L345 1288 L669 1395 L605 1071 L821 1071 L775 840 L560 840 L470 363 Q464 332 464 309 Q464 229 538 229 Q581 229 640 258 L702 47 Q591 -23 436 -23 Q287 -23 212 60 Q151 127 151 242 Q151 286 159 328 L257 840 L116 840 Z M783 1174 L808 1282 Q940 1305 961 1387 Q908 1393 876 1427 Q844 1461 844 1513 Q844 1571 885.5 1610 Q927 1649 990 1649 Q1055 1649 1095 1604.5 Q1135 1560 1135 1487 Q1135 1349 1041 1263 Q993 1219 935.5 1199 Q878 1179 783 1174 Z " />
<glyph glyph-name="Tbar" unicode="&#x166;" horiz-adv-x="1266" d="M473 527 L253 527 L307 803 L526 803 L606 1214 L213 1214 L262 1464 L1365 1464 L1317 1214 L924 1214 L844 803 L1078 803 L1024 527 L791 527 L690 0 L371 0 L473 527 Z " />
<glyph glyph-name="tbar" unicode="&#x167;" horiz-adv-x="819" d="M545 762 L758 762 L714 533 L501 533 L469 363 Q463 330 463 309 Q463 229 537 229 Q580 229 640 258 L701 47 Q592 -23 435 -23 Q286 -23 211 60 Q150 127 150 243 Q150 284 158 328 L198 533 L55 533 L99 762 L242 762 L257 840 L115 840 L161 1071 L302 1071 L345 1288 L668 1395 L605 1071 L820 1071 L775 840 L560 840 L545 762 Z " />
<glyph glyph-name="Utilde" unicode="&#x168;" horiz-adv-x="1481" d="M1509 1464 L1332 548 Q1284 301 1188 176 Q1037 -23 699 -23 Q404 -23 264 132 Q155 252 155 453 Q155 532 173 627 L337 1464 L659 1464 L493 616 Q477 535 477 462 Q477 233 712 233 Q799 233 856.5 263.5 Q914 294 952 360 Q993 430 1018 558 L1193 1464 L1509 1464 Z M1433 1872 Q1372 1581 1178 1581 Q1110 1581 1022 1636 Q970 1669 942 1669 Q890 1669 864 1585 L696 1597 Q761 1888 946 1888 Q1011 1888 1097 1835 Q1153 1800 1182 1800 Q1230 1800 1257 1884 L1433 1872 Z " />
<glyph glyph-name="utilde" unicode="&#x169;" horiz-adv-x="1198" d="M682 156 Q613 60 535.5 16.5 Q458 -27 357 -27 Q233 -27 163 50.5 Q93 128 93 266 Q93 329 108 406 L238 1071 L542 1071 L417 438 Q404 373 404 337 Q404 215 520 215 Q691 215 740 461 L861 1071 L1164 1071 L955 0 L652 0 L682 156 Z M1162 1524 Q1101 1233 907 1233 Q838 1233 750 1288 Q699 1321 671 1321 Q619 1321 593 1237 L425 1249 Q452 1371 494 1434 Q563 1540 675 1540 Q740 1540 826 1487 Q883 1452 912 1452 Q958 1452 986 1536 L1162 1524 Z " />
<glyph glyph-name="Umacron" unicode="&#x16a;" horiz-adv-x="1481" d="M1509 1464 L1332 548 Q1284 301 1188 176 Q1037 -23 699 -23 Q404 -23 264 132 Q155 252 155 453 Q155 532 173 627 L337 1464 L659 1464 L493 616 Q477 535 477 462 Q477 233 712 233 Q799 233 856.5 263.5 Q914 294 952 360 Q993 430 1018 558 L1193 1464 L1509 1464 Z M693 1626 L734 1833 L1250 1833 L1211 1626 L693 1626 Z " />
<glyph glyph-name="umacron" unicode="&#x16b;" horiz-adv-x="1198" d="M682 156 Q613 60 535.5 16.5 Q458 -27 357 -27 Q233 -27 163 50.5 Q93 128 93 266 Q93 329 108 406 L238 1071 L542 1071 L417 438 Q404 373 404 337 Q404 215 520 215 Q691 215 740 461 L861 1071 L1164 1071 L955 0 L652 0 L682 156 Z M480 1290 L521 1497 L1037 1497 L998 1290 L480 1290 Z " />
<glyph glyph-name="Ubreve" unicode="&#x16c;" horiz-adv-x="1481" d="M1509 1464 L1332 548 Q1284 301 1188 176 Q1037 -23 699 -23 Q404 -23 264 132 Q155 252 155 453 Q155 532 173 627 L337 1464 L659 1464 L493 616 Q477 535 477 462 Q477 233 712 233 Q799 233 856.5 263.5 Q914 294 952 360 Q993 430 1018 558 L1193 1464 L1509 1464 Z M1296 1882 Q1275 1776 1229 1713 Q1132 1581 958 1581 Q817 1581 738 1671 Q702 1713 687 1759 Q672 1805 672 1882 L870 1882 Q873 1776 973 1776 Q1069 1776 1098 1882 L1296 1882 Z " />
<glyph glyph-name="ubreve" unicode="&#x16d;" horiz-adv-x="1198" d="M682 156 Q613 60 535.5 16.5 Q458 -27 357 -27 Q233 -27 163 50.5 Q93 128 93 266 Q93 329 108 406 L238 1071 L542 1071 L417 438 Q404 373 404 337 Q404 215 520 215 Q691 215 740 461 L861 1071 L1164 1071 L955 0 L652 0 L682 156 Z M1074 1530 Q1052 1423 1006 1360 Q910 1228 736 1228 Q594 1228 516 1318 Q479 1360 464.5 1406.5 Q450 1453 449 1530 L648 1530 Q652 1423 750 1423 Q848 1423 875 1530 L1074 1530 Z " />
<glyph glyph-name="Uring" unicode="&#x16e;" horiz-adv-x="1481" d="M1509 1464 L1332 548 Q1284 301 1188 176 Q1037 -23 699 -23 Q404 -23 264 132 Q155 252 155 453 Q155 532 173 627 L337 1464 L659 1464 L493 616 Q477 535 477 462 Q477 233 712 233 Q799 233 856.5 263.5 Q914 294 952 360 Q993 430 1018 558 L1193 1464 L1509 1464 Z M983 2005 Q1075 2005 1133.5 1947.5 Q1192 1890 1192 1800 Q1192 1699 1121.5 1630 Q1051 1561 947 1561 Q855 1561 796 1618.5 Q737 1676 737 1766 Q737 1864 806 1933 Q877 2005 983 2005 Z M974 1888 Q933 1888 905.5 1854.5 Q878 1821 878 1770 Q878 1729 899 1704.5 Q920 1680 955 1680 Q997 1680 1025 1713.5 Q1053 1747 1053 1797 Q1053 1838 1031.5 1863 Q1010 1888 974 1888 Z " />
<glyph glyph-name="uring" unicode="&#x16f;" horiz-adv-x="1198" d="M682 156 Q613 60 535.5 16.5 Q458 -27 357 -27 Q233 -27 163 50.5 Q93 128 93 266 Q93 329 108 406 L238 1071 L542 1071 L417 438 Q404 373 404 337 Q404 215 520 215 Q691 215 740 461 L861 1071 L1164 1071 L955 0 L652 0 L682 156 Z M765 1611 Q857 1611 915.5 1553.5 Q974 1496 974 1406 Q974 1305 903.5 1236 Q833 1167 729 1167 Q637 1167 578 1224.5 Q519 1282 519 1371 Q519 1470 588 1539 Q659 1611 765 1611 Z M756 1494 Q715 1494 687.5 1460.5 Q660 1427 660 1376 Q660 1335 681 1310.5 Q702 1286 737 1286 Q779 1286 807 1319.5 Q835 1353 835 1403 Q835 1444 813.5 1469 Q792 1494 756 1494 Z " />
<glyph glyph-name="Uhungarumlaut" unicode="&#x170;" horiz-adv-x="1481" d="M1509 1464 L1332 548 Q1284 301 1188 176 Q1037 -23 699 -23 Q404 -23 264 132 Q155 252 155 453 Q155 532 173 627 L337 1464 L659 1464 L493 616 Q477 535 477 462 Q477 233 712 233 Q799 233 856.5 263.5 Q914 294 952 360 Q993 430 1018 558 L1193 1464 L1509 1464 Z M993 1579 L1114 1935 L1409 1935 L1200 1579 L993 1579 Z M610 1579 L733 1935 L1028 1935 L817 1579 L610 1579 Z " />
<glyph glyph-name="uhungarumlaut" unicode="&#x171;" horiz-adv-x="1198" d="M682 156 Q613 60 535.5 16.5 Q458 -27 357 -27 Q233 -27 163 50.5 Q93 128 93 266 Q93 329 108 406 L238 1071 L542 1071 L417 438 Q404 373 404 337 Q404 215 520 215 Q691 215 740 461 L861 1071 L1164 1071 L955 0 L652 0 L682 156 Z M801 1186 L922 1542 L1217 1542 L1008 1186 L801 1186 Z M418 1186 L541 1542 L836 1542 L625 1186 L418 1186 Z " />
<glyph glyph-name="Uogonek" unicode="&#x172;" horiz-adv-x="1481" d="M790 -19 Q721 -68 681 -123.5 Q641 -179 641 -227 Q641 -285 706 -285 Q749 -285 791 -248 L854 -353 Q776 -422 667 -422 Q572 -422 518.5 -378.5 Q465 -335 465 -258 Q465 -119 625 -20 Q466 -6 360 54 Q155 172 155 453 Q155 532 173 626 L337 1464 L659 1464 L493 616 Q477 535 477 461 Q477 233 712 233 Q799 233 856 263.5 Q913 294 952 360 Q993 430 1018 558 L1193 1464 L1509 1464 L1332 548 Q1294 355 1233 245 Q1129 55 916 1 Q865 -11 790 -19 Z " />
<glyph glyph-name="uogonek" unicode="&#x173;" horiz-adv-x="1198" d="M955 0 Q779 -117 779 -227 Q779 -285 844 -285 Q886 -285 929 -248 L992 -352 Q913 -422 804 -422 Q710 -422 656.5 -378.5 Q603 -335 603 -257 Q603 -182 654.5 -114.5 Q706 -47 800 0 L652 0 L682 156 Q613 60 535.5 16.5 Q458 -27 357 -27 Q233 -27 163 50.5 Q93 128 93 266 Q93 329 108 406 L238 1071 L542 1071 L417 438 Q404 373 404 337 Q404 215 520 215 Q691 215 740 461 L861 1071 L1164 1071 L955 0 Z " />
<glyph glyph-name="Wcircumflex" unicode="&#x174;" horiz-adv-x="2025" d="M315 0 L233 1464 L557 1464 L591 430 L1058 1464 L1323 1464 L1398 420 L1841 1464 L2154 1464 L1509 0 L1181 0 L1107 997 L647 0 L315 0 Z M863 1587 L1146 1935 L1373 1935 L1525 1587 L1320 1587 L1225 1732 L1074 1587 L863 1587 Z " />
<glyph glyph-name="wcircumflex" unicode="&#x175;" horiz-adv-x="1640" d="M243 0 L149 1071 L456 1071 L487 371 L792 1071 L1054 1071 L1095 371 L1398 1071 L1699 1071 L1183 0 L884 0 L835 668 L546 0 L243 0 Z M723 1202 L1004 1542 L1231 1542 L1385 1202 L1180 1202 L1085 1347 L934 1202 L723 1202 Z " />
<glyph glyph-name="Ycircumflex" unicode="&#x176;" horiz-adv-x="1325" d="M406 0 L525 612 L216 1464 L552 1464 L744 889 L1138 1464 L1469 1464 L841 596 L726 0 L406 0 Z M536 1587 L819 1935 L1046 1935 L1198 1587 L993 1587 L898 1732 L747 1587 L536 1587 Z " />
<glyph glyph-name="ycircumflex" unicode="&#x177;" horiz-adv-x="1112" d="M1191 1071 L542 -107 Q459 -258 363 -323.5 Q267 -389 130 -389 Q-7 -389 -103 -318 L12 -109 Q64 -149 130 -149 Q185 -149 222.5 -119 Q260 -89 294 -17 L315 26 L128 1071 L444 1071 L540 393 L884 1071 L1191 1071 Z M343 1202 L624 1542 L851 1542 L1005 1202 L800 1202 L705 1347 L554 1202 L343 1202 Z " />
<glyph glyph-name="Zacute" unicode="&#x179;" horiz-adv-x="1264" d="M7 0 L58 270 L906 1214 L275 1214 L324 1464 L1326 1464 L1275 1192 L437 256 L1103 256 L1051 0 L7 0 Z M718 1579 L857 1935 L1212 1935 L937 1579 L718 1579 Z " />
<glyph glyph-name="zacute" unicode="&#x17a;" horiz-adv-x="1004" d="M-28 0 L17 220 L615 833 L160 833 L208 1071 L1039 1071 L994 847 L398 240 L885 240 L838 0 L-28 0 Z M512 1202 L648 1542 L1002 1542 L731 1202 L512 1202 Z " />
<glyph glyph-name="Zdotaccent" unicode="&#x17b;" horiz-adv-x="1264" d="M7 0 L58 270 L906 1214 L275 1214 L324 1464 L1326 1464 L1275 1192 L437 256 L1103 256 L1051 0 L7 0 Z M878 1890 Q939 1890 979.5 1850.5 Q1020 1811 1020 1750 Q1020 1679 969.5 1628 Q919 1577 849 1577 Q788 1577 748.5 1617.5 Q709 1658 709 1720 Q709 1789 759 1839.5 Q809 1890 878 1890 Z " />
<glyph glyph-name="zdotaccent" unicode="&#x17c;" horiz-adv-x="1004" d="M-28 0 L17 220 L615 833 L160 833 L208 1071 L1039 1071 L994 847 L398 240 L885 240 L838 0 L-28 0 Z M685 1546 Q746 1546 786.5 1506.5 Q827 1467 827 1406 Q827 1335 776.5 1284 Q726 1233 656 1233 Q595 1233 555.5 1273.5 Q516 1314 516 1376 Q516 1445 566 1495.5 Q616 1546 685 1546 Z " />
<glyph glyph-name="Zcaron" unicode="&#x17d;" horiz-adv-x="1264" d="M7 0 L58 270 L906 1214 L275 1214 L324 1464 L1326 1464 L1275 1192 L437 256 L1103 256 L1051 0 L7 0 Z M749 1587 L597 1935 L802 1935 L896 1790 L1048 1935 L1259 1935 L976 1587 L749 1587 Z " />
<glyph glyph-name="zcaron" unicode="&#x17e;" horiz-adv-x="1004" d="M-28 0 L17 220 L615 833 L160 833 L208 1071 L1039 1071 L994 847 L398 240 L885 240 L838 0 L-28 0 Z M541 1202 L388 1542 L593 1542 L687 1397 L839 1542 L1050 1542 L769 1202 L541 1202 Z " />
<glyph glyph-name="uni018F" unicode="&#x18f;" horiz-adv-x="1575" d="M226 1070 Q250 1131 328 1227 Q542 1487 890 1487 Q1200 1487 1374 1291 Q1527 1118 1527 836 Q1527 564 1398 344 Q1293 168 1127 72 Q961 -23 755 -23 Q473 -23 304 144 Q220 228 175 345 Q128 469 128 600 Q128 700 151 866 L1195 866 Q1192 1019 1140 1105 Q1063 1235 893 1235 Q776 1235 683.5 1168 Q591 1101 536 978 L226 1070 Z M1168 622 L460 622 Q461 454 514 365 Q595 229 768 229 Q1026 229 1139 531 Q1157 577 1168 622 Z " />
<glyph glyph-name="Ohorn" unicode="&#x1a0;" horiz-adv-x="1554" d="M1294 1351 Q1299 1352 1311 1355 Q1435 1383 1464 1482 Q1410 1488 1378.5 1522 Q1347 1556 1347 1608 Q1347 1666 1388.5 1705 Q1430 1744 1493 1744 Q1558 1744 1598 1699 Q1638 1654 1638 1581 Q1638 1458 1569 1370 Q1500 1282 1384 1256 Q1505 1089 1505 838 Q1505 566 1376 345 Q1273 168 1109 72 Q946 -23 743 -23 Q465 -23 299 144 Q127 317 127 622 Q127 834 203 1022 Q291 1239 477 1368 Q649 1487 877 1487 Q1134 1487 1294 1351 Z M882 1235 Q700 1235 587 1073 Q527 987 493 862 Q459 737 459 603 Q459 422 536.5 325.5 Q614 229 761 229 Q892 229 991 324 Q1081 411 1130 567 Q1173 704 1173 860 Q1173 1074 1073 1167 Q1000 1235 882 1235 Z " />
<glyph glyph-name="ohorn" unicode="&#x1a1;" horiz-adv-x="1196" d="M961 992 Q1088 1024 1110 1117 Q1057 1123 1025.5 1157 Q994 1191 994 1243 Q994 1301 1035.5 1340 Q1077 1379 1140 1379 Q1204 1379 1244 1334 Q1284 1289 1284 1216 Q1284 1096 1219 1009.5 Q1154 923 1044 896 Q1119 772 1119 604 Q1119 463 1070.5 338.5 Q1022 214 933 128 Q777 -23 546 -23 Q333 -23 205 111 Q77 246 77 471 Q77 612 125.5 737.5 Q174 863 262 949 Q414 1098 646 1098 Q838 1098 961 992 Z M641 873 Q506 873 436 703 Q386 581 386 434 Q386 202 557 202 Q694 202 763 379 Q810 500 810 644 Q810 756 768 813 Q723 873 641 873 Z " />
<glyph glyph-name="Uhorn" unicode="&#x1af;" horiz-adv-x="1481" d="M1493 1385 Q1590 1410 1612 1482 Q1559 1488 1527.5 1522 Q1496 1556 1496 1608 Q1496 1666 1537.5 1705 Q1579 1744 1642 1744 Q1706 1744 1746 1699 Q1786 1654 1786 1582 Q1786 1450 1702 1367 Q1618 1284 1471 1272 L1332 548 Q1284 301 1188 176 Q1037 -23 699 -23 Q404 -23 264 132 Q155 252 155 453 Q155 532 173 627 L337 1464 L659 1464 L493 616 Q477 535 477 462 Q477 233 712 233 Q799 233 856.5 263.5 Q914 294 952 360 Q993 430 1018 558 L1193 1464 L1509 1464 L1493 1385 Z " />
<glyph glyph-name="uhorn" unicode="&#x1b0;" horiz-adv-x="1198" d="M1155 1022 Q1243 1047 1264 1117 Q1210 1123 1178.5 1157 Q1147 1191 1147 1243 Q1147 1301 1188.5 1340 Q1230 1379 1293 1379 Q1358 1379 1398 1334.5 Q1438 1290 1438 1217 Q1438 1088 1356 1004.5 Q1274 921 1132 907 L955 0 L652 0 L682 156 Q613 60 535.5 16.5 Q458 -27 357 -27 Q233 -27 163 50.5 Q93 128 93 266 Q93 329 108 406 L238 1071 L542 1071 L417 438 Q404 373 404 337 Q404 215 520 215 Q691 215 740 461 L861 1071 L1164 1071 L1155 1022 Z " />
<glyph glyph-name="uni01CD" unicode="&#x1cd;" horiz-adv-x="1422" d="M931 279 L378 279 L237 0 L-80 0 L711 1464 L1080 1464 L1293 0 L965 0 L931 279 Z M903 512 L825 1161 L496 512 L903 512 Z M798 1587 L646 1935 L851 1935 L945 1790 L1097 1935 L1308 1935 L1025 1587 L798 1587 Z " />
<glyph glyph-name="uni01CE" unicode="&#x1ce;" horiz-adv-x="1111" d="M606 129 Q496 -23 324 -23 Q206 -23 125 41 Q24 122 24 267 Q24 555 398 618 Q514 637 694 643 L698 666 Q703 694 703 720 Q703 850 557 850 Q411 850 264 760 L157 969 Q250 1028 329 1055 Q454 1098 609 1098 Q1009 1098 1009 773 Q1009 716 993 634 L909 201 Q896 135 896 95 Q896 47 909 12 L909 0 L614 0 Q604 53 604 95 Q604 108 606 129 Z M659 465 Q531 460 465 443 Q331 411 331 296 Q331 194 442 194 Q517 194 571.5 241.5 Q626 289 640 367 L659 465 Z M542 1202 L389 1542 L594 1542 L688 1397 L840 1542 L1051 1542 L770 1202 L542 1202 Z " />
<glyph glyph-name="uni01CF" unicode="&#x1cf;" horiz-adv-x="670" d="M71 0 L356 1464 L675 1464 L390 0 L71 0 Z M466 1587 L314 1935 L519 1935 L613 1790 L765 1935 L976 1935 L693 1587 L466 1587 Z " />
<glyph glyph-name="uni01D0" unicode="&#x1d0;" horiz-adv-x="600" d="M46 0 L255 1071 L558 1071 L349 0 L46 0 Z M320 1202 L167 1542 L371 1542 L466 1397 L617 1542 L828 1542 L547 1202 L320 1202 Z " />
<glyph glyph-name="uni01D1" unicode="&#x1d1;" horiz-adv-x="1554" d="M879 1487 Q1184 1487 1355 1291 Q1505 1120 1505 839 Q1505 566 1376 345 Q1274 168 1109 72 Q945 -23 736 -23 Q465 -23 299 144 Q127 317 127 622 Q127 833 203 1022 Q291 1238 477 1367 Q649 1487 879 1487 Z M882 1235 Q700 1235 587 1073 Q527 987 493 862 Q459 737 459 603 Q459 422 536.5 325.5 Q614 229 761 229 Q892 229 991 324 Q1081 411 1130 567 Q1173 704 1173 860 Q1173 1074 1073 1167 Q1000 1235 882 1235 Z M909 1587 L757 1935 L962 1935 L1056 1790 L1208 1935 L1419 1935 L1136 1587 L909 1587 Z " />
<glyph glyph-name="uni01D2" unicode="&#x1d2;" horiz-adv-x="1196" d="M645 1098 Q863 1098 991 964 Q1119 829 1119 605 Q1119 464 1070.5 339 Q1022 214 933 128 Q777 -23 546 -23 Q333 -23 205 111 Q77 246 77 477 Q77 613 126 738 Q175 863 262 949 Q412 1098 645 1098 Z M641 873 Q506 873 436 703 Q386 581 386 434 Q386 202 557 202 Q694 202 763 379 Q810 500 810 644 Q810 756 768 813 Q723 873 641 873 Z M616 1202 L463 1542 L668 1542 L762 1397 L914 1542 L1125 1542 L844 1202 L616 1202 Z " />
<glyph glyph-name="uni01D3" unicode="&#x1d3;" horiz-adv-x="1481" d="M1509 1464 L1332 548 Q1284 301 1188 176 Q1037 -23 699 -23 Q404 -23 264 132 Q155 252 155 453 Q155 532 173 627 L337 1464 L659 1464 L493 616 Q477 535 477 462 Q477 233 712 233 Q799 233 856.5 263.5 Q914 294 952 360 Q993 430 1018 558 L1193 1464 L1509 1464 Z M822 1587 L670 1935 L875 1935 L969 1790 L1121 1935 L1332 1935 L1049 1587 L822 1587 Z " />
<glyph glyph-name="uni01D4" unicode="&#x1d4;" horiz-adv-x="1198" d="M682 156 Q613 60 535.5 16.5 Q458 -27 357 -27 Q233 -27 163 50.5 Q93 128 93 266 Q93 329 108 406 L238 1071 L542 1071 L417 438 Q404 373 404 337 Q404 215 520 215 Q691 215 740 461 L861 1071 L1164 1071 L955 0 L652 0 L682 156 Z M646 1202 L493 1542 L698 1542 L792 1397 L944 1542 L1155 1542 L874 1202 L646 1202 Z " />
<glyph glyph-name="uni01DD" unicode="&#x1dd;" horiz-adv-x="1131" d="M169 899 Q261 1002 370 1050 Q479 1098 623 1098 Q853 1098 973 965 Q1078 849 1078 645 Q1078 500 1029 372 Q980 244 889 152 Q716 -23 463 -23 Q325 -23 228 33 Q81 117 81 292 Q81 547 439 615 Q557 638 777 643 L777 664 Q777 871 604 871 Q530 871 475 843.5 Q420 816 351 745 L169 899 Z M755 461 Q547 461 456.5 426.5 Q366 392 366 313 Q366 261 399.5 231.5 Q433 202 491 202 Q682 202 755 461 Z " />
<glyph glyph-name="Gcaron" unicode="&#x1e6;" horiz-adv-x="1554" d="M1121 226 Q1062 129 979 72 Q842 -23 666 -23 Q424 -23 280 141 Q130 311 130 609 Q130 894 258 1115 Q360 1293 527 1390 Q695 1487 906 1487 Q1188 1487 1339 1317 Q1381 1268 1405.5 1218 Q1430 1168 1457 1073 L1154 975 Q1132 1074 1100 1127 Q1034 1237 887 1237 Q676 1237 561 1031 Q460 850 460 604 Q460 223 751 223 Q896 223 991 312 Q1085 401 1107 543 L1111 570 L826 570 L871 797 L1465 797 L1312 0 L1142 0 L1121 226 Z M816 1587 L664 1935 L869 1935 L963 1790 L1115 1935 L1326 1935 L1043 1587 L816 1587 Z " />
<glyph glyph-name="gcaron" unicode="&#x1e7;" horiz-adv-x="1145" d="M372 420 Q326 381 326 337 Q326 266 423 266 L576 266 Q729 266 806 238 Q991 170 991 -19 Q991 -133 930 -220 Q869 -307 754 -354 Q622 -409 425 -409 Q231 -409 107 -356 Q-58 -286 -58 -146 Q-58 12 167 82 Q75 141 75 237 Q75 378 268 475 Q147 569 147 714 Q147 895 301 1006 Q427 1098 607 1098 Q762 1098 884 1022 L1197 1091 L1152 868 L1007 868 Q1027 814 1027 754 Q1027 607 928 509 Q806 387 580 387 Q465 387 372 420 Z M323 35 Q223 -12 223 -94 Q223 -210 439 -210 Q698 -210 698 -66 Q698 35 554 35 L323 35 Z M608 913 Q527 913 476.5 856.5 Q426 800 426 708 Q426 638 465 598.5 Q504 559 575 559 Q655 559 704 617 Q753 675 753 769 Q753 838 715 875.5 Q677 913 608 913 Z M533 1202 L380 1542 L585 1542 L679 1397 L831 1542 L1042 1542 L761 1202 L533 1202 Z " />
<glyph glyph-name="uni01F4" unicode="&#x1f4;" horiz-adv-x="1554" d="M1121 226 Q1062 129 979 72 Q842 -23 666 -23 Q424 -23 280 141 Q130 311 130 609 Q130 894 258 1115 Q360 1293 527 1390 Q695 1487 906 1487 Q1188 1487 1339 1317 Q1381 1268 1405.5 1218 Q1430 1168 1457 1073 L1154 975 Q1132 1074 1100 1127 Q1034 1237 887 1237 Q676 1237 561 1031 Q460 850 460 604 Q460 223 751 223 Q896 223 991 312 Q1085 401 1107 543 L1111 570 L826 570 L871 797 L1465 797 L1312 0 L1142 0 L1121 226 Z M803 1579 L942 1935 L1297 1935 L1022 1579 L803 1579 Z " />
<glyph glyph-name="uni01F5" unicode="&#x1f5;" horiz-adv-x="1145" d="M372 420 Q326 381 326 337 Q326 266 423 266 L576 266 Q729 266 806 238 Q991 170 991 -19 Q991 -133 930 -220 Q869 -307 754 -354 Q622 -409 425 -409 Q231 -409 107 -356 Q-58 -286 -58 -146 Q-58 12 167 82 Q75 141 75 237 Q75 378 268 475 Q147 569 147 714 Q147 895 301 1006 Q427 1098 607 1098 Q762 1098 884 1022 L1197 1091 L1152 868 L1007 868 Q1027 814 1027 754 Q1027 607 928 509 Q806 387 580 387 Q465 387 372 420 Z M323 35 Q223 -12 223 -94 Q223 -210 439 -210 Q698 -210 698 -66 Q698 35 554 35 L323 35 Z M608 913 Q527 913 476.5 856.5 Q426 800 426 708 Q426 638 465 598.5 Q504 559 575 559 Q655 559 704 617 Q753 675 753 769 Q753 838 715 875.5 Q677 913 608 913 Z M553 1202 L689 1542 L1043 1542 L772 1202 L553 1202 Z " />
<glyph glyph-name="Aringacute" unicode="&#x1fa;" horiz-adv-x="1422" d="M807 1464 Q690 1517 690 1650 Q690 1750 759 1818 Q830 1890 936 1890 Q1027 1890 1085.5 1832.5 Q1144 1775 1144 1685 Q1144 1612 1104.5 1552.5 Q1065 1493 997 1464 L1080 1464 L1293 0 L965 0 L931 279 L378 279 L237 0 L-80 0 L711 1464 L807 1464 Z M903 512 L825 1161 L496 512 L903 512 Z M927 1773 Q886 1773 858.5 1739.5 Q831 1706 831 1655 Q831 1613 852 1588.5 Q873 1564 908 1564 Q949 1564 977 1597.5 Q1005 1631 1005 1682 Q1005 1723 983.5 1748 Q962 1773 927 1773 Z M427 1718 L566 2074 L920 2074 L646 1718 L427 1718 Z " />
<glyph glyph-name="aringacute" unicode="&#x1fb;" horiz-adv-x="1111" d="M606 129 Q496 -23 324 -23 Q206 -23 125 41 Q24 122 24 267 Q24 555 398 618 Q514 637 694 643 L698 666 Q703 694 703 720 Q703 850 557 850 Q411 850 264 760 L157 969 Q250 1028 329 1055 Q454 1098 609 1098 Q1009 1098 1009 773 Q1009 716 993 634 L909 201 Q896 135 896 95 Q896 47 909 12 L909 0 L614 0 Q604 53 604 95 Q604 108 606 129 Z M659 465 Q531 460 465 443 Q331 411 331 296 Q331 194 442 194 Q517 194 571.5 241.5 Q626 289 640 367 L659 465 Z M704 1611 Q795 1611 853.5 1554 Q912 1497 912 1406 Q912 1305 841.5 1236 Q771 1167 667 1167 Q575 1167 516 1224.5 Q457 1282 457 1371 Q457 1473 528 1542 Q599 1611 704 1611 Z M694 1494 Q653 1494 625.5 1460.5 Q598 1427 598 1376 Q598 1335 619 1310.5 Q640 1286 675 1286 Q717 1286 745 1319.5 Q773 1353 773 1403 Q773 1444 751.5 1469 Q730 1494 694 1494 Z M223 1474 L362 1830 L717 1830 L442 1474 L223 1474 Z " />
<glyph glyph-name="AEacute" unicode="&#x1fc;" horiz-adv-x="2042" d="M-56 0 L986 1464 L2096 1464 L2049 1214 L1414 1214 L1347 864 L1818 864 L1771 626 L1300 626 L1228 250 L1894 250 L1847 0 L864 0 L921 299 L474 299 L270 0 L-56 0 Z M1095 1200 L636 535 L966 535 L1095 1200 Z M1076 1579 L1215 1935 L1570 1935 L1295 1579 L1076 1579 Z " />
<glyph glyph-name="aeacute" unicode="&#x1fd;" horiz-adv-x="1726" d="M726 193 Q649 79 559 29 Q465 -23 346 -23 Q209 -23 125.5 55.5 Q42 134 42 263 Q42 499 274 577 Q432 631 654 631 L706 631 L714 672 Q720 703 720 733 Q720 848 574 848 Q422 848 275 760 L169 969 Q276 1037 383.5 1067.5 Q491 1098 629 1098 Q751 1098 825.5 1064.5 Q900 1031 949 954 Q1100 1098 1299 1098 Q1433 1098 1531 1042 Q1674 960 1674 784 Q1674 595 1496 515 Q1349 448 982 440 L982 412 Q982 303 1023.5 253.5 Q1065 204 1155 204 Q1229 204 1283.5 231 Q1338 258 1408 330 L1588 176 Q1515 95 1440 52 Q1310 -23 1135 -23 Q984 -23 885 29 Q786 81 726 193 Z M1007 623 Q1222 623 1307.5 654 Q1393 685 1393 765 Q1393 815 1359 844 Q1325 873 1265 873 Q1077 873 1007 623 Z M673 453 L630 453 Q486 453 416.5 414.5 Q347 376 347 297 Q347 195 457 195 Q533 195 587.5 242 Q642 289 656 367 L673 453 Z M841 1202 L977 1542 L1331 1542 L1060 1202 L841 1202 Z " />
<glyph glyph-name="Oslashacute" unicode="&#x1fe;" horiz-adv-x="1555" d="M1411 1215 Q1505 1058 1505 836 Q1505 566 1376 345 Q1273 168 1109 72 Q945 -23 743 -23 Q494 -23 328 118 L212 0 L-26 0 L218 248 Q127 405 127 623 Q127 797 178.5 955 Q230 1113 325 1228 Q538 1487 877 1487 Q1132 1487 1300 1346 L1416 1464 L1657 1464 L1411 1215 Z M1166 966 L535 328 Q616 229 756 229 Q959 229 1070 429 Q1173 613 1173 857 Q1173 910 1166 966 Z M466 499 L1097 1140 Q1016 1235 882 1235 Q700 1235 587 1073 Q528 989 493.5 863.5 Q459 738 459 609 Q459 556 466 499 Z M872 1579 L1011 1935 L1366 1935 L1091 1579 L872 1579 Z " />
<glyph glyph-name="oslashacute" unicode="&#x1ff;" horiz-adv-x="1196" d="M243 81 L161 0 L-48 0 L150 194 Q83 308 83 472 Q83 612 131.5 737.5 Q180 863 268 949 Q420 1098 651 1098 Q839 1098 966 993 L1046 1071 L1255 1071 L1059 880 Q1125 757 1125 606 Q1125 464 1076.5 339 Q1028 214 939 128 Q783 -23 552 -23 Q364 -23 243 81 Z M429 262 Q473 202 563 202 Q706 202 777 379 Q824 497 824 632 Q824 636 824 649 L429 262 Z M780 811 Q730 873 647 873 Q506 873 434 703 Q384 584 384 441 Q384 435 384 423 L780 811 Z M586 1202 L722 1542 L1076 1542 L805 1202 L586 1202 Z " />
<glyph glyph-name="Scommaaccent" unicode="&#x218;" horiz-adv-x="1249" d="M970 1054 Q938 1131 901 1169 Q835 1237 708 1237 Q608 1237 554 1195 Q500 1153 500 1076 Q500 1007 549.5 968.5 Q599 930 762 872 Q949 807 1033 733 Q1156 627 1156 446 Q1156 241 1013 113 Q860 -23 583 -23 Q119 -23 1 360 L296 463 Q318 382 350 337 Q428 227 599 227 Q693 227 754 262 Q834 308 834 403 Q834 474 784.5 514.5 Q735 555 582 610 Q391 679 307 755 Q191 860 191 1036 Q191 1222 311 1342 Q456 1487 721 1487 Q1127 1487 1248 1163 L970 1054 Z M308 -557 L333 -449 Q465 -426 486 -344 Q433 -338 401 -304 Q369 -270 369 -218 Q369 -159 410.5 -120.5 Q452 -82 515 -82 Q580 -82 620 -126.5 Q660 -171 660 -244 Q660 -382 566 -468 Q518 -512 460.5 -531.5 Q403 -551 308 -557 Z " />
<glyph glyph-name="scommaaccent" unicode="&#x219;" horiz-adv-x="1032" d="M820 754 Q767 814 696.5 847.5 Q626 881 554 881 Q433 881 433 790 Q433 746 463.5 723 Q494 700 601 662 Q747 609 821 544 Q910 464 910 334 Q910 167 791.5 72 Q673 -23 466 -23 Q147 -23 -14 172 L152 356 Q273 198 458 198 Q607 198 607 296 Q607 344 561 372 Q533 388 419 430 Q144 529 144 750 Q144 944 302 1036 Q409 1098 571 1098 Q705 1098 804.5 1058 Q904 1018 992 930 L820 754 Z M169 -557 L194 -449 Q326 -426 347 -344 Q294 -338 262 -304 Q230 -270 230 -218 Q230 -159 271.5 -120.5 Q313 -82 376 -82 Q441 -82 481 -126.5 Q521 -171 521 -244 Q521 -382 427 -468 Q379 -512 321.5 -531.5 Q264 -551 169 -557 Z " />
<glyph glyph-name="uni021A" unicode="&#x21a;" horiz-adv-x="1266" d="M371 0 L606 1214 L213 1214 L262 1464 L1365 1464 L1317 1214 L924 1214 L690 0 L371 0 Z M292 -557 L317 -449 Q449 -426 470 -344 Q417 -338 385 -304 Q353 -270 353 -218 Q353 -159 394.5 -120.5 Q436 -82 499 -82 Q564 -82 604 -126.5 Q644 -171 644 -244 Q644 -382 550 -468 Q502 -512 444.5 -531.5 Q387 -551 292 -557 Z " />
<glyph glyph-name="uni021B" unicode="&#x21b;" horiz-adv-x="819" d="M116 840 L161 1071 L302 1071 L345 1288 L669 1395 L605 1071 L821 1071 L775 840 L560 840 L470 363 Q464 332 464 309 Q464 229 538 229 Q581 229 640 258 L702 47 Q591 -23 436 -23 Q287 -23 212 60 Q151 127 151 242 Q151 286 159 328 L257 840 L116 840 Z M123 -557 L148 -449 Q280 -426 301 -344 Q248 -338 216 -304 Q184 -270 184 -218 Q184 -159 225.5 -120.5 Q267 -82 330 -82 Q395 -82 435 -126.5 Q475 -171 475 -244 Q475 -382 381 -468 Q333 -512 275.5 -531.5 Q218 -551 123 -557 Z " />
<glyph glyph-name="uni0226" unicode="&#x226;" horiz-adv-x="1422" d="M931 279 L378 279 L237 0 L-80 0 L711 1464 L1080 1464 L1293 0 L965 0 L931 279 Z M903 512 L825 1161 L496 512 L903 512 Z M927 1890 Q988 1890 1028.5 1850.5 Q1069 1811 1069 1750 Q1069 1679 1018.5 1628 Q968 1577 898 1577 Q837 1577 797.5 1617.5 Q758 1658 758 1720 Q758 1789 808 1839.5 Q858 1890 927 1890 Z " />
<glyph glyph-name="uni0227" unicode="&#x227;" horiz-adv-x="1111" d="M606 129 Q496 -23 324 -23 Q206 -23 125 41 Q24 122 24 267 Q24 555 398 618 Q514 637 694 643 L698 666 Q703 694 703 720 Q703 850 557 850 Q411 850 264 760 L157 969 Q250 1028 329 1055 Q454 1098 609 1098 Q1009 1098 1009 773 Q1009 716 993 634 L909 201 Q896 135 896 95 Q896 47 909 12 L909 0 L614 0 Q604 53 604 95 Q604 108 606 129 Z M659 465 Q531 460 465 443 Q331 411 331 296 Q331 194 442 194 Q517 194 571.5 241.5 Q626 289 640 367 L659 465 Z M704 1546 Q765 1546 805.5 1506.5 Q846 1467 846 1406 Q846 1335 795.5 1284 Q745 1233 675 1233 Q614 1233 574.5 1273.5 Q535 1314 535 1376 Q535 1445 585 1495.5 Q635 1546 704 1546 Z " />
<glyph glyph-name="uni0237" unicode="&#x237;" horiz-adv-x="600" d="M563 1071 L339 -72 Q277 -391 -26 -391 Q-152 -391 -228 -336 L-142 -119 Q-99 -141 -62 -141 Q23 -141 44 -33 L259 1071 L563 1071 Z " />
<glyph glyph-name="uni0259" unicode="&#x259;" horiz-adv-x="1131" d="M169 899 Q261 1002 370 1050 Q479 1098 623 1098 Q853 1098 973 965 Q1078 849 1078 645 Q1078 500 1029 372 Q980 244 889 152 Q716 -23 463 -23 Q325 -23 228 33 Q81 117 81 292 Q81 547 439 615 Q557 638 777 643 L777 664 Q777 871 604 871 Q530 871 475 843.5 Q420 816 351 745 L169 899 Z M755 461 Q547 461 456.5 426.5 Q366 392 366 313 Q366 261 399.5 231.5 Q433 202 491 202 Q682 202 755 461 Z " />
<glyph glyph-name="afii57929" unicode="&#x2bc;" horiz-adv-x="553" d="M428 1233 Q366 1243 331.5 1281.5 Q297 1320 297 1379 Q297 1450 347.5 1498 Q398 1546 474 1546 Q548 1546 591 1497 Q634 1448 634 1363 Q634 1203 529 1096 Q472 1038 403 1010.5 Q334 983 227 975 L251 1102 Q397 1127 428 1233 Z " />
<glyph glyph-name="uni02C9" unicode="&#x2c9;" horiz-adv-x="1024" d="M399 1290 L440 1497 L956 1497 L917 1290 L399 1290 Z " />
<glyph glyph-name="uni0309" unicode="&#x309;" horiz-adv-x="1024" d="M731 1531 L589 1531 L620 1689 L644 1692 Q710 1702 726.5 1713 Q743 1724 743 1759 Q743 1776 721 1776 Q677 1776 653 1766.5 Q629 1757 531 1702 L483 1812 Q645 1909 742 1909 Q812 1909 856 1869.5 Q900 1830 900 1768 Q900 1698 858.5 1651.5 Q817 1605 742 1590 L731 1531 Z " />
<glyph glyph-name="uni037E" unicode="&#x37e;" horiz-adv-x="616" d="M-37 -346 L-6 -199 Q161 -167 204 2 Q133 12 93.5 55.5 Q54 99 54 168 Q54 249 111 303.5 Q168 358 253 358 Q335 358 384 303.5 Q433 249 433 156 Q433 66 399.5 -25.5 Q366 -117 309 -184 Q244 -261 164.5 -298 Q85 -335 -37 -346 Z M377 950 Q451 950 500.5 901 Q550 852 550 780 Q550 693 489 632 Q428 571 341 571 Q267 571 218 619.5 Q169 668 169 742 Q169 828 230 889 Q291 950 377 950 Z " />
<glyph glyph-name="tonos" unicode="&#x384;" horiz-adv-x="1001" d="M862 1573 L759 1219 L506 1219 L541 1573 L862 1573 Z " />
<glyph glyph-name="dieresistonos" unicode="&#x385;" horiz-adv-x="1024" d="M828 1573 L725 1219 L519 1219 L554 1573 L828 1573 Z M324 1505 Q375 1505 409 1471.5 Q443 1438 443 1387 Q443 1327 398.5 1282 Q354 1237 294 1237 Q242 1237 208.5 1271 Q175 1305 175 1358 Q175 1418 219 1461.5 Q263 1505 324 1505 Z M1012 1505 Q1064 1505 1097.5 1471.5 Q1131 1438 1131 1387 Q1131 1327 1087 1282 Q1043 1237 983 1237 Q931 1237 898 1270.5 Q865 1304 865 1357 Q865 1418 908.5 1461.5 Q952 1505 1012 1505 Z " />
<glyph glyph-name="Alphatonos" unicode="&#x386;" horiz-adv-x="1463" d="M972 279 L419 279 L278 0 L-39 0 L752 1464 L1121 1464 L1334 0 L1006 0 L972 279 Z M944 512 L866 1161 L537 512 L944 512 Z M124 1038 L173 1464 L495 1464 L377 1038 L124 1038 Z " />
<glyph glyph-name="uni0387" unicode="&#x387;" horiz-adv-x="616" d="M351 858 Q424 858 474 808.5 Q524 759 524 686 Q524 599 462.5 539 Q401 479 313 479 Q240 479 191.5 527.5 Q143 576 143 648 Q143 735 204 796.5 Q265 858 351 858 Z " />
<glyph glyph-name="Epsilontonos" unicode="&#x388;" horiz-adv-x="1511" d="M318 0 L602 1464 L1567 1464 L1520 1214 L869 1214 L801 864 L1288 864 L1241 626 L754 626 L682 250 L1364 250 L1317 0 L318 0 Z M100 1038 L149 1464 L471 1464 L353 1038 L100 1038 Z " />
<glyph glyph-name="Etatonos" unicode="&#x389;" horiz-adv-x="1738" d="M318 0 L602 1464 L924 1464 L807 866 L1315 866 L1432 1464 L1753 1464 L1469 0 L1147 0 L1268 606 L758 606 L639 0 L318 0 Z M100 1038 L149 1464 L471 1464 L353 1038 L100 1038 Z " />
<glyph glyph-name="Iotatonos" unicode="&#x38a;" horiz-adv-x="917" d="M318 0 L602 1464 L922 1464 L637 0 L318 0 Z M100 1038 L149 1464 L471 1464 L353 1038 L100 1038 Z " />
<glyph glyph-name="Omicrontonos" unicode="&#x38c;" horiz-adv-x="1828" d="M1153 1487 Q1458 1487 1629 1291 Q1779 1120 1779 839 Q1779 566 1650 345 Q1548 168 1383 72 Q1219 -23 1010 -23 Q739 -23 573 144 Q401 317 401 622 Q401 833 477 1022 Q564 1238 751 1367 Q923 1487 1153 1487 Z M1156 1235 Q974 1235 861 1073 Q801 987 767 861.5 Q733 736 733 603 Q733 422 811 325.5 Q889 229 1035 229 Q1165 229 1265 324 Q1355 411 1404 567 Q1447 704 1447 860 Q1447 1074 1347 1167 Q1274 1235 1156 1235 Z M100 1038 L149 1464 L471 1464 L353 1038 L100 1038 Z " />
<glyph glyph-name="Upsilontonos" unicode="&#x38e;" horiz-adv-x="1669" d="M750 0 L869 612 L559 1464 L895 1464 L1088 889 L1481 1464 L1813 1464 L1184 596 L1069 0 L750 0 Z M100 1038 L149 1464 L471 1464 L353 1038 L100 1038 Z " />
<glyph glyph-name="Omegatonos" unicode="&#x38f;" horiz-adv-x="1882" d="M242 0 L286 225 L548 225 Q389 387 389 645 Q389 851 479 1036 Q590 1264 786 1382 Q961 1487 1196 1487 Q1501 1487 1672 1312 Q1835 1144 1835 867 Q1835 667 1752 503 Q1669 339 1510 225 L1773 225 L1729 0 L1084 0 L1129 225 Q1251 264 1335 362 Q1409 449 1451 570 Q1503 721 1503 879 Q1503 1046 1426 1138 Q1345 1235 1185 1235 Q944 1235 818 997 Q721 813 721 578 Q721 433 764.5 348.5 Q808 264 903 225 L859 0 L242 0 Z M100 1038 L149 1464 L471 1464 L353 1038 L100 1038 Z " />
<glyph glyph-name="iotadieresistonos" unicode="&#x390;" horiz-adv-x="637" d="M558 1071 L426 390 Q407 319 407 292 Q407 259 424 245.5 Q441 232 483 232 Q510 232 551 237 L505 0 Q419 -10 360 -10 Q98 -10 98 202 Q98 264 122 390 L255 1071 L558 1071 Z M640 1573 L537 1219 L331 1219 L366 1573 L640 1573 Z M136 1505 Q187 1505 221 1471.5 Q255 1438 255 1387 Q255 1327 210.5 1282 Q166 1237 106 1237 Q54 1237 20.5 1271 Q-13 1305 -13 1358 Q-13 1418 31 1461.5 Q75 1505 136 1505 Z M824 1505 Q876 1505 909.5 1471.5 Q943 1438 943 1387 Q943 1327 899 1282 Q855 1237 795 1237 Q743 1237 710 1270.5 Q677 1304 677 1357 Q677 1418 720.5 1461.5 Q764 1505 824 1505 Z " />
<glyph glyph-name="Alpha" unicode="&#x391;" horiz-adv-x="1422" d="M931 279 L378 279 L237 0 L-80 0 L711 1464 L1080 1464 L1293 0 L965 0 L931 279 Z M903 512 L825 1161 L496 512 L903 512 Z " />
<glyph glyph-name="Beta" unicode="&#x392;" horiz-adv-x="1384" d="M60 0 L345 1464 L851 1464 Q970 1464 1039.5 1451 Q1109 1438 1172 1403 Q1340 1312 1340 1107 Q1340 973 1275 888 Q1210 803 1064 747 Q1160 715 1211 661 Q1289 578 1289 438 Q1289 241 1158 125 Q1017 0 748 0 L60 0 Z M422 244 L730 244 Q861 244 926 312 Q980 369 980 462 Q980 548 930 594.5 Q880 641 787 641 L500 641 L422 244 Z M543 866 L795 866 Q1035 866 1035 1068 Q1035 1148 989 1184 Q943 1220 843 1220 L613 1220 L543 866 Z " />
<glyph glyph-name="Gamma" unicode="&#x393;" horiz-adv-x="1116" d="M60 0 L345 1464 L1241 1464 L1191 1212 L617 1212 L382 0 L60 0 Z " />
<glyph glyph-name="uni0394" unicode="&#x394;" horiz-adv-x="1414" d="M-80 0 L697 1464 L1082 1464 L1285 0 L-80 0 Z M345 244 L931 244 L821 1177 L345 244 Z " />
<glyph glyph-name="Epsilon" unicode="&#x395;" horiz-adv-x="1253" d="M60 0 L345 1464 L1309 1464 L1262 1214 L611 1214 L543 864 L1031 864 L984 626 L496 626 L425 250 L1107 250 L1059 0 L60 0 Z " />
<glyph glyph-name="Zeta" unicode="&#x396;" horiz-adv-x="1264" d="M7 0 L58 270 L906 1214 L275 1214 L324 1464 L1326 1464 L1275 1192 L437 256 L1103 256 L1051 0 L7 0 Z " />
<glyph glyph-name="Eta" unicode="&#x397;" horiz-adv-x="1481" d="M60 0 L345 1464 L666 1464 L549 866 L1057 866 L1174 1464 L1496 1464 L1211 0 L889 0 L1010 606 L500 606 L382 0 L60 0 Z " />
<glyph glyph-name="Theta" unicode="&#x398;" horiz-adv-x="1575" d="M556 622 L603 866 L1101 866 L1053 622 L556 622 Z M900 1487 Q1200 1487 1374 1291 Q1527 1119 1527 836 Q1527 564 1397 345 Q1293 168 1127 72 Q961 -23 755 -23 Q473 -23 304 144 Q128 318 128 625 Q128 835 204 1022 Q293 1238 482 1368 Q656 1487 900 1487 Z M889 1235 Q705 1235 589 1073 Q529 988 494.5 864.5 Q460 741 460 609 Q460 395 567 299 Q646 229 768 229 Q977 229 1092 429 Q1195 610 1195 855 Q1195 1235 889 1235 Z " />
<glyph glyph-name="Iota" unicode="&#x399;" horiz-adv-x="670" d="M71 0 L356 1464 L675 1464 L390 0 L71 0 Z " />
<glyph glyph-name="Kappa" unicode="&#x39a;" horiz-adv-x="1401" d="M60 0 L345 1464 L664 1464 L539 827 L1133 1464 L1492 1464 L881 835 L1244 0 L904 0 L635 606 L463 436 L379 0 L60 0 Z " />
<glyph glyph-name="Lambda" unicode="&#x39b;" horiz-adv-x="1349" d="M-79 0 L672 1464 L1042 1464 L1219 0 L890 0 L784 1157 L229 0 L-79 0 Z " />
<glyph glyph-name="Mu" unicode="&#x39c;" horiz-adv-x="1831" d="M60 0 L345 1464 L773 1464 L883 459 L1393 1464 L1840 1464 L1555 0 L1244 0 L1444 1048 L906 0 L670 0 L545 1048 L341 0 L60 0 Z " />
<glyph glyph-name="Nu" unicode="&#x39d;" horiz-adv-x="1495" d="M60 0 L345 1464 L693 1464 L1025 459 L1221 1464 L1510 1464 L1225 0 L889 0 L549 1024 L349 0 L60 0 Z " />
<glyph glyph-name="Xi" unicode="&#x39e;" horiz-adv-x="1233" d="M6 0 L56 252 L1068 252 L1018 0 L6 0 Z M241 1212 L291 1464 L1302 1464 L1252 1212 L241 1212 Z M241 616 L289 868 L1071 868 L1022 616 L241 616 Z " />
<glyph glyph-name="Omicron" unicode="&#x39f;" horiz-adv-x="1554" d="M879 1487 Q1184 1487 1355 1291 Q1505 1120 1505 839 Q1505 566 1376 345 Q1274 168 1109 72 Q945 -23 736 -23 Q465 -23 299 144 Q127 317 127 622 Q127 833 203 1022 Q291 1238 477 1367 Q649 1487 879 1487 Z M882 1235 Q700 1235 587 1073 Q527 987 493 862 Q459 737 459 603 Q459 422 536.5 325.5 Q614 229 761 229 Q892 229 991 324 Q1081 411 1130 567 Q1173 704 1173 860 Q1173 1074 1073 1167 Q1000 1235 882 1235 Z " />
<glyph glyph-name="Pi" unicode="&#x3a0;" horiz-adv-x="1438" d="M59 0 L294 1212 L174 1212 L223 1464 L1571 1464 L1521 1212 L1407 1212 L1172 0 L850 0 L1085 1212 L615 1212 L381 0 L59 0 Z " />
<glyph glyph-name="Rho" unicode="&#x3a1;" horiz-adv-x="1335" d="M60 0 L345 1464 L864 1464 Q1059 1464 1172 1394 Q1350 1284 1350 1041 Q1350 780 1160 645 Q1076 586 977 562 Q878 538 717 538 L484 538 L379 0 L60 0 Z M529 776 L769 776 Q913 776 982 853 Q1041 919 1041 1032 Q1041 1218 848 1218 L615 1218 L529 776 Z " />
<glyph glyph-name="Sigma" unicode="&#x3a3;" horiz-adv-x="1244" d="M-13 0 L44 287 L519 762 L250 1204 L302 1464 L1318 1464 L1269 1214 L578 1214 L858 749 L366 250 L1124 250 L1074 0 L-13 0 Z " />
<glyph glyph-name="Tau" unicode="&#x3a4;" horiz-adv-x="1266" d="M371 0 L606 1214 L213 1214 L262 1464 L1365 1464 L1317 1214 L924 1214 L690 0 L371 0 Z " />
<glyph glyph-name="Upsilon" unicode="&#x3a5;" horiz-adv-x="1325" d="M406 0 L525 612 L216 1464 L552 1464 L744 889 L1138 1464 L1469 1464 L841 596 L726 0 L406 0 Z " />
<glyph glyph-name="Phi" unicode="&#x3a6;" horiz-adv-x="1789" d="M636 -55 L665 97 Q474 127 356 212 Q246 291 185 410 Q123 533 123 678 Q123 795 165 908.5 Q207 1022 282 1109 Q386 1228 537.5 1293.5 Q689 1359 915 1380 L942 1520 L1230 1520 L1200 1368 Q1389 1338 1510 1253 Q1620 1176 1681 1055 Q1743 933 1743 787 Q1743 540 1584 359 Q1512 277 1405 215.5 Q1298 154 1180 127 Q1084 105 952 91 L924 -55 L636 -55 Z M999 331 Q1147 358 1236 424 Q1319 487 1368.5 593 Q1418 699 1418 815 Q1418 1071 1154 1130 L999 331 Z M712 336 L867 1134 Q719 1107 630 1041 Q547 978 497.5 872 Q448 766 448 651 Q448 390 712 336 Z " />
<glyph glyph-name="Chi" unicode="&#x3a7;" horiz-adv-x="1427" d="M-46 0 L568 770 L273 1464 L634 1464 L808 987 L1146 1464 L1500 1464 L945 745 L1267 0 L910 0 L710 536 L310 0 L-46 0 Z " />
<glyph glyph-name="Psi" unicode="&#x3a8;" horiz-adv-x="1836" d="M655 0 L716 313 L657 313 Q407 313 287 440 Q174 559 174 760 Q174 879 209 1057 L288 1464 L610 1464 L512 962 Q493 866 493 763 Q493 661 542.5 613 Q592 565 699 565 L765 565 L940 1464 L1257 1464 L1082 565 L1155 565 Q1305 565 1378 646 Q1440 716 1473 881 L1586 1464 L1908 1464 L1782 817 Q1701 311 1169 313 L1033 313 L972 0 L655 0 Z " />
<glyph glyph-name="uni03A9" unicode="&#x3a9;" horiz-adv-x="1614" d="M-26 0 L18 225 L280 225 Q121 386 121 645 Q121 851 211 1036 Q322 1264 518 1382 Q693 1487 928 1487 Q1233 1487 1404 1312 Q1567 1144 1567 867 Q1567 667 1484 503 Q1401 339 1242 225 L1505 225 L1461 0 L816 0 L861 225 Q983 264 1067 362 Q1141 448 1183 570 Q1235 721 1235 879 Q1235 1046 1158 1138 Q1077 1235 917 1235 Q676 1235 550 997 Q453 813 453 578 Q453 433 496.5 348.5 Q540 264 635 225 L591 0 L-26 0 Z " />
<glyph glyph-name="Iotadieresis" unicode="&#x3aa;" horiz-adv-x="670" d="M71 0 L356 1464 L675 1464 L390 0 L71 0 Z M347 1890 Q409 1890 449.5 1850.5 Q490 1811 490 1750 Q490 1679 439.5 1628 Q389 1577 318 1577 Q257 1577 216.5 1617.5 Q176 1658 176 1720 Q176 1789 227 1839.5 Q278 1890 347 1890 Z M771 1890 Q832 1890 872 1850 Q912 1810 912 1750 Q912 1679 861.5 1628 Q811 1577 740 1577 Q680 1577 641 1617 Q602 1657 602 1719 Q602 1789 652 1839.5 Q702 1890 771 1890 Z " />
<glyph glyph-name="Upsilondieresis" unicode="&#x3ab;" horiz-adv-x="1325" d="M406 0 L525 612 L216 1464 L552 1464 L744 889 L1138 1464 L1469 1464 L841 596 L726 0 L406 0 Z M675 1890 Q736 1890 776.5 1850.5 Q817 1811 817 1750 Q817 1679 766.5 1628 Q716 1577 645 1577 Q585 1577 544.5 1617.5 Q504 1658 504 1720 Q504 1789 555 1839.5 Q606 1890 675 1890 Z M1098 1890 Q1159 1890 1199 1850.5 Q1239 1811 1239 1750 Q1239 1679 1188.5 1628 Q1138 1577 1068 1577 Q1008 1577 969 1617 Q930 1657 930 1719 Q930 1789 980 1839.5 Q1030 1890 1098 1890 Z " />
<glyph glyph-name="alphatonos" unicode="&#x3ac;" horiz-adv-x="1206" d="M1167 1071 L959 0 L656 0 L685 150 Q562 -23 382 -23 Q245 -23 162 69 Q117 119 91 202.5 Q65 286 65 384 Q65 511 100 640.5 Q135 770 196 867 Q341 1098 571 1098 Q771 1098 837 929 L864 1071 L1167 1071 Z M639 873 Q524 873 449 720 Q416 654 395 559 Q374 464 374 382 Q374 300 409.5 255 Q445 210 508 210 Q634 210 712 355 Q743 414 764.5 505.5 Q786 597 786 674 Q786 796 722 847 Q690 873 639 873 Z M953 1573 L850 1219 L597 1219 L632 1573 L953 1573 Z " />
<glyph glyph-name="epsilontonos" unicode="&#x3ad;" horiz-adv-x="1096" d="M424 639 L813 639 L777 457 L388 457 Q380 427 380 398 Q380 304 432 254 Q484 204 581 204 Q653 204 709.5 229.5 Q766 255 831 316 L997 159 Q824 -23 552 -23 Q321 -23 194 98 Q71 216 71 431 Q71 567 117 693.5 Q163 820 247 913 Q413 1098 674 1098 Q972 1098 1097 878 L900 739 Q853 813 803.5 843 Q754 873 680 873 Q503 873 424 639 Z M937 1573 L834 1219 L581 1219 L616 1573 L937 1573 Z " />
<glyph glyph-name="etatonos" unicode="&#x3ae;" horiz-adv-x="1218" d="M38 0 L246 1071 L551 1071 L517 898 Q576 986 637 1030 Q731 1098 854 1098 Q981 1098 1052 1017 Q1121 939 1121 808 Q1121 752 1105 671 L902 -373 L598 -373 L792 622 Q802 677 802 727 Q802 850 683 850 Q598 850 540.5 787 Q483 724 460 605 L343 0 L38 0 Z M958 1573 L855 1219 L602 1219 L637 1573 L958 1573 Z " />
<glyph glyph-name="iotatonos" unicode="&#x3af;" horiz-adv-x="637" d="M559 1071 L427 390 Q408 319 408 292 Q408 259 425 245.5 Q442 232 484 232 Q511 232 552 237 L506 0 Q420 -10 361 -10 Q99 -10 99 202 Q99 264 123 390 L256 1071 L559 1071 Z M662 1573 L559 1219 L306 1219 L341 1573 L662 1573 Z " />
<glyph glyph-name="upsilondieresistonos" unicode="&#x3b0;" horiz-adv-x="1191" d="M246 1071 L549 1071 L431 463 Q418 397 418 332 Q418 202 536 202 Q681 202 726 433 L850 1071 L1153 1071 L1015 363 Q978 172 878 84 Q756 -23 523 -23 Q320 -23 221 60 Q119 145 119 319 Q119 418 144 546 L246 1071 Z M912 1573 L809 1219 L603 1219 L638 1573 L912 1573 Z M408 1505 Q459 1505 493 1471.5 Q527 1438 527 1387 Q527 1327 482.5 1282 Q438 1237 378 1237 Q326 1237 292.5 1271 Q259 1305 259 1358 Q259 1418 303 1461.5 Q347 1505 408 1505 Z M1096 1505 Q1148 1505 1181.5 1471.5 Q1215 1438 1215 1387 Q1215 1327 1171 1282 Q1127 1237 1067 1237 Q1015 1237 982 1270.5 Q949 1304 949 1357 Q949 1418 992.5 1461.5 Q1036 1505 1096 1505 Z " />
<glyph glyph-name="alpha" unicode="&#x3b1;" horiz-adv-x="1206" d="M1167 1071 L959 0 L656 0 L685 150 Q562 -23 382 -23 Q245 -23 162 69 Q117 119 91 202.5 Q65 286 65 384 Q65 511 100 640.5 Q135 770 196 867 Q341 1098 571 1098 Q771 1098 837 929 L864 1071 L1167 1071 Z M639 873 Q524 873 449 720 Q416 654 395 559 Q374 464 374 382 Q374 300 409.5 255 Q445 210 508 210 Q634 210 712 355 Q743 414 764.5 505.5 Q786 597 786 674 Q786 796 722 847 Q690 873 639 873 Z " />
<glyph glyph-name="beta" unicode="&#x3b2;" horiz-adv-x="1259" d="M-31 -379 L246 1047 Q279 1216 302 1280 Q325 1344 374 1404 Q505 1563 777 1563 Q981 1563 1091 1470 Q1196 1381 1196 1231 Q1196 980 910 894 Q1011 859 1062 812 Q1169 713 1169 535 Q1169 425 1128 310 Q1087 195 1019 116 Q900 -23 695 -23 Q566 -23 481 15 L524 237 Q576 202 633 202 Q738 202 798 317 Q860 435 860 588 Q860 686 810.5 733.5 Q761 781 657 781 L644 781 L683 983 Q786 987 835 1024 Q920 1086 920 1215 Q920 1356 778 1356 Q675 1356 618 1268 Q581 1209 556 1082 L272 -379 L-31 -379 Z " />
<glyph glyph-name="gamma" unicode="&#x3b3;" horiz-adv-x="1053" d="M204 -379 L278 -1 L112 1071 L422 1071 L505 365 L849 1071 L1150 1071 L582 -1 L508 -379 L204 -379 Z " />
<glyph glyph-name="delta" unicode="&#x3b4;" horiz-adv-x="1184" d="M442 1032 Q399 1082 382.5 1123.5 Q366 1165 366 1227 Q366 1389 484 1485 Q586 1569 763 1569 Q1012 1569 1190 1401 L1018 1225 Q967 1285 901 1318.5 Q835 1352 767 1352 Q654 1352 654 1242 Q654 1182 699 1144 Q723 1124 842 1058 Q925 1013 970.5 972 Q1016 931 1048 876 Q1107 770 1107 614 Q1107 348 963 172 Q803 -23 542 -23 Q310 -23 183 136 Q77 269 77 467 Q77 664 172.5 812 Q268 960 442 1032 Z M635 872 Q503 872 435 702 Q386 580 386 431 Q386 202 550 202 Q685 202 752 379 Q798 500 798 643 Q798 872 635 872 Z " />
<glyph glyph-name="epsilon" unicode="&#x3b5;" horiz-adv-x="1096" d="M424 639 L813 639 L777 457 L388 457 Q380 427 380 398 Q380 304 432 254 Q484 204 581 204 Q653 204 709.5 229.5 Q766 255 831 316 L997 159 Q824 -23 552 -23 Q321 -23 194 98 Q71 216 71 431 Q71 567 117 693.5 Q163 820 247 913 Q413 1098 674 1098 Q972 1098 1097 878 L900 739 Q853 813 803.5 843 Q754 873 680 873 Q503 873 424 639 Z " />
<glyph glyph-name="zeta" unicode="&#x3b6;" horiz-adv-x="931" d="M319 1317 L365 1542 L1069 1542 L1024 1317 Q761 1086 644 949 Q385 644 385 361 Q385 280 419 245.5 Q453 211 544 197 Q619 187 660.5 168 Q702 149 733 112 Q789 45 789 -62 Q789 -203 688 -373 L422 -373 Q513 -211 513 -122 Q513 -61 477 -36 Q457 -22 377 -13 Q239 4 171 70 Q76 162 76 338 Q76 511 156.5 671 Q237 831 407 996 Q525 1110 806 1317 L319 1317 Z " />
<glyph glyph-name="eta" unicode="&#x3b7;" horiz-adv-x="1218" d="M38 0 L246 1071 L551 1071 L517 898 Q576 986 637 1030 Q731 1098 854 1098 Q981 1098 1052 1017 Q1121 939 1121 808 Q1121 752 1105 671 L902 -373 L598 -373 L792 622 Q802 677 802 727 Q802 850 683 850 Q598 850 540.5 787 Q483 724 460 605 L343 0 L38 0 Z " />
<glyph glyph-name="theta" unicode="&#x3b8;" horiz-adv-x="1234" d="M780 1561 Q900 1561 1001 1495 Q1104 1427 1159 1295.5 Q1214 1164 1214 984 Q1214 790 1156.5 592 Q1099 394 1000 252 Q812 -23 551 -23 Q444 -23 355 24 Q266 71 209 158 Q110 310 110 551 Q110 742 168.5 943 Q227 1144 325 1287 Q512 1561 780 1561 Z M864 692 L429 692 Q409 559 409 475 Q409 346 451 272 Q492 202 568 202 Q757 202 864 692 Z M901 895 Q915 1018 915 1069 Q915 1196 872 1269 Q834 1336 758 1336 Q629 1336 531 1094 Q500 1017 470 895 L901 895 Z " />
<glyph glyph-name="iota" unicode="&#x3b9;" horiz-adv-x="637" d="M559 1071 L427 390 Q408 319 408 292 Q408 259 425 245.5 Q442 232 484 232 Q511 232 552 237 L506 0 Q420 -10 361 -10 Q99 -10 99 202 Q99 264 123 390 L256 1071 L559 1071 Z " />
<glyph glyph-name="kappa" unicode="&#x3ba;" horiz-adv-x="1143" d="M395 276 L341 0 L38 0 L246 1071 L549 1071 L464 633 L895 1071 L1231 1071 L799 660 L1068 0 L748 0 L567 442 L395 276 Z " />
<glyph glyph-name="lambda" unicode="&#x3bb;" horiz-adv-x="1116" d="M-84 0 L535 1115 L480 1542 L786 1542 L988 0 L673 0 L590 732 L217 0 L-84 0 Z " />
<glyph glyph-name="uni03BC" unicode="&#x3bc;" horiz-adv-x="1214" d="M-35 -373 L246 1071 L549 1071 L424 427 Q414 376 414 337 Q414 217 530 217 Q613 217 670.5 279 Q728 341 750 453 L870 1071 L1175 1071 L966 0 L662 0 L696 174 Q574 -14 365 -14 Q358 -14 339 -11 L269 -373 L-35 -373 Z " />
<glyph glyph-name="nu" unicode="&#x3bd;" horiz-adv-x="1077" d="M269 0 L124 1071 L439 1071 L505 330 L855 1071 L1160 1071 L603 0 L269 0 Z " />
<glyph glyph-name="xi" unicode="&#x3be;" horiz-adv-x="963" d="M282 1317 L327 1542 L1094 1542 L1048 1317 L963 1317 Q779 1317 688 1263 Q634 1232 603.5 1181 Q573 1130 573 1072 Q573 977 637 935 Q680 907 782 907 L916 907 L871 682 L690 682 Q603 682 557 669 Q511 656 472 621 Q426 579 398 510.5 Q370 442 370 370 Q370 282 411 241 Q429 222 455.5 213 Q482 204 545 195 Q679 177 736 111 Q796 42 796 -65 Q796 -205 694 -373 L428 -373 Q485 -270 502.5 -222.5 Q520 -175 520 -122 Q520 -70 494.5 -47.5 Q469 -25 402 -17 Q309 -6 261.5 9 Q214 24 175 55 Q61 145 61 330 Q61 544 204 677 Q290 757 453 806 Q391 834 362 853 Q274 912 274 1025 Q274 1154 408 1235 Q487 1283 613 1317 L282 1317 Z " />
<glyph glyph-name="omicron" unicode="&#x3bf;" horiz-adv-x="1196" d="M645 1098 Q863 1098 991 964 Q1119 829 1119 605 Q1119 464 1070.5 339 Q1022 214 933 128 Q777 -23 546 -23 Q333 -23 205 111 Q77 246 77 477 Q77 613 126 738 Q175 863 262 949 Q412 1098 645 1098 Z M641 873 Q506 873 436 703 Q386 581 386 434 Q386 202 557 202 Q694 202 763 379 Q810 500 810 644 Q810 756 768 813 Q723 873 641 873 Z " />
<glyph glyph-name="rho" unicode="&#x3c1;" horiz-adv-x="1216" d="M90 -373 Q50 -163 50 88 Q50 559 192 808 Q277 960 422 1037 Q536 1098 677 1098 Q884 1098 1010 977 Q1144 848 1144 628 Q1144 473 1081 325 Q1002 139 847 48 Q727 -23 587 -23 Q436 -23 326 68 Q342 -184 382 -373 L90 -373 Z M661 873 Q522 873 446 709 Q382 574 382 403 Q382 310 430 256 Q478 202 561 202 Q692 202 766 355 Q795 413 815 506 Q835 599 835 672 Q835 873 661 873 Z " />
<glyph glyph-name="uni03C2" unicode="&#x3c2;" horiz-adv-x="997" d="M728 -373 L465 -373 Q553 -212 553 -116 Q553 -63 530 -44.5 Q507 -26 424 -14 Q271 9 202 59 Q65 158 65 387 Q65 541 113 683.5 Q161 826 244 920 Q402 1098 630 1098 Q779 1098 879.5 1024.5 Q980 951 1017 814 L775 708 Q749 793 718 824.5 Q687 856 629 856 Q510 856 441 709 Q412 649 393 556.5 Q374 464 374 385 Q374 284 426 238 Q456 212 543 199 Q642 185 689 167 Q736 149 768 116 Q829 49 829 -59 Q829 -211 728 -373 Z " />
<glyph glyph-name="sigma" unicode="&#x3c3;" horiz-adv-x="1199" d="M1265 1071 L1219 835 L1019 848 Q1093 751 1093 605 Q1093 480 1051 358.5 Q1009 237 936 154 Q863 69 757 23 Q652 -23 535 -23 Q329 -23 201 103 Q71 231 71 455 Q71 594 119 720 Q167 846 253 934 Q337 1020 440.5 1059 Q544 1098 689 1098 Q774 1098 870 1085 Q978 1071 1023 1071 L1265 1071 Z M625 873 Q507 873 439 727 Q380 602 380 437 Q380 202 541 202 Q668 202 736 371 Q784 494 784 646 Q784 873 625 873 Z " />
<glyph glyph-name="tau" unicode="&#x3c4;" horiz-adv-x="914" d="M200 0 L363 846 L77 846 L122 1071 L985 1071 L939 846 L666 846 L503 0 L200 0 Z " />
<glyph glyph-name="upsilon" unicode="&#x3c5;" horiz-adv-x="1191" d="M246 1071 L549 1071 L431 463 Q418 397 418 332 Q418 202 536 202 Q681 202 726 433 L850 1071 L1153 1071 L1015 363 Q978 172 878 84 Q756 -23 523 -23 Q320 -23 221 60 Q119 145 119 319 Q119 418 144 546 L246 1071 Z " />
<glyph glyph-name="phi" unicode="&#x3c6;" horiz-adv-x="1563" d="M457 -373 L527 -13 Q357 18 247 102 Q68 237 68 471 Q68 806 450 999 L553 806 Q468 754 422.5 668.5 Q377 583 377 476 Q377 263 569 204 L740 1083 Q818 1094 881 1094 Q1137 1094 1307 969 Q1394 906 1441.5 806 Q1489 706 1489 587 Q1489 335 1306 174 Q1123 13 808 -13 L738 -373 L457 -373 Z M850 203 Q988 233 1063 304 Q1118 356 1149 434 Q1180 512 1180 597 Q1180 707 1128 776.5 Q1076 846 979 866 L850 203 Z " />
<glyph glyph-name="chi" unicode="&#x3c7;" horiz-adv-x="1077" d="M-207 -373 L339 409 L134 1071 L456 1071 L571 655 L857 1071 L1151 1071 L669 378 L904 -373 L582 -373 L438 137 L87 -373 L-207 -373 Z " />
<glyph glyph-name="psi" unicode="&#x3c8;" horiz-adv-x="1683" d="M1650 1071 L1540 503 Q1508 340 1478 267 Q1448 194 1386 131 Q1249 -8 1001 -8 L882 -8 L811 -373 L516 -373 L587 -8 L550 -8 Q346 -8 238 95 Q130 198 130 393 Q130 508 170 712 L239 1071 L542 1071 L448 584 Q429 487 429 399 Q429 303 470 260 Q511 217 604 217 L632 217 L797 1071 L1092 1071 L927 217 L975 217 Q1095 217 1155 292 Q1209 360 1240 518 L1347 1071 L1650 1071 Z " />
<glyph glyph-name="omega" unicode="&#x3c9;" horiz-adv-x="1574" d="M490 1112 L647 975 Q554 883 498 793 Q369 588 369 378 Q369 285 409 237 Q438 202 481 202 Q539 202 576.5 270.5 Q614 339 646 505 L701 791 L970 791 L914 505 Q887 365 887 301 Q887 255 912.5 228.5 Q938 202 981 202 Q1075 202 1130 313 Q1154 362 1169.5 445 Q1185 528 1185 608 Q1185 801 1093 980 L1271 1102 Q1378 978 1411 920 Q1494 769 1494 591 Q1494 475 1460 360 Q1426 245 1369 167 Q1229 -23 997 -23 Q850 -23 779 63 Q748 102 727 165 Q669 67 596 22 Q523 -23 422 -23 Q242 -23 147 96 Q60 205 60 374 Q60 505 104.5 635 Q149 765 230 872 Q314 982 490 1112 Z " />
<glyph glyph-name="iotadieresis" unicode="&#x3ca;" horiz-adv-x="637" d="M559 1071 L427 390 Q408 319 408 292 Q408 259 425 245.5 Q442 232 484 232 Q511 232 552 237 L506 0 Q420 -10 361 -10 Q99 -10 99 202 Q99 264 123 390 L256 1071 L559 1071 Z M288 1546 Q349 1546 389.5 1506.5 Q430 1467 430 1406 Q430 1335 379.5 1284 Q329 1233 258 1233 Q198 1233 157.5 1273.5 Q117 1314 117 1376 Q117 1445 168 1495.5 Q219 1546 288 1546 Z M711 1546 Q772 1546 812 1506.5 Q852 1467 852 1406 Q852 1335 801.5 1284 Q751 1233 681 1233 Q621 1233 582 1273 Q543 1313 543 1375 Q543 1445 593 1495.5 Q643 1546 711 1546 Z " />
<glyph glyph-name="upsilondieresis" unicode="&#x3cb;" horiz-adv-x="1191" d="M246 1071 L549 1071 L431 463 Q418 397 418 332 Q418 202 536 202 Q681 202 726 433 L850 1071 L1153 1071 L1015 363 Q978 172 878 84 Q756 -23 523 -23 Q320 -23 221 60 Q119 145 119 319 Q119 418 144 546 L246 1071 Z M565 1546 Q626 1546 666.5 1506.5 Q707 1467 707 1406 Q707 1335 656.5 1284 Q606 1233 535 1233 Q474 1233 434 1273.5 Q394 1314 394 1376 Q394 1445 445 1495.5 Q496 1546 565 1546 Z M988 1546 Q1049 1546 1089 1506.5 Q1129 1467 1129 1406 Q1129 1335 1078.5 1284 Q1028 1233 958 1233 Q898 1233 859 1273 Q820 1313 820 1375 Q820 1445 870 1495.5 Q920 1546 988 1546 Z " />
<glyph glyph-name="omicrontonos" unicode="&#x3cc;" horiz-adv-x="1196" d="M645 1098 Q863 1098 991 964 Q1119 829 1119 605 Q1119 464 1070.5 339 Q1022 214 933 128 Q777 -23 546 -23 Q333 -23 205 111 Q77 246 77 477 Q77 613 126 738 Q175 863 262 949 Q412 1098 645 1098 Z M641 873 Q506 873 436 703 Q386 581 386 434 Q386 202 557 202 Q694 202 763 379 Q810 500 810 644 Q810 756 768 813 Q723 873 641 873 Z M911 1573 L808 1219 L555 1219 L590 1573 L911 1573 Z " />
<glyph glyph-name="upsilontonos" unicode="&#x3cd;" horiz-adv-x="1191" d="M246 1071 L549 1071 L431 463 Q418 397 418 332 Q418 202 536 202 Q681 202 726 433 L850 1071 L1153 1071 L1015 363 Q978 172 878 84 Q756 -23 523 -23 Q320 -23 221 60 Q119 145 119 319 Q119 418 144 546 L246 1071 Z M945 1573 L842 1219 L589 1219 L624 1573 L945 1573 Z " />
<glyph glyph-name="omegatonos" unicode="&#x3ce;" horiz-adv-x="1574" d="M490 1112 L647 975 Q554 883 498 793 Q369 588 369 378 Q369 285 409 237 Q438 202 481 202 Q539 202 576.5 270.5 Q614 339 646 505 L701 791 L970 791 L914 505 Q887 365 887 301 Q887 255 912.5 228.5 Q938 202 981 202 Q1075 202 1130 313 Q1154 362 1169.5 445 Q1185 528 1185 608 Q1185 801 1093 980 L1271 1102 Q1378 978 1411 920 Q1494 769 1494 591 Q1494 475 1460 360 Q1426 245 1369 167 Q1229 -23 997 -23 Q850 -23 779 63 Q748 102 727 165 Q669 67 596 22 Q523 -23 422 -23 Q242 -23 147 96 Q60 205 60 374 Q60 505 104.5 635 Q149 765 230 872 Q314 982 490 1112 Z M1124 1573 L1021 1219 L768 1219 L803 1573 L1124 1573 Z " />
<glyph glyph-name="phi1" unicode="&#x3d5;" horiz-adv-x="1563" d="M738 1082 L812 1466 L1092 1466 L1018 1083 Q1118 1067 1208 1026 Q1361 957 1432 823 Q1489 716 1489 587 Q1489 335 1306 174 Q1123 13 808 -13 L738 -373 L457 -373 L527 -13 Q357 18 247 102 Q68 237 68 471 Q68 662 191 808 Q276 909 420.5 981.5 Q565 1054 738 1082 Z M569 204 L697 871 Q602 834 555 806 Q508 778 471 738 Q377 636 377 476 Q377 263 569 204 Z M850 203 Q988 232 1063 304 Q1118 356 1149 434 Q1180 512 1180 597 Q1180 707 1128 776.5 Q1076 846 979 866 L850 203 Z " />
<glyph glyph-name="uni0400" unicode="&#x400;" horiz-adv-x="1253" d="M60 0 L345 1464 L1309 1464 L1262 1214 L611 1214 L543 864 L1031 864 L984 626 L496 626 L425 250 L1107 250 L1059 0 L60 0 Z M849 1579 L671 1935 L1003 1935 L1058 1579 L849 1579 Z " />
<glyph glyph-name="afii10023" unicode="&#x401;" horiz-adv-x="1251" d="M55 0 L340 1464 L1309 1464 L1260 1206 L612 1206 L546 867 L1029 867 L980 622 L498 622 L427 258 L1108 258 L1058 0 L55 0 Z M656 1893 Q719 1893 760 1852.5 Q801 1812 801 1751 Q801 1679 749.5 1627 Q698 1575 627 1575 Q565 1575 524.5 1616.5 Q484 1658 484 1720 Q484 1791 535 1842 Q586 1893 656 1893 Z M1082 1893 Q1145 1893 1185.5 1852.5 Q1226 1812 1226 1750 Q1226 1679 1174.5 1627 Q1123 1575 1052 1575 Q991 1575 951 1616 Q911 1657 911 1720 Q911 1790 961.5 1841.5 Q1012 1893 1082 1893 Z " />
<glyph glyph-name="afii10051" unicode="&#x402;" horiz-adv-x="1561" d="M549 0 L222 0 L455 1202 L143 1202 L194 1464 L1298 1464 L1247 1202 L782 1202 L703 792 Q795 875 889 912.5 Q983 950 1095 950 Q1254 950 1336 870 Q1421 786 1421 636 Q1421 518 1378 286.5 Q1335 55 1289 -81 Q1254 -181 1192.5 -242.5 Q1131 -304 1031 -338 Q932 -371 748 -375 L773 -161 Q829 -156 855 -146 Q881 -136 902 -112 Q960 -47 1011 180 Q1077 472 1077 579 Q1077 704 951 704 Q800 704 652 532 L549 0 Z " />
<glyph glyph-name="afii10052" unicode="&#x403;" horiz-adv-x="1113" d="M54 0 L339 1464 L1237 1464 L1187 1202 L615 1202 L381 0 L54 0 Z M645 1577 L784 1933 L1139 1933 L864 1577 L645 1577 Z " />
<glyph glyph-name="afii10053" unicode="&#x404;" horiz-adv-x="1375" d="M1427 1148 L1151 1027 Q1120 1115 1091 1148 Q1020 1225 890 1225 Q619 1225 499 859 L1054 859 L1008 621 L452 621 Q449 568 449 547 Q449 412 512 333 Q587 239 746 239 Q852 239 931 279 Q1010 319 1084 410 L1312 240 Q1094 -23 714 -23 Q450 -23 297 106 Q110 264 110 557 Q110 800 211 1019 Q298 1208 446 1330 Q636 1487 900 1487 Q1170 1487 1314 1345 Q1392 1268 1427 1148 Z " />
<glyph glyph-name="afii10054" unicode="&#x405;" horiz-adv-x="1250" d="M1248 1164 L965 1052 Q929 1132 898 1164 Q833 1232 707 1232 Q610 1232 555.5 1191 Q501 1150 501 1077 Q501 1010 555 970 Q589 944 620 930.5 Q651 917 802 860 Q974 795 1054 714 Q1156 610 1156 444 Q1156 246 1022 121 Q867 -23 588 -23 Q354 -23 206.5 72 Q59 167 -5 359 L298 463 Q325 368 362 325 Q441 232 593 232 Q703 232 766 277 Q829 322 829 401 Q829 471 781 511 Q733 551 579 608 Q462 652 406.5 681 Q351 710 303 754 Q188 857 188 1031 Q188 1262 363 1388 Q498 1485 715 1485 Q989 1485 1134 1342 Q1198 1279 1248 1164 Z " />
<glyph glyph-name="afii10055" unicode="&#x406;" horiz-adv-x="665" d="M64 0 L349 1464 L677 1464 L392 0 L64 0 Z " />
<glyph glyph-name="afii10056" unicode="&#x407;" horiz-adv-x="665" d="M64 0 L349 1464 L677 1464 L392 0 L64 0 Z M341 1888 Q402 1888 442.5 1848.5 Q483 1809 483 1748 Q483 1677 432.5 1626 Q382 1575 311 1575 Q251 1575 210.5 1615.5 Q170 1656 170 1718 Q170 1787 221 1837.5 Q272 1888 341 1888 Z M764 1888 Q825 1888 865 1848.5 Q905 1809 905 1748 Q905 1677 854.5 1626 Q804 1575 734 1575 Q674 1575 635 1615 Q596 1655 596 1717 Q596 1787 646 1837.5 Q696 1888 764 1888 Z " />
<glyph glyph-name="afii10057" unicode="&#x408;" horiz-adv-x="1230" d="M1260 1464 L1058 432 Q1012 196 857 80 Q721 -23 512 -23 Q277 -23 158 107 Q63 211 63 380 Q63 450 83 548 L399 548 Q380 448 380 397 Q380 239 531 239 Q621 239 668.5 292 Q716 345 740 473 L933 1464 L1260 1464 Z " />
<glyph glyph-name="afii10058" unicode="&#x409;" horiz-adv-x="2028" d="M781 0 L1016 1206 L643 1206 L590 934 Q533 645 446 410 Q359 175 243 0 L-110 0 Q35 183 115 382 Q219 645 311 1113 L381 1464 L1393 1464 L1286 913 L1512 913 Q1624 913 1692 902 Q1760 891 1818 864 Q1974 791 1974 580 Q1974 456 1928 337 Q1882 218 1804 144 Q1724 66 1616.5 33 Q1509 0 1334 0 L781 0 Z M1157 249 L1387 249 Q1523 249 1588 326 Q1652 403 1652 513 Q1652 591 1607.5 627.5 Q1563 664 1467 664 L1237 664 L1157 249 Z " />
<glyph glyph-name="afii10059" unicode="&#x40a;" horiz-adv-x="2144" d="M666 1464 L558 913 L1033 913 L1140 1464 L1463 1464 L1356 914 L1543 914 Q1801 914 1915 832 Q1980 785 2016.5 702.5 Q2053 620 2053 518 Q2053 404 2009 298.5 Q1965 193 1889 126 Q1811 57 1708.5 28.5 Q1606 0 1433 0 L855 0 L982 651 L507 651 L381 0 L54 0 L339 1464 L666 1464 Z M1226 248 L1452 248 Q1588 248 1655 313 Q1729 385 1729 496 Q1729 587 1682.5 629.5 Q1636 672 1537 672 L1309 672 L1226 248 Z " />
<glyph glyph-name="afii10060" unicode="&#x40b;" horiz-adv-x="1563" d="M551 0 L224 0 L457 1202 L145 1202 L196 1464 L1300 1464 L1249 1202 L784 1202 L705 792 Q882 950 1097 950 Q1251 950 1330 871 Q1414 787 1414 634 Q1414 548 1391 431 L1308 0 L981 0 L1066 437 Q1084 532 1084 577 Q1084 704 952 704 Q801 704 654 532 L551 0 Z " />
<glyph glyph-name="afii10061" unicode="&#x40c;" horiz-adv-x="1325" d="M54 0 L339 1464 L666 1464 L548 858 L573 858 Q631 858 672.5 901.5 Q714 945 807 1104 Q938 1328 1040 1399 Q1142 1470 1332 1470 Q1368 1470 1449 1464 L1402 1223 Q1352 1226 1318 1226 Q1227 1226 1185 1189 Q1143 1152 1045 986 Q982 879 950 842 Q918 805 852 762 Q916 728 950 686 Q1011 608 1064 455 L1222 0 L866 0 L754 354 Q698 533 661.5 585.5 Q625 638 556 638 L505 638 L381 0 L54 0 Z M774 1577 L913 1933 L1268 1933 L993 1577 L774 1577 Z " />
<glyph glyph-name="uni040D" unicode="&#x40d;" horiz-adv-x="1447" d="M60 0 L345 1464 L664 1464 L496 600 L1123 1337 L1147 1464 L1466 1464 L1181 0 L862 0 L1032 874 L404 138 L378 0 L60 0 Z M925 1579 L747 1935 L1079 1935 L1134 1579 L925 1579 Z " />
<glyph glyph-name="afii10062" unicode="&#x40e;" horiz-adv-x="1256" d="M529 403 L182 1464 L528 1464 L727 736 L1108 1464 L1421 1464 L828 387 Q700 154 583 65 Q466 -24 287 -24 Q186 -24 92 0 L172 258 Q236 238 295 238 Q372 238 417.5 266.5 Q463 295 510 372 L529 403 Z M502 1910 L703 1910 Q705 1850 719 1825 Q747 1777 829 1777 Q896 1777 930 1808 Q964 1839 974 1910 L1174 1910 Q1158 1781 1113 1713 Q1027 1581 829 1581 Q623 1581 543 1711 Q503 1776 502 1910 Z " />
<glyph glyph-name="afii10145" unicode="&#x40f;" horiz-adv-x="1415" d="M54 0 L339 1464 L666 1464 L431 258 L874 258 L1109 1464 L1436 1464 L1151 0 L751 0 L651 -356 L416 -356 L454 0 L54 0 Z " />
<glyph glyph-name="afii10017" unicode="&#x410;" horiz-adv-x="1405" d="M1273 0 L938 0 L906 287 L377 287 L235 0 L-76 0 L690 1464 L1076 1464 L1273 0 Z M493 528 L883 528 L812 1177 L493 528 Z " />
<glyph glyph-name="afii10018" unicode="&#x411;" horiz-adv-x="1348" d="M54 0 L339 1464 L1289 1464 L1241 1216 L613 1216 L551 897 L773 897 Q1024 897 1136 818 Q1271 722 1271 510 Q1271 395 1228 292 Q1185 189 1110 123 Q1033 55 931 27.5 Q829 0 657 0 L54 0 Z M425 248 L676 248 Q820 248 886 317 Q949 383 949 489 Q949 578 902.5 619.5 Q856 661 758 661 L505 661 L425 248 Z " />
<glyph glyph-name="afii10019" unicode="&#x412;" horiz-adv-x="1393" d="M55 0 L340 1464 L920 1464 Q1085 1464 1188 1402 Q1339 1311 1339 1118 Q1339 978 1275 892.5 Q1211 807 1063 749 Q1163 717 1216 665 Q1298 585 1298 447 Q1298 233 1150 116.5 Q1002 0 728 0 L55 0 Z M425 249 L733 249 Q859 249 918 311 Q973 369 973 463 Q973 640 774 640 L501 640 L425 249 Z M545 869 L791 869 Q1023 869 1023 1067 Q1023 1215 852 1215 L613 1215 L545 869 Z " />
<glyph glyph-name="afii10020" unicode="&#x413;" horiz-adv-x="1113" d="M54 0 L339 1464 L1237 1464 L1187 1202 L615 1202 L381 0 L54 0 Z " />
<glyph glyph-name="afii10021" unicode="&#x414;" horiz-adv-x="1404" d="M1017 0 L121 0 L22 -356 L-214 -356 L-95 258 L36 258 Q131 397 198 580 Q293 842 377 1272 L414 1464 L1416 1464 L1182 258 L1333 258 L1214 -356 L978 -356 L1017 0 Z M860 250 L1046 1206 L667 1206 L643 1085 Q519 510 369 250 L860 250 Z " />
<glyph glyph-name="afii10022" unicode="&#x415;" horiz-adv-x="1251" d="M55 0 L340 1464 L1309 1464 L1260 1206 L612 1206 L546 867 L1029 867 L980 621 L498 621 L427 258 L1108 258 L1058 0 L55 0 Z " />
<glyph glyph-name="afii10024" unicode="&#x416;" horiz-adv-x="1894" d="M686 0 L811 642 Q726 631 660.5 573 Q595 515 486 354 L247 0 L-112 0 L212 455 Q308 589 381.5 660 Q455 731 532 762 Q485 801 468.5 845 Q452 889 423 1054 Q405 1158 374.5 1192 Q344 1226 270 1226 Q234 1226 184 1223 L231 1464 Q314 1470 329 1470 Q509 1470 578.5 1404.5 Q648 1339 688 1131 Q714 996 728 950.5 Q742 905 765 883 Q793 857 853 857 L971 1464 L1283 1464 L1165 857 Q1229 858 1256.5 865.5 Q1284 873 1312 897 Q1356 934 1460 1135 Q1524 1257 1567.5 1316.5 Q1611 1376 1662 1411 Q1747 1470 1908 1470 Q1936 1470 2023 1464 L1976 1223 Q1925 1226 1903 1226 Q1832 1226 1795.5 1186 Q1759 1146 1684 986 Q1626 862 1593 818 Q1560 774 1494 732 Q1577 680 1649 455 L1796 0 L1454 0 L1352 354 Q1304 522 1257.5 580.5 Q1211 639 1123 642 L998 0 L686 0 Z " />
<glyph glyph-name="afii10025" unicode="&#x417;" horiz-adv-x="1316" d="M9 382 L307 457 Q325 346 377 299 Q449 234 587 234 Q729 234 803 306 Q866 367 866 457 Q866 542 810.5 586.5 Q755 631 650 631 L501 631 L547 869 L688 869 Q808 869 880 912 Q976 968 976 1067 Q976 1145 918 1187 Q860 1229 754 1229 Q646 1229 572 1192 Q498 1155 427 1066 L218 1236 Q405 1485 785 1485 Q1023 1485 1161 1380 Q1298 1276 1298 1106 Q1298 923 1126 819 Q1077 789 983 758 Q1058 728 1093 700 Q1205 610 1205 451 Q1205 354 1156 261 Q1107 168 1023 104 Q854 -23 584 -23 Q405 -23 269 32 Q149 81 88 163 Q27 245 9 382 Z " />
<glyph glyph-name="afii10026" unicode="&#x418;" horiz-adv-x="1438" d="M54 0 L339 1464 L658 1464 L490 600 L1117 1337 L1141 1464 L1460 1464 L1175 0 L856 0 L1026 874 L398 138 L372 0 L54 0 Z " />
<glyph glyph-name="afii10027" unicode="&#x419;" horiz-adv-x="1438" d="M54 0 L339 1464 L658 1464 L490 600 L1117 1337 L1141 1464 L1460 1464 L1175 0 L856 0 L1026 874 L398 138 L372 0 L54 0 Z M592 1910 L793 1910 Q795 1850 809 1825 Q837 1777 919 1777 Q986 1777 1020 1808 Q1054 1839 1064 1910 L1264 1910 Q1248 1781 1203 1713 Q1117 1581 919 1581 Q713 1581 633 1711 Q593 1776 592 1910 Z " />
<glyph glyph-name="afii10028" unicode="&#x41a;" horiz-adv-x="1325" d="M54 0 L339 1464 L666 1464 L548 858 L573 858 Q631 858 672.5 901.5 Q714 945 807 1104 Q938 1328 1040 1399 Q1142 1470 1332 1470 Q1368 1470 1449 1464 L1402 1223 Q1352 1226 1318 1226 Q1227 1226 1185 1189 Q1143 1152 1045 986 Q982 879 950 842 Q918 805 852 762 Q916 728 950 686 Q1011 608 1064 455 L1222 0 L866 0 L754 354 Q698 533 661.5 585.5 Q625 638 556 638 L505 638 L381 0 L54 0 Z " />
<glyph glyph-name="afii10029" unicode="&#x41b;" horiz-adv-x="1368" d="M778 0 L1013 1206 L639 1206 L586 935 Q530 645 443 410.5 Q356 176 240 0 L-110 0 Q35 183 115 382 Q219 644 311 1113 L381 1464 L1390 1464 L1105 0 L778 0 Z " />
<glyph glyph-name="afii10030" unicode="&#x41c;" horiz-adv-x="1853" d="M55 0 L340 1464 L776 1464 L899 459 L1417 1464 L1873 1464 L1589 0 L1269 0 L1478 1077 L920 0 L680 0 L551 1077 L342 0 L55 0 Z " />
<glyph glyph-name="afii10031" unicode="&#x41d;" horiz-adv-x="1475" d="M55 0 L340 1464 L667 1464 L551 869 L1053 869 L1169 1464 L1496 1464 L1211 0 L884 0 L1003 607 L500 607 L382 0 L55 0 Z " />
<glyph glyph-name="afii10032" unicode="&#x41e;" horiz-adv-x="1556" d="M894 1485 Q1160 1485 1328 1317 Q1505 1140 1505 840 Q1505 569 1378 348 Q1274 168 1109 72.5 Q944 -23 737 -23 Q482 -23 317 127 Q125 302 125 619 Q125 834 208 1023 Q289 1206 434 1325 Q630 1485 894 1485 Z M880 1227 Q676 1227 565 1031 Q463 850 463 602 Q463 423 539 329 Q615 235 760 235 Q889 235 986 329 Q1073 412 1122 564 Q1166 702 1166 860 Q1166 1068 1068 1160 Q996 1227 880 1227 Z " />
<glyph glyph-name="afii10033" unicode="&#x41f;" horiz-adv-x="1448" d="M54 0 L339 1464 L1470 1464 L1185 0 L858 0 L1092 1204 L615 1204 L381 0 L54 0 Z " />
<glyph glyph-name="afii10034" unicode="&#x420;" horiz-adv-x="1332" d="M55 0 L340 1464 L875 1464 Q1093 1464 1213 1370 Q1350 1263 1350 1058 Q1350 812 1192.5 673.5 Q1035 535 756 535 L485 535 L381 0 L55 0 Z M532 777 L760 777 Q882 777 951 830 Q1035 896 1035 1031 Q1035 1213 834 1213 L617 1213 L532 777 Z " />
<glyph glyph-name="afii10035" unicode="&#x421;" horiz-adv-x="1425" d="M1331 381 Q1142 -23 711 -23 Q429 -23 271 156 Q123 322 123 612 Q123 900 249 1122 Q348 1294 506 1389 Q667 1485 871 1485 Q1149 1485 1298 1315 Q1344 1264 1370 1209 Q1396 1154 1422 1055 L1122 956 Q1102 1056 1073 1108 Q1010 1223 864 1223 Q675 1223 564 1028 Q462 848 462 597 Q462 241 737 241 Q846 241 923 304.5 Q1000 368 1058 505 L1331 381 Z " />
<glyph glyph-name="afii10036" unicode="&#x422;" horiz-adv-x="1264" d="M365 0 L600 1206 L207 1206 L257 1464 L1367 1464 L1317 1206 L924 1206 L690 0 L365 0 Z " />
<glyph glyph-name="afii10037" unicode="&#x423;" horiz-adv-x="1256" d="M529 403 L182 1464 L528 1464 L727 736 L1108 1464 L1421 1464 L828 387 Q700 154 583 65 Q466 -24 287 -24 Q186 -24 92 0 L172 258 Q236 238 295 238 Q372 238 417.5 266.5 Q463 295 510 372 L529 403 Z " />
<glyph glyph-name="afii10038" unicode="&#x424;" horiz-adv-x="1785" d="M629 -76 L673 150 Q537 161 448 187.5 Q359 214 287 265 Q115 386 115 616 Q115 822 239 995 Q344 1142 503.5 1219 Q663 1296 899 1315 L943 1541 L1233 1541 L1189 1315 Q1326 1304 1414.5 1277.5 Q1503 1251 1575 1201 Q1747 1079 1747 849 Q1747 643 1623 470 Q1518 323 1358.5 246 Q1199 169 963 150 L919 -76 L629 -76 Z M719 388 L853 1077 Q669 1054 578 967 Q519 910 484.5 820.5 Q450 731 450 632 Q450 523 515.5 464 Q581 405 719 388 Z M1009 388 Q1191 409 1284 498 Q1343 555 1377.5 645 Q1412 735 1412 834 Q1412 942 1347.5 1000.5 Q1283 1059 1143 1077 L1009 388 Z " />
<glyph glyph-name="afii10039" unicode="&#x425;" horiz-adv-x="1380" d="M-75 0 L538 769 L243 1464 L611 1464 L782 991 L1116 1464 L1478 1464 L924 746 L1246 0 L880 0 L682 534 L288 0 L-75 0 Z " />
<glyph glyph-name="afii10040" unicode="&#x426;" horiz-adv-x="1425" d="M54 0 L339 1464 L666 1464 L431 258 L874 258 L1109 1464 L1436 1464 L1202 258 L1354 258 L1234 -356 L999 -356 L1038 0 L54 0 Z " />
<glyph glyph-name="afii10041" unicode="&#x427;" horiz-adv-x="1341" d="M1078 0 L751 0 L854 530 Q724 380 503 380 Q334 380 246 476 Q168 561 168 706 Q168 811 202 986 L295 1464 L622 1464 L522 950 Q503 852 503 786 Q503 636 658 636 Q875 636 923 883 L1036 1464 L1363 1464 L1078 0 Z " />
<glyph glyph-name="afii10042" unicode="&#x428;" horiz-adv-x="2088" d="M54 0 L339 1464 L666 1464 L431 258 L826 258 L1061 1464 L1388 1464 L1153 258 L1548 258 L1783 1464 L2110 1464 L1825 0 L54 0 Z " />
<glyph glyph-name="afii10043" unicode="&#x429;" horiz-adv-x="2099" d="M54 0 L339 1464 L666 1464 L431 258 L826 258 L1061 1464 L1388 1464 L1153 258 L1548 258 L1783 1464 L2110 1464 L1875 258 L2028 258 L1908 -356 L1672 -356 L1712 0 L54 0 Z " />
<glyph glyph-name="afii10044" unicode="&#x42a;" horiz-adv-x="1500" d="M820 1464 L720 951 L907 951 Q1164 951 1277 866 Q1411 766 1411 545 Q1411 422 1366.5 310.5 Q1322 199 1245 129 Q1167 58 1064.5 29 Q962 0 790 0 L212 0 L447 1206 L128 1206 L178 1464 L820 1464 Z M583 248 L810 248 Q891 248 941 267 Q991 286 1028 332 Q1088 406 1088 520 Q1088 617 1043 663 Q998 709 901 709 L673 709 L583 248 Z " />
<glyph glyph-name="afii10045" unicode="&#x42b;" horiz-adv-x="1911" d="M1321 0 L1606 1464 L1933 1464 L1648 0 L1321 0 Z M661 1464 L561 951 L749 951 Q1006 951 1119 866 Q1253 766 1253 545 Q1253 422 1208.5 310.5 Q1164 199 1087 129 Q1009 58 906.5 29 Q804 0 631 0 L54 0 L339 1464 L661 1464 Z M425 248 L652 248 Q733 248 782.5 267 Q832 286 870 332 Q930 406 930 520 Q930 617 884.5 663 Q839 709 743 709 L515 709 L425 248 Z " />
<glyph glyph-name="afii10046" unicode="&#x42c;" horiz-adv-x="1342" d="M661 1464 L561 951 L749 951 Q1006 951 1119 866 Q1253 766 1253 545 Q1253 422 1208.5 310.5 Q1164 199 1087 129 Q1009 58 906.5 29 Q804 0 631 0 L54 0 L339 1464 L661 1464 Z M425 248 L652 248 Q733 248 782.5 267 Q832 286 870 332 Q930 406 930 520 Q930 617 884.5 663 Q839 709 743 709 L515 709 L425 248 Z " />
<glyph glyph-name="afii10047" unicode="&#x42d;" horiz-adv-x="1351" d="M419 859 L974 859 Q974 873 974 879 Q974 893 974 897 Q974 912 973 927 Q965 1047 924 1117 Q861 1225 702 1225 Q600 1225 529.5 1189.5 Q459 1154 380 1064 L162 1238 Q359 1487 717 1487 Q1002 1487 1155 1322 Q1307 1158 1307 879 Q1307 657 1234 467.5 Q1161 278 1029 158 Q829 -23 525 -23 Q319 -23 187.5 47.5 Q56 118 -13 266 L267 413 Q300 340 342 306 Q426 239 560 239 Q701 239 793.5 332 Q886 425 939 621 L373 621 L419 859 Z " />
<glyph glyph-name="afii10048" unicode="&#x42e;" horiz-adv-x="2126" d="M666 1464 L550 870 L772 870 Q815 1040 903 1169 Q987 1295 1107 1373 Q1276 1485 1487 1485 Q1770 1485 1936 1283 Q2076 1113 2076 841 Q2076 570 1953 349 Q1851 167 1687 70 Q1530 -23 1338 -23 Q1121 -23 971 89 Q860 173 804.5 299 Q749 425 742 608 L499 608 L381 0 L54 0 L339 1464 L666 1464 Z M1467 1228 Q1345 1228 1250 1132 Q1167 1048 1121 897 Q1080 760 1080 604 Q1080 429 1150 331 Q1218 235 1348 235 Q1475 235 1568 330 Q1649 413 1695 565 Q1737 703 1737 857 Q1737 1228 1467 1228 Z " />
</font>
</svg>
